<?xml version="1.0" encoding="utf-8"?>
<!-- Generator: Adobe Illustrator 18.1.1, SVG Export Plug-In . SVG Version: 6.00 Build 0)  -->
<svg version="1.1" id="Layer" xmlns="http://www.w3.org/2000/svg" xmlns:xlink="http://www.w3.org/1999/xlink" x="0px" y="0px"
	 viewBox="0 0 112.8 113.5" enable-background="new 0 0 112.8 113.5" xml:space="preserve">
<path fill-rule="evenodd" clip-rule="evenodd" fill="#E62E6E" d="M87.5,40.6L70.6,53.8l9.4,15L67.9,55.9l-11.4,8.9l-0.1,0l-0.1,0
	l-11.4-8.9L32.8,68.8l9.4-15L25.3,40.6v36.9h31.1h31.1V40.6z M83.8,36H56.4H29.1c-1.1,0-2.1,0.5-2.8,1.3L56.3,61l0.1-0.1l0.1,0.1
	l30.1-23.6C85.9,36.5,84.9,36,83.8,36z M56.4,112C25.9,112,1.1,87.3,1.1,56.7c0-30.5,24.7-55.3,55.3-55.3
	c30.5,0,55.3,24.7,55.3,55.3C111.7,87.3,87,112,56.4,112z"/>
</svg>
