<?xml version="1.0" encoding="utf-8"?>
<!-- Generator: Adobe Illustrator 18.1.1, SVG Export Plug-In . SVG Version: 6.00 Build 0)  -->
<svg version="1.1" id="Layer" xmlns="http://www.w3.org/2000/svg" xmlns:xlink="http://www.w3.org/1999/xlink" x="0px" y="0px"
	 viewBox="0 0 112.8 113.5" enable-background="new 0 0 112.8 113.5" xml:space="preserve">
<path fill-rule="evenodd" clip-rule="evenodd" fill="#E62E6E" d="M28.4,82.7c4.9-1.7,11.3-2,12.4-2c1.2,0,1.8,0,2.7,0.1
	c8.9,6.6,12.8,9.9,12.8,16.1c0,6.8-4.9,12-14.1,13c-9-2.4-17.2-7.1-23.8-13.4c0-0.4-0.2-0.8-0.2-1.3C18.2,86.6,25.7,83.6,28.4,82.7z
	 M24.1,39.3c0-3.2,0.6-6.5,2.6-9c1.9-2.4,5.2-4,8.2-4c9.8,0,14.8,13.7,14.8,22.4c0,2.2-0.2,6.1-2.9,8.9c-1.9,2-5.1,3.4-8,3.4
	C28.7,61.1,24.1,47.5,24.1,39.3z M93.9,32.6H83.6V22.3h-6.9v10.3H66.4v6.9h10.3v10.3h6.9V39.5h10.3V32.6z M56.4,111.8
	c-2,0-3.9-0.1-5.8-0.3c8.8-4.3,13.6-11.8,13.6-19.3c0-8.4-4.7-12.6-9.9-17.1L50,71.7c-1.3-1.1-3.1-2.6-3.1-5.2c0-2.7,1.8-4.4,3.3-6
	c5-4,9.9-8.3,9.9-17.3c0-9.3-5.7-14.1-8.4-16.5h7.3l7.5-4.4H42.4c-6.4,0-14.4,1-21.1,6.7c-5.1,4.5-7.5,10.7-7.5,16.3
	c0,9.5,7.1,19.1,19.5,19.1c1.2,0,2.5-0.1,3.8-0.3c-0.6,1.5-1.2,2.7-1.2,4.8c0,3.8,1.9,6.1,3.5,8.3c-5.3,0.3-15.2,1-22.5,5.6
	c-2.5,1.5-4.4,3.3-5.7,5.2C5,79.2,1.4,68.4,1.4,56.7C1.4,26.3,26,1.7,56.4,1.7c30.4,0,55.1,24.7,55.1,55.1
	C111.5,87.2,86.8,111.8,56.4,111.8z"/>
</svg>
