<?xml version="1.0" encoding="utf-8"?>
<!-- Generator: Adobe Illustrator 18.1.1, SVG Export Plug-In . SVG Version: 6.00 Build 0)  -->
<svg version="1.1" id="Layer" xmlns="http://www.w3.org/2000/svg" xmlns:xlink="http://www.w3.org/1999/xlink" x="0px" y="0px"
	 viewBox="0 0 112.8 113.5" enable-background="new 0 0 112.8 113.5" xml:space="preserve">
<g>
	<g>
		<path fill="#E62E6E" d="M56.4,67.7c6.1,0,11-4.9,11-11c0-2.4-0.8-4.6-2.1-6.4c-2-2.8-5.2-4.6-8.9-4.6c-3.7,0-6.9,1.8-8.9,4.6
			c-1.3,1.8-2.1,4-2.1,6.4C45.4,62.8,50.4,67.7,56.4,67.7L56.4,67.7z M56.4,67.7"/>
		<path fill="#E62E6E" d="M80.4,43.3V32.7H79l-9.2,0l0,10.6L80.4,43.3z M80.4,43.3"/>
		<path fill="#E62E6E" d="M56.4,1.8C26.1,1.8,1.5,26.5,1.5,56.7c0,30.3,24.6,54.9,54.9,54.9c30.3,0,54.9-24.6,54.9-54.9
			C111.3,26.5,86.7,1.8,56.4,1.8L56.4,1.8z M87.7,50.3v25.6c0,6.7-5.4,12.1-12.1,12.1H37.2c-6.7,0-12.1-5.4-12.1-12.1V37.6
			c0-6.7,5.4-12.1,12.1-12.1h38.3c6.7,0,12.1,5.4,12.1,12.1V50.3z M87.7,50.3"/>
		<path fill="#E62E6E" d="M73.5,56.7c0,9.4-7.7,17.1-17.1,17.1c-9.4,0-17.1-7.7-17.1-17.1c0-2.3,0.5-4.4,1.3-6.4h-9.3v25.6
			c0,3.3,2.7,6,6,6h38.3c3.3,0,6-2.7,6-6V50.3h-9.3C73,52.3,73.5,54.5,73.5,56.7L73.5,56.7z M73.5,56.7"/>
	</g>
</g>
</svg>
