<?xml version="1.0" encoding="utf-8"?>
<!-- Generator: Adobe Illustrator 18.1.1, SVG Export Plug-In . SVG Version: 6.00 Build 0)  -->
<svg version="1.1" id="Layer" xmlns="http://www.w3.org/2000/svg" xmlns:xlink="http://www.w3.org/1999/xlink" x="0px" y="0px"
	 viewBox="0 0 215 196.5" enable-background="new 0 0 215 196.5" xml:space="preserve">
<g>
	<g>
		<g>
			<polygon fill="#EF8DB9" points="133.9,8.6 161.3,26.2 133.9,43.9 			"/>
			<polygon fill="#EF8DB9" points="78.9,43.9 51.4,26.2 78.9,8.6 			"/>
		</g>
		<g>
			<polygon fill="#EC6DA5" points="133.9,43.9 106.4,26.2 133.9,8.6 			"/>
			<polygon fill="#EC6DA5" points="78.9,8.6 106.4,26.2 78.9,43.9 			"/>
		</g>
		<polygon fill="#E51974" points="106.4,96.9 78.9,79.3 106.4,61.6 		"/>
		<polygon fill="#D5226B" points="106.4,61.6 133.9,79.3 106.4,96.9 		"/>
		<g>
			<polygon fill="#E73486" points="106.4,26.2 133.9,43.9 106.4,61.6 			"/>
			<polygon fill="#E73486" points="133.9,43.9 161.3,61.6 133.9,79.3 			"/>
			<polygon fill="#E73486" points="78.9,79.3 51.4,61.6 78.9,43.9 			"/>
		</g>
		<g>
			<polygon fill="#E62E6E" points="133.9,79.3 106.4,61.6 133.9,43.9 			"/>
			<polygon fill="#E62E6E" points="78.9,43.9 106.4,61.6 78.9,79.3 			"/>
		</g>
		<g>
			<polygon fill="#E95397" points="106.4,61.6 78.9,43.9 106.4,26.2 			"/>
			<polygon fill="#E95397" points="161.3,61.6 133.9,43.9 161.3,26.2 			"/>
			<polygon fill="#E95397" points="51.4,26.2 78.9,43.9 51.4,61.6 			"/>
		</g>
	</g>
	<g>
		<g>
			<path fill="#E62E6E" d="M17.1,131.8h0.2l12.8,15.8l12.7-15.8H43v27.8h-2.5v-21.4l-10.4,13.1h-0.2l-10.3-13.1v21.4h-2.5V131.8z"/>
			<path fill="#E62E6E" d="M66.3,152.9H54l-2.7,6.7h-2.6l11.4-27.8h0.2l11.5,27.8H69L66.3,152.9z M55,150.5h10.4l-5.2-12.9L55,150.5
				z"/>
			<path fill="#E62E6E" d="M73.9,146c0-8,6.2-13.9,13.8-13.9c4.8,0,7.9,1.7,10.2,4.2l-1.8,1.7c-1.9-2.1-4.3-3.6-8.5-3.6
				c-6.3,0-11,5-11,11.6c0,6.6,4.8,11.6,11.5,11.6c4,0,6.5-1.2,8.3-2.6v-6.2h-8.2v-2.3h10.7v9.8c-2.5,2.2-5.6,3.8-10.8,3.8
				C80.1,159.9,73.9,154.1,73.9,146z"/>
			<path fill="#E62E6E" d="M105.6,132.4H122v2.3h-13.8v10h12.3v2.3h-12.3v10.2h14.4v2.3h-17V132.4z"/>
			<path fill="#E62E6E" d="M131.5,138.2v21.4H129v-27.8h0.2l18.3,22v-21.4h2.4v27.8h-0.2L131.5,138.2z"/>
			<path fill="#E62E6E" d="M164,134.7h-8.4v-2.3H175v2.3h-8.4v24.9H164V134.7z"/>
			<path fill="#E62E6E" d="M192.4,152.9h-12.3l-2.7,6.7h-2.6l11.4-27.8h0.2l11.5,27.8h-2.8L192.4,152.9z M181,150.5h10.4l-5.2-12.9
				L181,150.5z"/>
			<path fill="#E62E6E" d="M20.1,173.3h0.7l3.9,12.8l4.5-13.2h0.1l4.5,13.2l3.9-12.8h0.7l-4.5,14.6h-0.1l-4.5-13.2l-4.5,13.2h-0.1
				L20.1,173.3z"/>
			<path fill="#E62E6E" d="M51.5,173.3h8.2v0.6h-7.6v6.2H59v0.6h-6.8v6.3H60v0.6h-8.5V173.3z"/>
			<path fill="#E62E6E" d="M73.7,173.3h0.7V187h6.9v0.6h-7.6V173.3z"/>
			<path fill="#E62E6E" d="M94.6,173.3h0.7V187h6.9v0.6h-7.6V173.3z"/>
			<path fill="#E62E6E" d="M116.1,174.7v12.9h-0.6V173h0.1l10,13.3v-12.9h0.6v14.6h-0.1L116.1,174.7z"/>
			<path fill="#E62E6E" d="M140.8,173.3h8.2v0.6h-7.6v6.2h6.8v0.6h-6.8v6.3h7.9v0.6h-8.5V173.3z"/>
			<path fill="#E62E6E" d="M162.3,184.6c0.8,1.6,2.3,2.5,4.1,2.5c2.3,0,3.6-1.2,3.6-3c0-1.7-0.9-2.6-3-3.6l-1.3-0.6
				c-2-1-3.1-1.8-3.1-3.7c0-1.9,1.5-3.1,3.4-3.1c1.7,0,2.9,0.6,3.7,2l-0.5,0.3c-0.7-1.2-1.7-1.7-3.2-1.7c-1.6,0-2.8,1.1-2.8,2.6
				c0,1.6,0.9,2.2,2.8,3.1l1.3,0.6c2.4,1.2,3.4,2.2,3.4,4.1c0,2.1-1.6,3.6-4.2,3.6c-2.2,0-3.8-1.1-4.7-2.8L162.3,184.6z"/>
			<path fill="#E62E6E" d="M183.8,184.6c0.8,1.6,2.3,2.5,4.1,2.5c2.3,0,3.6-1.2,3.6-3c0-1.7-0.9-2.6-3-3.6l-1.3-0.6
				c-2-1-3.1-1.8-3.1-3.7c0-1.9,1.5-3.1,3.4-3.1c1.7,0,2.9,0.6,3.7,2l-0.5,0.3c-0.7-1.2-1.7-1.7-3.2-1.7c-1.6,0-2.8,1.1-2.8,2.6
				c0,1.6,0.9,2.2,2.8,3.1l1.3,0.6c2.4,1.2,3.4,2.2,3.4,4.1c0,2.1-1.6,3.6-4.2,3.6c-2.2,0-3.8-1.1-4.7-2.8L183.8,184.6z"/>
		</g>
	</g>
</g>
</svg>
