<?xml version="1.0" encoding="utf-8"?>
<!-- Generator: Adobe Illustrator 18.1.1, SVG Export Plug-In . SVG Version: 6.00 Build 0)  -->
<svg version="1.1" id="Layer_1" xmlns="http://www.w3.org/2000/svg" xmlns:xlink="http://www.w3.org/1999/xlink" x="0px" y="0px"
	 viewBox="-461 335 100 100" enable-background="new -461 335 100 100" xml:space="preserve">
<g>
	<path fill="#FFFFFF" d="M-411,335c-27.6,0-50,22.4-50,50s22.4,50,50,50c27.6,0,50-22.4,50-50S-383.4,335-411,335z M-411,429.2
		c-24.4,0-44.2-19.8-44.2-44.2c0-24.4,19.8-44.2,44.2-44.2s44.2,19.8,44.2,44.2C-366.8,409.4-386.6,429.2-411,429.2z"/>
</g>
<g>
	<path fill="#FFFFFF" d="M-401.6,371.5l-9.4,9.4l-9.4-9.4c-1.1-1.1-3-1.1-4.1,0c-1.1,1.1-1.1,3,0,4.1l9.4,9.4l-9.4,9.4
		c-1.1,1.1-1.1,3,0,4.1c1.1,1.1,3,1.1,4.1,0l9.4-9.4l9.4,9.4c1.1,1.1,3,1.1,4.1,0c1.1-1.1,1.1-3,0-4.1l-9.4-9.4l9.4-9.4
		c1.1-1.1,1.1-3,0-4.1C-398.6,370.3-400.4,370.3-401.6,371.5z"/>
</g>
</svg>
