<?xml version="1.0" encoding="utf-8"?>
<!-- Generator: Adobe Illustrator 18.1.1, SVG Export Plug-In . SVG Version: 6.00 Build 0)  -->
<svg version="1.1" xmlns="http://www.w3.org/2000/svg" xmlns:xlink="http://www.w3.org/1999/xlink" x="0px" y="0px"
	 viewBox="0 0 714 346" enable-background="new 0 0 714 346" xml:space="preserve">
<g id="Layer_1" display="none">
</g>
<g id="Layer_4" display="none">
</g>
<g id="Layer_5">
</g>
<g id="Layer_2">
</g>
<g id="Layer_6">
	<g>
		<path opacity="0.9" fill="#E62E6E" d="M677.3,332.4H36.7c-14.7,0-26.7-12-26.7-26.7V40.3c0-14.7,12-26.7,26.7-26.7h640.7
			c14.7,0,26.7,12,26.7,26.7v265.5C704,320.4,692,332.4,677.3,332.4z"/>
		<path fill="#CB226B" d="M74.8,197c0-0.1,0-0.1-0.1-0.2c0,0,0,0,0,0c-0.1-0.1-0.2-0.2-0.3-0.3c0,0,0,0,0,0c0,0,0,0,0,0
			c-0.4-0.1-7.9-3-11.9-0.1c-1.6,1.2-2.4,3.1-2.4,5.7c-0.9,0.8-1.5,1.6-2,2.3c-0.8-3.4-3.5-4.4-3.6-4.4c-0.3-0.1-0.7,0.1-0.8,0.4
			c-0.1,0.3,0.1,0.7,0.4,0.8c0,0,3.9,1.4,2.7,7.3c-2.2-0.9-4.3-1.3-6.2-1.3c-6.1,0-10,4.4-10,11.6c0,9.3,9.2,18,12.6,18
			c2.2,0,3.4-0.6,4-1c0.6,0.4,1.8,1,4,1c3.4,0,12.6-8.8,12.6-18c0-7.2-3.8-11.6-10-11.6c-1.8,0-3.8,0.4-5.8,1.2
			c0.1-0.7,0.2-1.3,0.2-1.8c0.2-0.3,0.9-1.7,2.4-3.2c0.8,0.6,2.4,1.6,4.7,1.4c3.1-0.3,6.2-2.7,9.2-7.2c0,0,0,0,0,0
			c0-0.1,0.1-0.1,0.1-0.2C74.8,197.2,74.8,197.1,74.8,197z M72.7,218.8c0,8.9-8.8,16.8-11.4,16.8c-2.6,0-3.5-1-3.5-1
			c-0.1-0.1-0.3-0.2-0.5-0.2c0,0,0,0,0,0c-0.2,0-0.3,0.1-0.5,0.2c0,0-0.9,1-3.6,1c-2.6,0-11.4-8-11.4-16.8c0-6.5,3.3-10.4,8.7-10.4
			c1.9,0,4.1,0.5,6.4,1.5c0,0,0,0,0,0c0,0,0,0,0,0c0,0,0.1,0,0.1,0c0.1,0,0.2,0,0.2,0c2.3-1,4.5-1.5,6.4-1.5
			C69.5,208.4,72.7,212.3,72.7,218.8z M63.2,197.4c1.1-0.8,2.5-1,4-1c1.4,0,2.8,0.2,3.9,0.5c-4.4,0.8-7.6,2.5-9.8,4.2
			C61.5,199.4,62.1,198.2,63.2,197.4z M65.4,203.5c-1.8,0.2-3.1-0.6-3.8-1c2.3-2,5.9-4,11.3-4.6C70.5,201.4,67.9,203.3,65.4,203.5z"
			/>
		<path fill="#CB226B" d="M666,127.4c-1.1-0.3-2.8-0.6-4.6-0.9c-0.1-0.1-0.2-0.1-0.4-0.1c-6.7-1.1-16.3-2.1-17-2.2
			c-0.1,0-0.3,0-0.5,0c-0.9,0-3.7,0.3-3.7,4.5v3.1c0,4.2,2.9,4.5,3.7,4.5c0.3,0,0.5,0,0.5,0c0.3,0,1.6-0.2,3.4-0.4v5.4
			c0,1.4,1,2,1.7,2.5c0.6,0.4,0.8,0.6,0.8,0.9v8.9c0,0.4,0.3,0.8,0.8,0.8c0.4,0,0.8-0.3,0.8-0.8v-8.9c0-1.1-0.9-1.7-1.5-2.2
			c-0.7-0.5-1-0.7-1-1.2v-5.6c0.2,0,0.4,0,0.6-0.1c0.1,0,0.1,0,0.2,0c0.1,0,0.2,0,0.3-0.1c0.2,0,0.5-0.1,0.7-0.1v5.2
			c0,0.4,0.3,0.8,0.8,0.8c0.4,0,0.8-0.3,0.8-0.8v-5.2c0-0.1,0-0.1,0-0.2c0.5-0.1,1.1-0.1,1.7-0.2c-0.1,0.1-0.1,0.2-0.1,0.4v5.2
			c0,0.4,0.3,0.8,0.8,0.8c0.4,0,0.8-0.3,0.8-0.8v-5.2c0-0.2-0.1-0.4-0.2-0.5c0.6-0.1,1.2-0.2,1.8-0.2c0,0.1,0,0.1,0,0.2v6.5
			c0,0.5-0.3,0.8-1,1.2c-0.6,0.4-1.5,1-1.5,2.2v8.9c0,0.4,0.3,0.8,0.8,0.8c0.4,0,0.8-0.3,0.8-0.8v-8.9c0-0.3,0.2-0.5,0.8-0.9
			c0.7-0.5,1.7-1.1,1.7-2.5v-6.5c0-0.1,0-0.3-0.1-0.4c3-0.4,5.8-0.9,7.5-1.3c2.4-0.6,2.7-2.1,2.7-2.9
			C668.7,129.4,668.3,128,666,127.4z M665.6,131.7c-1.4,0.3-3.5,0.7-5.9,1.1c0.3-0.6,0.4-1.5,0.3-2.6c0-0.4-0.4-0.7-0.9-0.7
			c-0.4,0-0.7,0.4-0.7,0.9c0.2,1.5-0.4,2.3-0.8,2.7c-1.9,0.3-3.8,0.5-5.7,0.7c0.5-0.9,0.9-2.2,0.7-3.9c0-0.4-0.4-0.7-0.9-0.7
			c-0.4,0-0.7,0.4-0.7,0.9c0.3,2.5-0.8,3.6-1.5,4c-3.3,0.4-5.7,0.7-5.8,0.7c0,0,0,0-0.1,0c0,0-0.1,0-0.3,0c-1,0-2.2-0.5-2.2-3v-3.1
			c0-2.4,1.2-3,2.2-3c0.2,0,0.3,0,0.3,0h0c0,0,0,0,0.1,0c0,0,0.7,0.1,1.8,0.2c0,0,0,0,0,0c0.6,0.3,2,1.3,1.7,4.2
			c0,0.4,0.3,0.8,0.7,0.9c0,0,0.1,0,0.1,0c0.4,0,0.7-0.3,0.8-0.7c0.2-1.9-0.2-3.2-0.8-4.1c1.6,0.2,3.5,0.4,5.4,0.7c0,0,0,0,0,0
			c0.4,0.2,1.4,0.9,1.2,2.9c0,0.4,0.3,0.8,0.7,0.9c0,0,0.1,0,0.1,0c0.4,0,0.7-0.3,0.8-0.7c0.1-1.2-0.1-2.1-0.4-2.8
			c1.7,0.2,3.4,0.5,4.9,0.7c0.3,0.2,0.8,0.7,0.6,1.9c0,0.4,0.3,0.8,0.7,0.9c0,0,0.1,0,0.1,0c0.4,0,0.7-0.3,0.8-0.7
			c0.1-0.7,0-1.3-0.1-1.7c1.1,0.2,2,0.4,2.7,0.6c1.6,0.4,1.6,1.2,1.6,1.4C667.2,130.5,667.2,131.3,665.6,131.7z"/>
		<g>
			<g>
				<path fill="#CB226B" d="M65.7,277.7c-2.4-1.3-5.2-2-7.9-2c-6.3,0-12.1,3.5-15,9c-4.4,8.3-1.2,18.6,7,23c2.4,1.3,5.2,2,7.9,2
					c6.3,0,12.1-3.5,15-9C77.2,292.4,74,282.1,65.7,277.7z M50.3,306.8c-7.8-4.1-10.7-13.8-6.6-21.5c2.8-5.2,8.2-8.5,14.1-8.5
					c2.6,0,5.2,0.6,7.5,1.9c7.8,4.1,10.7,13.8,6.6,21.5c-2.8,5.2-8.2,8.5-14.1,8.5C55.2,308.6,52.6,308,50.3,306.8z"/>
				<path fill="#CB226B" d="M70.1,285.6c-0.1-0.3-0.5-0.3-0.7-0.2c-0.3,0.1-0.3,0.5-0.2,0.7c0,0.1,0.1,0.1,0.1,0.2
					c3.3,5.9,1.4,13.5-4.2,17.3c-2.9,1.9-6.3,2.6-9.7,2c-0.1,0-0.2,0-0.2,0c-0.3-0.1-0.6,0.1-0.6,0.4c-0.1,0.3,0.1,0.6,0.4,0.6
					c0.9,0.2,1.9,0.3,2.8,0.3c2.8,0,5.5-0.8,7.9-2.4C71.9,300.3,73.8,292,70.1,285.6z"/>
				<path fill="#CB226B" d="M49.5,302.9c-0.6-0.5-1.2-1-1.7-1.6c-0.4-0.4-0.7-0.9-1-1.4l-0.4,0.3l0.4-0.3c-4-6-2.4-14.2,3.6-18.2
					c1.9-1.2,4-2,6.2-2.2c0.1,0,0.1,0,0.2,0c0.3,0,0.5-0.3,0.5-0.6c0-0.3-0.3-0.5-0.6-0.5c-2.5,0.2-4.9,1-6.9,2.4
					c-6.5,4.3-8.2,13.2-3.9,19.6c0,0,0,0.1,0,0.1c0.3,0.5,0.7,1,1.1,1.5c0.6,0.7,1.3,1.3,2,1.9c0.1,0.1,0.2,0.1,0.3,0.1
					c0.2,0,0.3-0.1,0.4-0.2c0.2-0.2,0.1-0.6-0.1-0.7C49.7,303,49.6,303,49.5,302.9z"/>
				<path fill="#CB226B" d="M62.7,280.4c1.5,0.6,2.8,1.4,4,2.5c0.1,0.1,0.2,0.1,0.4,0.1c0.1,0,0.3-0.1,0.4-0.2
					c0.2-0.2,0.2-0.5,0-0.7c-1.3-1.2-2.7-2.1-4.3-2.7c-0.3-0.1-0.6,0-0.7,0.3C62.3,280,62.4,280.3,62.7,280.4z"/>
			</g>
			<path fill="#CB226B" d="M55.4,299.1c-0.1-0.7-0.6-1.2-1.2-1.4c0-0.1,0-0.3,0-0.4c0-0.2,0-0.4,0-0.5c0-0.2,0-0.4,0-0.6
				c0-0.4,0.1-0.8,0.2-1.1c0.1-0.3,0.2-0.7,0.3-1l0.3-0.7c0-0.1,0.1-0.1,0.1-0.2c0,0,0-0.1,0-0.1c1.1-1.8,0.7-4.1-0.9-5.4
				c-0.2-0.1-0.3-0.3-0.5-0.4c-0.7-0.4-1.4-0.6-2.2-0.6c-1.5,0-2.8,0.8-3.6,2c-1.1,1.8-0.7,4.1,0.9,5.5c0,0,0,0,0,0l0,0
				c0,0,0.1,0.1,0.2,0.2l0.5,0.6c0.2,0.3,0.4,0.6,0.6,0.9c0.2,0.3,0.4,0.7,0.5,1c0.1,0.2,0.2,0.4,0.2,0.5c0.1,0.2,0.1,0.4,0.2,0.5
				c0,0,0,0,0,0l-0.2,0.6c-0.4,0.4-0.6,0.9-0.5,1.5c0,0,0,0,0,0c0.1,0.7,0.7,1.3,1.5,1.4c0.1,0,0.1,0,0.2,0c0.1,0,0.2,0,0.3,0
				c0.3,0,0.5-0.2,0.7-0.3c0.3,0.1,0.5,0.1,0.8,0.1c0.2,0,0.3-0.1,0.5-0.1C55.1,300.6,55.5,299.9,55.4,299.1z M54,300
				c-0.1,0-0.1,0-0.2,0.1c-0.2,0-0.3,0-0.5-0.1c-0.2-0.1-0.5-0.1-0.7,0.1c-0.1,0.1-0.2,0.2-0.4,0.2c-0.1,0-0.1,0-0.2,0
				c-0.3,0-0.5-0.3-0.6-0.5c0-0.3,0.1-0.6,0.4-0.7l0,0c0.3-0.1,0.4-0.3,0.4-0.6c-0.1-0.3-0.1-0.6-0.2-0.9c-0.1-0.2-0.1-0.4-0.2-0.6
				c-0.1-0.2-0.2-0.4-0.2-0.6c0,0,0-0.1-0.1-0.1v0c-0.2-0.4-0.3-0.7-0.5-1c-0.2-0.3-0.4-0.7-0.7-1l-0.5-0.6l-0.1-0.1
				c-0.1-0.1-0.2-0.2-0.2-0.2l-0.1-0.1c-1.2-1-1.5-2.8-0.7-4.1c0.6-0.9,1.6-1.5,2.7-1.5c0.6,0,1.2,0.2,1.7,0.5
				c0.3,0.2,0.5,0.4,0.7,0.6c0.9,1,1.1,2.5,0.3,3.7c0,0,0,0,0,0.1l0,0.1c0,0.1-0.1,0.1-0.1,0.2c0,0,0,0.1-0.1,0.1l-0.2,0.4
				c0,0,0,0,0,0.1l-0.1,0.2c-0.1,0.4-0.2,0.8-0.3,1.2c-0.1,0.4-0.2,0.8-0.2,1.3c0,0.2,0,0.4,0,0.6c0,0.2,0,0.4,0,0.6
				c0,0.3,0,0.6,0.1,0.9c0,0.3,0.3,0.5,0.5,0.5l0-0.5l0,0.5c0.3,0,0.6,0.2,0.6,0.6C54.4,299.6,54.2,299.9,54,300z"/>
			<path fill="#CB226B" d="M60.2,295.9c0.2,0.5,0.7,1,1.2,1.2c0,0,0.1,0,0.1,0.1c0.5,0.2,1.1,0.3,1.6,0.2c0.3,0.1,0.6,0.2,0.9,0.2
				c0.3,0,0.5,0,0.8-0.1c0.6-0.2,1-0.5,1.4-1c0.7-0.2,1.4-0.7,1.7-1.4c0.4-0.7,0.4-1.5,0.1-2.3c0.1-0.5,0.1-1,0-1.5
				c-0.2-0.7-0.7-1.2-1.2-1.5c-0.2-0.1-0.4-0.2-0.6-0.2c-0.2-0.2-0.4-0.3-0.6-0.4c-0.5-0.3-1.1-0.4-1.7-0.3c-0.5-0.2-1.2-0.2-1.7,0
				c-0.2,0.1-0.5,0.2-0.7,0.3c-0.9,0.1-1.7,0.6-2.1,1.4c-0.2,0.4-0.3,0.9-0.3,1.4c-0.4,0.7-0.5,1.5-0.3,2.2
				C59,295,59.5,295.6,60.2,295.9z M60.3,291.1c0.3-0.5,0.8-0.8,1.4-0.9c0.1,0,0.2,0,0.3-0.1c0.2-0.1,0.3-0.2,0.5-0.2
				c0.4-0.1,0.8-0.1,1.2,0.1c0.1,0.1,0.2,0.1,0.3,0c0.4-0.1,0.8,0,1.1,0.1c0.2,0.1,0.3,0.2,0.4,0.3c0.1,0.1,0.2,0.1,0.3,0.2
				c0.1,0,0.2,0.1,0.4,0.1c0.4,0.2,0.7,0.6,0.9,1c0.1,0.3,0.1,0.7,0,1c0,0.1,0,0.3,0,0.4c0.2,0.5,0.2,1,0,1.5
				c-0.2,0.5-0.7,0.8-1.2,0.9c-0.2,0-0.3,0.1-0.4,0.2c-0.2,0.4-0.5,0.6-0.9,0.7c-0.4,0.1-0.8,0.1-1.2-0.1c-0.1,0-0.1,0-0.2,0
				c0,0-0.1,0-0.1,0c-0.3,0.1-0.6,0.1-0.9,0c-0.1,0-0.2-0.1-0.3-0.1c-0.4-0.2-0.6-0.5-0.8-0.9c-0.1-0.1-0.2-0.3-0.3-0.3
				c-0.5-0.2-0.9-0.6-1-1.1c-0.2-0.5-0.1-1.1,0.3-1.5c0.1-0.1,0.1-0.3,0.1-0.4C60.1,291.8,60.1,291.4,60.3,291.1z"/>
		</g>
		<g>
			<path fill="#CB226B" d="M146.9,288.8l0.8,0.4V276h-5.4v5.6C142.2,284.7,144.1,287.5,146.9,288.8z M143.3,277.1h3.2v10.3
				c-2-1.3-3.2-3.5-3.2-5.8V277.1z"/>
			<path fill="#CB226B" d="M172.1,281.6V276h-5.4v13.2l0.8-0.4C170.3,287.5,172.1,284.7,172.1,281.6z M167.8,277.1h3.2v4.5
				c0,2.4-1.2,4.6-3.2,5.8V277.1z"/>
			<path fill="#CB226B" d="M139.1,281.6c0,4.9,3.2,9.2,7.9,10.6c1.1,3.6,3.9,6.3,7.5,7.2c-0.2,3.9-3.4,7.1-7.3,7.1h-0.6v5.9h21.1
				v-5.9h-0.5c-3.9,0-7.2-3.1-7.3-7c3.6-0.9,6.5-3.6,7.6-7.3c4.7-1.4,7.9-5.7,7.9-10.6v-8.7h-36.1V281.6z M147.7,311.4v-3.7h18.9
				v3.7H147.7z M163,306.5h-11.7c2.4-1.4,4.1-3.9,4.3-6.8c0.5,0.1,1.1,0.1,1.6,0.1c0.5,0,1,0,1.5-0.1
				C158.9,302.6,160.5,305.1,163,306.5z M155.7,274v16.8c0,1.5-1.2,2.7-2.7,2.7c-1.5,0-2.7-1.2-2.7-2.7V274H155.7z M140.2,274h9.1
				v16.8c0,2.1,1.7,3.8,3.8,3.8c2.1,0,3.8-1.7,3.8-3.8V274h17.3v7.6c0,4.5-3,8.5-7.4,9.7l-0.3,0.1l-0.1,0.3
				c-1.1,4.2-4.9,7.1-9.2,7.1s-8.1-2.9-9.2-7.1l-0.1-0.3l-0.3-0.1c-4.3-1.2-7.4-5.2-7.4-9.7V274z"/>
		</g>
		<g>
			<g>
				<path fill="#CB226B" d="M356.4,233.4c-5.4,0-10.9-1.4-10.9-4l0-19.9c0-0.5,0.2-1.2,1.3-2c0.3-0.2,0.7-0.1,0.9,0.2
					c0.2,0.3,0.1,0.7-0.2,0.9c-0.5,0.3-0.7,0.7-0.7,0.9l0,19.9c0,1.1,3.7,2.7,9.6,2.7c5.9,0,9.6-1.6,9.6-2.7l0-19.9
					c0-0.3-0.4-0.7-1-1.1c-0.3-0.2-0.4-0.6-0.2-0.9c0.2-0.3,0.6-0.4,0.9-0.2c1.3,0.8,1.6,1.6,1.6,2.2l0,19.9
					C367.3,232,361.8,233.4,356.4,233.4z"/>
			</g>
			<g>
				<path fill="#CB226B" d="M356.4,209.4c-3.8,0-7.7-1-7.7-3l0-4.9c0-1.9,3.9-3,7.7-3c3.8,0,7.7,1,7.7,3l0,4.9
					C364.2,208.4,360.3,209.4,356.4,209.4z M356.4,199.8c-4,0-6.5,1.1-6.5,1.7l0,4.9c0,0.6,2.5,1.7,6.5,1.7c4,0,6.5-1.1,6.5-1.7
					l0-4.9C362.9,201,360.5,199.8,356.4,199.8z"/>
			</g>
			<g>
				<path fill="#CB226B" d="M356.5,204.1c-3.8,0-7.6-1-7.6-2.9c0-0.3,0.3-0.6,0.6-0.6c0.3,0,0.6,0.3,0.6,0.6c0,0.5,2.2,1.7,6.3,1.7
					c4.2,0,6.3-1.2,6.3-1.7c0-0.3,0.3-0.6,0.6-0.6c0.3,0,0.6,0.3,0.6,0.6C364,203.1,360.2,204.1,356.5,204.1z"/>
			</g>
			<g>
				<path fill="#CB226B" d="M356.4,213.5c-5.4,0-10.9-1.4-10.9-4c0-0.3,0.3-0.6,0.6-0.6c0.3,0,0.6,0.3,0.6,0.6
					c0,1.1,3.7,2.7,9.6,2.7c5.9,0,9.6-1.6,9.6-2.7c0-0.3,0.3-0.6,0.6-0.6c0.3,0,0.6,0.3,0.6,0.6
					C367.3,212.2,361.8,213.5,356.4,213.5z"/>
			</g>
			<g>
				<path fill="#CB226B" d="M355.7,229.4c-0.1,0-0.2,0-0.3-0.1c-0.3-0.2-0.4-0.5-0.3-0.8l3.3-6.2l-3.9,0c-0.2,0-0.4-0.1-0.5-0.3
					c-0.1-0.2-0.1-0.4-0.1-0.6l2.3-5.3c0.1-0.3,0.5-0.5,0.8-0.3c0.3,0.1,0.5,0.5,0.3,0.8l-1.9,4.5l4,0c0.2,0,0.4,0.1,0.5,0.3
					c0.1,0.2,0.1,0.4,0,0.6l-3.8,7.2C356.2,229.3,356,229.4,355.7,229.4z"/>
			</g>
		</g>
		<g>
			<g>
				<path fill="#CB226B" d="M363.6,132.9C363.6,132.9,363.6,132.9,363.6,132.9l1.2,0.6c0.1,0,0.2,0.1,0.3,0.1c0.2,0,0.4-0.1,0.5-0.3
					c0.1-0.3,0-0.6-0.3-0.8l-1.2-0.6c-0.1,0-0.1,0-0.2-0.1c-0.2,0-0.5,0.1-0.6,0.3C363.2,132.4,363.3,132.8,363.6,132.9z"/>
				<path fill="#CB226B" d="M366.6,135.1l-1.2-0.2c-0.3-0.1-0.6,0.2-0.7,0.5c0,0.3,0.2,0.6,0.5,0.7l1.2,0.2c0,0,0.1,0,0.1,0
					c0.3,0,0.5-0.2,0.6-0.5C367.1,135.4,366.9,135.1,366.6,135.1z"/>
				<path fill="#CB226B" d="M365.9,137.8c-0.1-0.3-0.5-0.4-0.8-0.3l-1.2,0.5c-0.3,0.1-0.4,0.5-0.3,0.8c0.1,0.2,0.3,0.4,0.5,0.4
					c0.1,0,0.1,0,0.2,0l1.2-0.5C365.9,138.4,366.1,138,365.9,137.8z"/>
				<path fill="#CB226B" d="M363.9,142.6l-0.1,1.3c0,0.3,0.2,0.6,0.5,0.6c0,0,0,0,0,0c0.3,0,0.5-0.2,0.6-0.5l0.1-1.3
					c0-0.3-0.2-0.6-0.5-0.6C364.3,142.1,364,142.3,363.9,142.6z"/>
				<path fill="#CB226B" d="M363.7,147.4c0.1,0.1,0.3,0.2,0.4,0.2c0.1,0,0.3,0,0.4-0.1l1-0.8c0.2-0.2,0.3-0.6,0.1-0.8
					c-0.2-0.2-0.6-0.3-0.8-0.1l-1,0.8C363.5,146.8,363.5,147.1,363.7,147.4z"/>
				<path fill="#CB226B" d="M366.9,141.9c0.1,0,0.3,0,0.4-0.1c0.2-0.2,0.3-0.6,0.1-0.8l-0.9-1.1c-0.2-0.2-0.6-0.3-0.8-0.1
					c-0.2,0.2-0.3,0.6-0.1,0.8l0.9,1.1C366.6,141.8,366.8,141.9,366.9,141.9z"/>
			</g>
			<g>
				<path fill="#CB226B" d="M374.3,135.5c-1.8-8.6-9.5-14.9-18.3-14.9c-1.3,0-2.5,0.1-3.8,0.4c-4.9,1-9.1,3.9-11.8,8
					c-2.7,4.2-3.7,9.2-2.7,14.1c1.8,8.6,9.5,14.9,18.3,14.9c1.3,0,2.5-0.1,3.8-0.4C369.9,155.5,376.4,145.6,374.3,135.5z
					 M338.8,142.9c-0.9-4.6-0.1-9.3,2.5-13.2c2.6-3.9,6.5-6.6,11.1-7.5c1.2-0.2,2.4-0.4,3.6-0.4c8.3,0,15.5,5.9,17.2,14
					c2,9.5-4.2,18.8-13.6,20.7c-1.2,0.2-2.4,0.4-3.6,0.4C347.7,156.9,340.5,151,338.8,142.9z"/>
				<path fill="#CB226B" d="M347.9,127.3c3.2-2.1,6.9-2.9,10.7-2.2c0.1,0,0.2,0,0.3,0c0.3,0.1,0.6-0.1,0.7-0.5
					c0.1-0.3-0.1-0.6-0.5-0.7c-4.1-0.8-8.3,0-11.8,2.3c-6.8,4.6-8.9,13.7-4.9,20.8c0.1,0.2,0.3,0.3,0.5,0.3c0.1,0,0.2,0,0.3-0.1
					c0.3-0.2,0.4-0.5,0.2-0.8c0-0.1-0.1-0.2-0.1-0.2C339.7,139.8,341.7,131.5,347.9,127.3z"/>
				<path fill="#CB226B" d="M369,130.7C369,130.7,369,130.7,369,130.7c-0.4-0.6-0.8-1.2-1.3-1.7c-0.7-0.8-1.4-1.4-2.2-2
					c-0.3-0.2-0.6-0.1-0.8,0.1c-0.2,0.3-0.2,0.6,0.1,0.8c0.1,0,0.1,0.1,0.2,0.1c0.7,0.5,1.3,1.1,1.8,1.8c0.4,0.5,0.8,1,1.2,1.5
					c0,0,0,0,0,0.1c4.4,6.6,2.6,15.6-4,20.1c-2,1.4-4.4,2.2-6.8,2.4c-0.1,0-0.1,0-0.2,0c-0.3,0-0.6,0.3-0.5,0.6
					c0,0.3,0.3,0.5,0.6,0.5h0c2.7-0.2,5.4-1.1,7.6-2.6C371.8,147.6,373.8,137.9,369,130.7z"/>
				<path fill="#CB226B" d="M350.6,152.8c-1.6-0.7-3.1-1.6-4.4-2.8c-0.2-0.2-0.6-0.2-0.8,0c-0.2,0.2-0.2,0.6,0,0.8
					c1.4,1.3,3,2.3,4.8,3c0.1,0,0.1,0,0.2,0c0.2,0,0.4-0.1,0.5-0.4C351,153.3,350.9,152.9,350.6,152.8z"/>
				<path fill="#CB226B" d="M359.2,147.3c1.4-1.1,1.4-2.4,1.3-4.1c0-0.2,0-0.3,0-0.5c-0.1-1.1-0.2-2.5-0.1-4.2c0-0.7,0.1-1.4,0.1-2
					c0.1-1.2,0.2-2.3,0.1-3.4c0-2.2-1.9-3.5-5.1-3.6c-0.1,0-0.2,0-0.2,0c-1.7,0-3.6,0.4-4.9,1l-1,0.5c-2.4,1.2-5.1,4.2-5.4,6.8
					c-0.1,1.2,0.3,2.2,1.2,2.9c0.5,0.4,0.9,0.8,1.5,1.1c0.4,0.3,0.9,0.6,1.4,0.9c0.6,0.4,1.1,0.8,1.7,1.2c1.4,0.9,2.4,1.8,3.2,2.6
					c1.2,1.1,2.2,2,3.5,2c0.6,0,1.2-0.2,1.9-0.5C358.6,147.7,358.9,147.5,359.2,147.3z M353.6,145.5c-0.8-0.8-1.9-1.7-3.3-2.7
					c-0.6-0.4-1.2-0.8-1.7-1.2c-0.4-0.3-0.9-0.6-1.3-0.9c-0.5-0.3-1-0.7-1.4-1.1c-0.6-0.5-0.9-1.1-0.8-1.9c0.2-2.1,2.7-4.8,4.7-5.8
					l1-0.5c1-0.5,2.4-0.8,3.8-0.9h0c0.2,0,0.4,0,0.6,0c1,0,4.1,0.2,4.2,2.5c0.1,1,0,2.2-0.1,3.3c0,0.7-0.1,1.4-0.1,2.1
					c-0.1,1.8,0,3.2,0.1,4.3c0.2,2.3,0.3,3.2-1.5,4.1c-0.5,0.3-1,0.4-1.4,0.4C355.5,147.2,354.7,146.5,353.6,145.5z"/>
				<path fill="#CB226B" d="M356,137.5c-0.1-0.3-0.5-0.4-0.8-0.3l-3.5,1.7c-0.3,0.1-0.4,0.5-0.3,0.8c0.1,0.2,0.3,0.3,0.5,0.3
					c0.1,0,0.2,0,0.3-0.1l3.5-1.7C356,138.2,356.1,137.8,356,137.5z"/>
				<path fill="#CB226B" d="M356.1,140.8l-2.1,1c-0.3,0.1-0.4,0.5-0.3,0.8c0.1,0.2,0.3,0.3,0.5,0.3c0.1,0,0.2,0,0.3-0.1l2.1-1
					c0.3-0.1,0.4-0.5,0.3-0.8C356.7,140.8,356.4,140.7,356.1,140.8z"/>
			</g>
		</g>
		<g>
			<g>
				<path fill="#CB226B" d="M563.4,197.6l-3.9-2.9l-3.9,2.9l1.4-4.7l-3.9-2.7l4.8-0.2l1.5-4.4l1.5,4.4l4.8,0.2l-3.9,2.7L563.4,197.6
					L563.4,197.6z M555.9,190.9l2.2,1.5l-0.8,2.7l2.2-1.6l2.2,1.6l-0.8-2.7l2.2-1.5l-2.7-0.1l-0.9-2.5l-0.9,2.5L555.9,190.9
					L555.9,190.9z"/>
			</g>
			<g>
				<path fill="#CB226B" d="M555.2,200.3l-0.9,0l0-0.9l0.9,0c0.2,0,0.5,0,0.7-0.1l0.2,0.9C555.8,200.3,555.5,200.3,555.2,200.3
					L555.2,200.3z M552.5,200.3l-1.8,0l0-0.9l1.8,0L552.5,200.3L552.5,200.3z M557.9,199.4l-0.5-0.8c0.4-0.3,0.8-0.7,1-1.2l0.8,0.5
					C558.9,198.5,558.4,199,557.9,199.4L557.9,199.4z M559.8,196.1l-0.9-0.1c0-0.1,0-0.2,0-0.4v-1.4h0.9v1.4
					C559.8,195.8,559.8,196,559.8,196.1L559.8,196.1z"/>
			</g>
			<g>
				<path fill="#CB226B" d="M551,213.9l0-0.9l1.8,0l0,0.9L551,213.9L551,213.9z M549.3,213.9h-1.8V213h1.8V213.9L549.3,213.9z
					 M545.7,213.9h-1.4c-0.1,0-0.3,0-0.4,0l0-0.9c0.1,0,0.2,0,0.3,0h1.4V213.9L545.7,213.9z M565.2,213.9V213l1.8,0v0.9L565.2,213.9
					L565.2,213.9z M563.4,213.9h-1.8V213h1.8V213.9L563.4,213.9z M559.9,213.9h-1.8V213h1.8V213.9L559.9,213.9z M556.3,213.9h-1.8
					V213h1.8V213.9L556.3,213.9z M574.1,213.9h-1.8V213h1.8V213.9L574.1,213.9z M570.5,213.9h-1.8V213h1.8V213.9L570.5,213.9z
					 M542.1,213.6c-0.6-0.2-1.2-0.5-1.7-0.8l0.5-0.8c0.5,0.3,1,0.5,1.5,0.7L542.1,213.6L542.1,213.6z M538.9,211.5
					c-0.4-0.5-0.8-1-1.1-1.5l0.8-0.4c0.3,0.5,0.6,0.9,0.9,1.3L538.9,211.5L538.9,211.5z M537.2,208.2c-0.1-0.5-0.2-1-0.2-1.6
					c0-0.1,0-0.2,0-0.3l0.9,0c0,0.1,0,0.2,0,0.3c0,0.5,0.1,0.9,0.1,1.4L537.2,208.2L537.2,208.2z M538.2,204.7l-0.9-0.3
					c0.2-0.6,0.5-1.2,0.8-1.7l0.8,0.5C538.6,203.7,538.4,204.2,538.2,204.7L538.2,204.7z M540,202l-0.6-0.7c0.5-0.4,1-0.8,1.5-1.1
					l0.4,0.8C540.8,201.3,540.4,201.6,540,202L540,202z M542.9,200.4l-0.2-0.9c0.5-0.1,1.1-0.2,1.6-0.2h0.2v0.9h-0.2
					C543.8,200.3,543.3,200.3,542.9,200.4L542.9,200.4z"/>
			</g>
			<g>
				<path fill="#CB226B" d="M580.8,222.2H579v-0.9h1.8V222.2L580.8,222.2z M577.3,222.2h-1.8v-0.9h1.8V222.2L577.3,222.2z
					 M573.7,222.2h-1.8v-0.9h1.8V222.2L573.7,222.2z M570.2,222.2h-1.8v-0.9h1.8V222.2L570.2,222.2z M566.6,222.2h-1.8v-0.9h1.8
					V222.2L566.6,222.2z M582.7,222.1l-0.2-0.9c0.5-0.1,1-0.4,1.4-0.7l0.6,0.7C583.9,221.7,583.3,222,582.7,222.1L582.7,222.1z
					 M585.7,219.7l-0.8-0.4c0.2-0.5,0.4-1,0.4-1.5l0.9,0.1C586.2,218.5,586,219.2,585.7,219.7L585.7,219.7z M585,216.3
					c-0.2-0.5-0.5-0.9-0.9-1.3l0.7-0.7c0.5,0.5,0.8,1,1.1,1.6L585,216.3L585,216.3z M582.9,214.1c-0.4-0.1-0.8-0.2-1.3-0.2h-0.3V213
					h0.3c0.5,0,1.1,0.1,1.6,0.3L582.9,214.1L582.9,214.1z M579.5,213.9h-0.1V213h0.1V213.9L579.5,213.9z"/>
			</g>
			<g>
				<path fill="#CB226B" d="M541.7,233.5h-12.2c-3.4,0-6.1-2.7-6.1-6.1s2.7-6.1,6.1-6.1h30.1v0.9h-30.1c-2.8,0-5.1,2.3-5.1,5.1
					c0,2.8,2.3,5.1,5.1,5.1h12.2V233.5L541.7,233.5z"/>
			</g>
			<g>
				<path fill="#CB226B" d="M560,240.3h-0.9v-3.1c0-2-1.7-3.7-3.7-3.7H547v-0.9h8.4c2.6,0,4.6,2.1,4.6,4.6V240.3L560,240.3z"/>
			</g>
			<g>
				<path fill="#CB226B" d="M554.2,246.6l5.3-7.9l5.3,7.9L554.2,246.6L554.2,246.6z M559.5,240.4l-3.5,5.3l7.1,0L559.5,240.4
					L559.5,240.4z"/>
			</g>
			<g>
				<g>
					<path fill="#CB226B" d="M580.2,216.4H574v-6.2h6.2V216.4L580.2,216.4z M574.9,215.5h4.4v-4.4h-4.4V215.5L574.9,215.5z"/>
				</g>
			</g>
			<g>
				<g>
					<path fill="#CB226B" d="M551.2,202.9h-6.2v-6.2h6.2V202.9L551.2,202.9z M545.8,201.9h4.4v-4.4h-4.4V201.9L545.8,201.9z"/>
				</g>
			</g>
			<g>
				<g>
					<g>
						<path fill="#CB226B" d="M565.3,225.2h-6.2V219h6.2V225.2L565.3,225.2z M560,224.3h4.4v-4.4H560V224.3L560,224.3z"/>
					</g>
				</g>
				<g>
					<g>
						<g>
							<polygon fill="#CB226B" points="561.7,223.8 559.2,221.3 559.8,220.6 561.7,222.5 564.6,219.6 565.2,220.2 561.7,223.8 
															"/>
						</g>
					</g>
				</g>
			</g>
			<g>
				<g>
					<g>
						<path fill="#CB226B" d="M547.5,236.2h-6.2v-6.2h6.2V236.2L547.5,236.2z M542.2,235.3h4.4v-4.4h-4.4V235.3L542.2,235.3z"/>
					</g>
				</g>
				<g>
					<g>
						<g>
							<polygon fill="#CB226B" points="543.8,234.8 541.3,232.3 542,231.6 543.8,233.4 546.7,230.5 547.4,231.2 543.8,234.8 							
								"/>
						</g>
					</g>
				</g>
			</g>
		</g>
		<g>
			<g>
				<circle fill="none" cx="175.8" cy="219.8" r="11.9"/>
				<path fill="#CB226B" d="M175.8,232.3c-6.9,0-12.5-5.6-12.5-12.5c0-6.9,5.6-12.5,12.5-12.5s12.5,5.6,12.5,12.5
					C188.4,226.7,182.8,232.3,175.8,232.3z M175.8,208.5c-6.2,0-11.3,5.1-11.3,11.3c0,6.2,5.1,11.3,11.3,11.3
					c6.2,0,11.3-5.1,11.3-11.3C187.1,213.6,182,208.5,175.8,208.5z"/>
			</g>
			<g>
				<circle fill="none" cx="138.5" cy="219.4" r="11.9"/>
				<path fill="#CB226B" d="M138.5,232c-6.9,0-12.5-5.6-12.5-12.5c0-6.9,5.6-12.5,12.5-12.5s12.5,5.6,12.5,12.5
					C151,226.3,145.4,232,138.5,232z M138.5,208.2c-6.2,0-11.3,5.1-11.3,11.3c0,6.2,5.1,11.3,11.3,11.3c6.2,0,11.3-5.1,11.3-11.3
					C149.8,213.2,144.7,208.2,138.5,208.2z"/>
			</g>
			<g>
				<circle fill="none" cx="176.8" cy="219.5" r="2"/>
				<path fill="#CB226B" d="M176.8,222.1c-1.4,0-2.6-1.2-2.6-2.6s1.2-2.6,2.6-2.6s2.6,1.2,2.6,2.6S178.2,222.1,176.8,222.1z
					 M176.8,218.1c-0.7,0-1.3,0.6-1.3,1.3c0,0.7,0.6,1.3,1.3,1.3c0.7,0,1.3-0.6,1.3-1.3C178.1,218.7,177.5,218.1,176.8,218.1z"/>
			</g>
			<g>
				<circle fill="none" cx="138.6" cy="219" r="2"/>
				<path fill="#CB226B" d="M138.6,221.6c-1.4,0-2.6-1.2-2.6-2.6s1.2-2.6,2.6-2.6c1.4,0,2.6,1.2,2.6,2.6S140.1,221.6,138.6,221.6z
					 M138.6,217.7c-0.7,0-1.3,0.6-1.3,1.3c0,0.7,0.6,1.3,1.3,1.3c0.7,0,1.3-0.6,1.3-1.3C140,218.3,139.4,217.7,138.6,217.7z"/>
			</g>
			
				<rect x="163.1" y="208.4" transform="matrix(0.3653 0.9309 -0.9309 0.3653 304.0586 -27.8565)" fill="#CB226B" width="18.8" height="1.3"/>
			<rect x="140.6" y="218.6" fill="#CB226B" width="15.3" height="1.3"/>
			
				<rect x="143.9" y="210.2" transform="matrix(0.5993 0.8005 -0.8005 0.5993 229.7184 -37.345)" fill="#CB226B" width="16.4" height="1.3"/>
			<rect x="146.9" y="203.7" fill="#CB226B" width="24" height="1.3"/>
			
				<rect x="163.2" y="202.5" transform="matrix(0.8088 0.5881 -0.5881 0.8088 155.3603 -56.0194)" fill="#CB226B" width="1.3" height="17"/>
			
				<rect x="142.9" y="202.7" transform="matrix(0.8436 0.537 -0.537 0.8436 135.4485 -44.1623)" fill="#CB226B" width="1.3" height="15.4"/>
			<rect x="146.9" y="202.3" fill="#CB226B" width="1.3" height="2.5"/>
			<g>
				<path fill="#CB226B" d="M143.7,201.6c0,0.5,0.4,0.9,0.9,0.9h5.4c0.5,0,0.9-0.4,0.9-0.9l0,0c0-0.5-0.4-0.9-0.9-0.9h-5.4
					C144.1,200.6,143.7,201,143.7,201.6L143.7,201.6z"/>
				<path fill="#CB226B" d="M143.7,201.6c0,0.5,0.4,0.9,0.9,0.9h5.4c0.5,0,0.9-0.4,0.9-0.9l0,0c0-0.5-0.4-0.9-0.9-0.9h-5.4
					C144.1,200.6,143.7,201,143.7,201.6L143.7,201.6z"/>
			</g>
			<path fill="#CB226B" d="M175.9,202.9h-1.3c0-0.7-0.2-1.2-0.6-1.5c-1.2-0.9-3.9-0.1-4.9,0.2l-0.4-1.2c0.4-0.2,4.1-1.4,6,0
				C175.3,200.7,175.9,201.5,175.9,202.9z"/>
			<g>
				<path fill="#CB226B" d="M130,206.7l1,1.1c4.2-3.1,9.9-3.2,14.2-0.4l1.1-1C141.4,203,134.8,203.1,130,206.7z"/>
				<path fill="#CB226B" d="M130,206.7l1,1.1c4.2-3.1,9.9-3.2,14.2-0.4l1.1-1C141.4,203,134.8,203.1,130,206.7z"/>
			</g>
			<g>
				<path fill="#CB226B" d="M178.6,210.3l-0.2,1c3.5,1.2,5.8,4.4,5.9,8l1,0.2C185.3,215.4,182.6,211.6,178.6,210.3z"/>
				<path fill="#CB226B" d="M178.6,210.3l-0.2,1c3.5,1.2,5.8,4.4,5.9,8l1,0.2C185.3,215.4,182.6,211.6,178.6,210.3z"/>
			</g>
			<g>
				<circle fill="none" cx="157.8" cy="218.9" r="2"/>
				<path fill="#CB226B" d="M157.8,221.5c-1.4,0-2.6-1.2-2.6-2.6s1.2-2.6,2.6-2.6c1.4,0,2.6,1.2,2.6,2.6S159.3,221.5,157.8,221.5z
					 M157.8,217.5c-0.7,0-1.3,0.6-1.3,1.3s0.6,1.3,1.3,1.3c0.7,0,1.3-0.6,1.3-1.3S158.6,217.5,157.8,217.5z"/>
			</g>
			
				<rect x="157.3" y="221.8" transform="matrix(0.3672 0.9302 -0.9302 0.3672 307.4209 -7.04)" fill="#CB226B" width="3.3" height="1.3"/>
			<g>
				<path fill="#CB226B" d="M157.6,225.3c0.2,0.4,0.6,0.6,1,0.4l2.8-1.2c0.4-0.2,0.6-0.6,0.4-1l0,0c-0.2-0.4-0.6-0.6-1-0.4l-2.8,1.2
					C157.6,224.4,157.4,224.9,157.6,225.3L157.6,225.3z"/>
				<path fill-rule="evenodd" clip-rule="evenodd" fill="#CB226B" d="M157.6,225.3c0.2,0.4,0.6,0.6,1,0.4l2.8-1.2
					c0.4-0.2,0.6-0.6,0.4-1l0,0c-0.2-0.4-0.6-0.6-1-0.4l-2.8,1.2C157.6,224.4,157.4,224.9,157.6,225.3L157.6,225.3z"/>
			</g>
		</g>
		<g>
			<g>
				<path fill="#CB226B" d="M641.5,78.6c-5.5,0-9.9-4.4-9.9-9.9c0-4.7,3.8-8.5,8.5-8.5c4.1,0,7.4,3.3,7.4,7.4c0,3.5-2.9,6.4-6.4,6.4
					c-3,0-5.5-2.5-5.5-5.5c0-2.7,2.2-4.8,4.8-4.8c2.3,0,4.2,1.9,4.2,4.2c0,0.7-0.5,1.8-1.3,2.6c-0.7,0.7-1.6,1-2.6,0.9
					c-0.4,0-0.7-0.4-0.7-0.8c0-0.4,0.4-0.7,0.8-0.7c0.5,0,1-0.1,1.4-0.5c0.6-0.6,0.8-1.3,0.8-1.5c0-1.5-1.2-2.7-2.7-2.7
					c-1.8,0-3.3,1.5-3.3,3.3c0,2.2,1.8,4,4,4c2.7,0,4.9-2.2,4.9-4.9c0-3.2-2.6-5.9-5.9-5.9c-3.9,0-7,3.2-7,7c0,4.6,3.8,8.4,8.4,8.4
					c2.6,0,7.8,0,15.5-0.1c0,0,0,0,0,0c0.4,0,0.7,0.3,0.7,0.7c0,0.4-0.3,0.7-0.7,0.8C649.4,78.6,644.1,78.6,641.5,78.6z"/>
			</g>
			<g>
				<path fill="#CB226B" d="M645.6,71.8c-0.2,0-0.4-0.1-0.5-0.2c-0.3-0.3-0.3-0.8,0-1.1l12.8-12.8c0,0,0,0,0,0
					c1-0.9,1.6-2.2,1.6-3.6c0-3.2-2.6-5.9-5.9-5.9c-1.7,0-3.3,0.6-4.6,1.7L635,64c-0.3,0.3-0.8,0.3-1.1,0c-0.3-0.3-0.3-0.8,0-1.1
					L648,48.8c0,0,0,0,0,0c1.6-1.3,3.5-2.1,5.6-2.1c4.1,0,7.4,3.3,7.4,7.4c0,1.8-0.7,3.5-2.1,4.7l-12.8,12.8
					C646,71.7,645.8,71.8,645.6,71.8z"/>
			</g>
			<g>
				<path fill="#CB226B" d="M675.4,59.2h-17c-0.4,0-0.7-0.3-0.7-0.7c0-0.4,0.3-0.7,0.7-0.7h17c0.4,0,0.7,0.3,0.7,0.7
					C676.2,58.9,675.8,59.2,675.4,59.2z"/>
			</g>
			<g>
				<path fill="#CB226B" d="M657.3,78.3c-0.2,0-0.4-0.1-0.5-0.2c-0.3-0.3-0.3-0.8,0-1.1l18.8-19.2c0.3-0.3,0.8-0.3,1.1,0
					c0.3,0.3,0.3,0.8,0,1.1l-18.8,19.2C657.7,78.3,657.5,78.3,657.3,78.3z"/>
			</g>
		</g>
		<g>
			<g>
				<path fill="#CB226B" d="M654.2,231.2c-4.1,0-7.9-1.6-10.8-4.5c-2.9-2.9-4.5-6.7-4.5-10.8c0-4.1,1.6-7.9,4.5-10.8
					c2.9-2.9,6.7-4.5,10.8-4.5c4.1,0,7.9,1.6,10.8,4.5c5.9,5.9,5.9,15.6,0,21.5C662.1,229.6,658.3,231.2,654.2,231.2z M654.2,201.9
					c-3.8,0-7.3,1.5-10,4.1c-2.7,2.7-4.1,6.2-4.1,10c0,3.8,1.5,7.3,4.1,10c2.7,2.7,6.2,4.1,10,4.1s7.3-1.5,10-4.1
					c5.5-5.5,5.5-14.4,0-19.9C661.5,203.4,658,201.9,654.2,201.9z"/>
			</g>
			<g>
				<path fill="#CB226B" d="M643.8,214.4L643.8,214.4c-1.2,0-2.2-0.4-2.9-1.1c-0.6-0.6-0.9-1.3-1-2.1c0-0.1,0-0.2,0-0.3
					c0.8-2.1,2-4,3.6-5.6c1.6-1.6,3.5-2.8,5.6-3.6c0.1,0,0.2,0,0.3,0c0.9,0.1,1.6,0.5,2.1,1c2,2,1.2,6-1.7,8.9
					C648,213.3,645.8,214.4,643.8,214.4z M641,211.1c0.1,0.5,0.3,1,0.7,1.4c0.5,0.5,1.2,0.8,2.1,0.8h0c1.7,0,3.6-0.9,5.2-2.5
					c1.2-1.2,2.1-2.7,2.4-4.1c0.3-1.3,0.1-2.5-0.7-3.2c-0.4-0.4-0.8-0.6-1.4-0.7c-1.9,0.7-3.6,1.8-5.1,3.3
					C642.8,207.5,641.7,209.2,641,211.1z"/>
			</g>
			<g>
				<path fill="#CB226B" d="M645.3,223c-2.1,0-4-0.6-5.4-2c-0.2-0.2-0.2-0.6,0-0.8c0.2-0.2,0.6-0.2,0.8,0c3.2,3.2,9.8,1.8,14.6-3.1
					c4.8-4.8,6.2-11.4,3.1-14.6c-0.2-0.2-0.2-0.6,0-0.8c0.2-0.2,0.6-0.2,0.8,0c3.6,3.7,2.2,10.9-3.1,16.2
					C652.8,221.2,648.8,223,645.3,223z"/>
			</g>
			<g>
				<path fill="#CB226B" d="M649.9,229.5c-1.3,0-2.5-0.2-3.6-0.5c-0.3-0.1-0.5-0.4-0.4-0.7s0.4-0.5,0.7-0.4
					c4.7,1.4,10.5-0.4,14.8-4.7c4.3-4.3,6.1-10.1,4.7-14.8c-0.1-0.3,0.1-0.6,0.4-0.7c0.3-0.1,0.6,0.1,0.7,0.4
					c1.6,5.1-0.4,11.3-5,15.9C658.7,227.5,654.2,229.5,649.9,229.5z"/>
			</g>
		</g>
		<g>
			<g>
				<path fill="#CB226B" d="M469.6,233c-0.3,0-0.6-0.2-0.7-0.5c-0.8-2.3-3.8-3.3-4.7-3.5c-6.5,4-12.7,3.5-16.8,2.4
					c-4.5-1.2-7.3-3.5-7.5-3.5c-0.1-0.1-0.2-0.3-0.3-0.5c-1.2-9.3,5.7-25.3,6-26c0.1-0.2,0.2-0.3,0.4-0.4c0.2-0.1,5.5-1.9,7.4-1.9
					c2.1,0,2.5,0.3,3.5,1.3c0.7,0.7,2.3,3,2.1,4.5c-0.1,0.5-0.3,0.8-0.6,1c-0.1,0.1-0.3,0.2-0.5,0.3c-1.2,0.8-3.4,2.2-5.1,0.6
					c-0.8-0.8-1.8-1.3-2.7-1.2c-0.4,0-0.7,0.1-0.9,0.4c-0.7,0.7-0.5,6.3,0.2,9.1c0.3,1.5,0.6,3.4,0.7,4.8c1-0.9,2.6-2.1,4.4-2.1
					c3.5-0.1,5.2,1.5,6,2.7c4.2-4.6,9.8-2.8,9.9-2.7c0.4,0.1,0.6,0.5,0.5,0.9c-0.1,0.4-0.5,0.6-0.9,0.5c-0.2-0.1-5.4-1.7-9,3.1
					c-0.2,0.2-0.4,0.3-0.7,0.3c-0.3-0.1-0.5-0.3-0.6-0.5c0-0.1-0.9-2.9-5.1-2.8c-2.5,0.1-4.4,2.8-4.5,2.8c-0.2,0.2-0.5,0.3-0.8,0.3
					c-0.3-0.1-0.5-0.3-0.5-0.6c0,0-0.4-3.8-0.9-6.2c-0.4-1.9-1.2-8.9,0.2-10.4c0.5-0.5,1.1-0.8,1.9-0.8c1.2,0,2.6,0.6,3.7,1.6
					c0.8,0.8,2,0.1,3.3-0.8c0.2-0.1,0.3-0.2,0.5-0.3c0.1-0.5-0.9-2.5-1.7-3.3c-0.8-0.8-0.9-0.9-2.4-0.9c-1.3,0-5,1.2-6.7,1.8
					c-0.9,2.2-6.7,16.3-5.8,24.7c0.8,0.5,3.3,2.2,6.8,3.1c5.6,1.5,10.9,0.7,15.9-2.4c0.2-0.1,0.3-0.1,0.5-0.1c0.2,0,4.7,1,6,4.5
					c0.1,0.4-0.1,0.8-0.4,0.9C469.8,233,469.7,233,469.6,233z"/>
			</g>
		</g>
		<g>
			<g>
				<path fill="#CB226B" d="M257.5,160.8c-3,0-5.1-0.4-6.4-1.3c-0.4-0.3-0.8-0.5-1.2-0.8c-1.2-0.8-2.3-1.6-3.3-1.6
					c-0.3,0-0.6,0.1-0.8,0.2c-0.5,0.2-0.9,0.4-1.4,0.7c-1.8,0.9-4,2-7.2,1.9c-0.4,0-0.8,0-1.2,0c-3.8-0.1-8.1-0.2-9.3-3.3
					c-1.2-3.3-0.4-16.9-0.1-19.6c0.3-2.6,0.6-5.8,3-5.8c0.2,0,0.4,0,0.6,0.1c1.1,0.2,1.7,1.4,2.3,2.4c0.8,1.4,1.4,2.3,2.4,2.2
					c2.9-0.3,4.9-1,5.9-2.1c0.5-0.9,3.2-5.8,6.9-5.8c1,0,1.9,0.3,2.8,1c4.4,3.2,22.2,12.4,30.4,13.5c4.3,0.6,5.8,2.5,6.3,4.1
					c0.8,2.8-1.1,6.2-3.2,8c-2.9,2.5-9.1,4.4-18.5,5.6C262.1,160.6,259.5,160.8,257.5,160.8z M246.5,155.3c1.6,0,3,0.9,4.4,1.9
					c0.4,0.2,0.7,0.5,1.1,0.7c1.1,0.7,2.8,1,5.4,1c2,0,4.5-0.2,7.6-0.6c8.9-1.1,14.9-2.9,17.5-5.2c1.7-1.5,3.2-4.1,2.7-6
					c-0.5-1.8-2.8-2.5-4.7-2.7c-8.5-1.2-26.8-10.5-31.3-13.8c-0.6-0.4-1.1-0.6-1.7-0.6c-2.4,0-4.6,3.5-5.3,4.8
					c0,0.1-0.1,0.1-0.1,0.2c-1.3,1.5-3.6,2.4-7.2,2.8c-2.4,0.3-3.5-1.8-4.3-3.2c-0.3-0.5-0.8-1.4-1-1.5c-0.1,0-0.1,0-0.2,0
					c-0.7,0-1,2.9-1.1,4c-0.5,4.4-0.9,16.3,0,18.8c0.7,1.9,4.5,2,7.5,2.1c0.4,0,0.8,0,1.2,0c2.6,0.1,4.5-0.8,6.3-1.7
					c0.5-0.3,1-0.5,1.5-0.7C245.4,155.4,246,155.3,246.5,155.3z"/>
			</g>
			<g>
				<path fill="#CB226B" d="M256.4,154.6c-14.3,0-27.7-1.6-28.7-1.7c-0.5-0.1-0.9-0.5-0.8-1.1c0.1-0.5,0.5-0.9,1.1-0.8
					c0.4,0,41.9,4.9,57.1-2.3c0.5-0.2,1.1,0,1.3,0.5c0.2,0.5,0,1.1-0.5,1.3C279,153.7,267.5,154.6,256.4,154.6z"/>
			</g>
			<g>
				<path fill="#CB226B" d="M250,137c-0.4,0-0.8-0.2-0.9-0.6c-0.2-0.5,0.1-1.1,0.6-1.2c2.9-1.1,3-2.3,3-2.4c-0.1-0.5,0.3-1,0.9-1.1
					c0.5-0.1,1,0.3,1.1,0.9c0,0.3,0.2,2.7-4.2,4.4C250.3,137,250.1,137,250,137z"/>
			</g>
			<g>
				<path fill="#CB226B" d="M254.3,139.5c-0.4,0-0.8-0.2-0.9-0.6c-0.2-0.5,0.1-1.1,0.6-1.2c2.9-1.1,2.9-2.4,2.9-2.4c0,0,0,0,0,0
					l1.9-0.2c0,0.3,0.2,2.7-4.2,4.4C254.6,139.4,254.5,139.5,254.3,139.5z"/>
			</g>
			<g>
				<path fill="#CB226B" d="M258.7,141.7c-0.4,0-0.8-0.2-0.9-0.6c-0.2-0.5,0.1-1.1,0.6-1.2c2.9-1.1,3-2.3,3-2.4
					c-0.1-0.5,0.3-1,0.9-1.1c0.5-0.1,1,0.3,1.1,0.9c0,0.3,0.2,2.7-4.2,4.4C258.9,141.7,258.8,141.7,258.7,141.7z"/>
			</g>
			<g>
				<path fill="#CB226B" d="M263.6,144.2c-0.4,0-0.8-0.2-0.9-0.6c-0.2-0.5,0.1-1.1,0.6-1.2c2.9-1.1,2.9-2.4,2.9-2.4c0,0,0,0,0,0
					l1.9-0.2c0,0.3,0.2,2.7-4.2,4.4C263.8,144.2,263.7,144.2,263.6,144.2z"/>
			</g>
			<g>
				<path fill="#CB226B" d="M240.2,153.3c-0.5,0-0.9-0.4-1-0.9C239,143,228,142.1,227.5,142c-0.5,0-0.9-0.5-0.9-1
					c0-0.5,0.5-0.9,1-0.9c0.1,0,13.3,1.1,13.6,12.2C241.2,152.9,240.8,153.3,240.2,153.3C240.2,153.3,240.2,153.3,240.2,153.3z"/>
			</g>
			<g>
				<path fill="#CB226B" d="M254.6,133.5c-0.3,0-0.7-0.2-0.8-0.5c-0.5-0.9-4.8-9-2.7-13c0.5-0.9,1.5-2,3.6-2.2c0.2,0,0.4,0,0.6,0
					c1.8,0,2.7,0.9,3.1,1.6c2.2,3.6-2.3,12.6-2.9,13.6C255.3,133.3,254.9,133.5,254.6,133.5C254.6,133.5,254.6,133.5,254.6,133.5z
					 M255.2,119.8c-0.1,0-0.3,0-0.4,0c-1.4,0.1-1.8,0.7-2.1,1.2c-1.1,2.1,0.5,6.6,1.8,9.4c1.6-3.5,3.1-8.2,2.1-10
					C256.5,120.1,256.1,119.8,255.2,119.8z"/>
			</g>
			<g>
				<path fill="#CB226B" d="M262.7,134c-3.8,0-7.9-0.9-8.1-1c-0.3-0.1-0.6-0.3-0.7-0.7c-0.1-0.3,0-0.7,0.3-0.9c0.3-0.2,6.3-6,10.7-6
					c1.4,0,3.2,0.5,4.1,3.1c0.5,1.4,0.4,2.6-0.2,3.6C267.9,133.4,265.9,134,262.7,134z M257,131.5c1.5,0.3,3.7,0.6,5.7,0.6
					c3.2,0,4.2-0.7,4.5-1.2c0.1-0.2,0.4-0.6,0-1.8c-0.4-1.2-1.1-1.8-2.3-1.8C262.6,127.3,259.1,129.7,257,131.5z"/>
			</g>
		</g>
		<g>
			<path fill="#CB226B" d="M668.9,280.7c0.2-0.3,0.3-0.6,0.4-0.9c0.8-2.6-0.6-5.3-3.1-6.2c-0.8-0.3-1.7-0.3-2.5-0.1
				c-0.6-0.6-1.4-1.1-2.3-1.4c-1.9-0.6-3.9-0.2-5.5,1c-0.6-0.4-1.2-0.8-1.9-1c-2.4-0.8-5,0.1-6.6,2.2c-1.4-0.2-2.9,0.4-3.8,1.5
				c-2.4,0.4-4.2,2.5-4.2,5c0,0.8,0.2,1.6,0.6,2.3c-1.3,0.9-2.2,2.4-2.2,4.2c0,1.3,0.5,2.6,1.4,3.5c0.9,0.9,2.1,1.5,3.3,1.5
				c0.7,0.8,1.7,1.3,2.8,1.3c0.1,0,0.2,0,0.3,0c0.1,0.2,0.3,0.3,0.4,0.4c2.2,4.6,2.6,12.6,2.6,18.5c0,0.6,0.5,1.1,1.1,1.1h6.2
				c0.6,0,1.1-0.5,1.1-1.1c0-8.7,4-15.7,6.1-18.7c0.7,0.3,1.4,0.5,2.1,0.5c2.8,0,5-2.3,5-5c0-0.6-0.1-1.2-0.3-1.7
				c0.1-0.3,0.3-0.6,0.4-0.9C671,284.5,670.4,282.2,668.9,280.7L668.9,280.7z M669,286.2c-0.1,0.3-0.2,0.5-0.3,0.8
				c-0.2,0.4-0.2,0.7-0.1,0.9c0.2,0.4,0.3,0.9,0.3,1.4c0,2-1.7,3.7-3.7,3.7c-0.6,0-1.2-0.2-1.9-0.6c-0.3-0.2-1-0.8-1.2-1
				c-0.2-0.3-0.7-0.3-0.9,0c-0.3,0.2-0.3,0.7,0,0.9c0.2,0.2,0.6,0.5,0.9,0.8c-1.1,1.6-2.5,3.9-3.7,6.9c-1.7,4.1-2.6,8.2-2.6,12.3
				H650c0-5.3-0.4-12.3-2.1-17.1c0.5,0.2,1,0.2,1.6,0.2c0.1,0,0.2,0,0.4,0c0.1,0.3,0.2,0.5,0.4,0.8c0.4,0.9,0.8,1.9,1,2.7
				c0.1,0.3,0.3,0.5,0.7,0.5c0,0,0,0,0,0c0.5,0,0.6-0.5,0.7-0.7c0-0.1,0.1-0.3,0.1-0.4c0.1-0.4,0.2-0.9,0.3-1.4
				c0.1-0.4,0.3-1.3,0.4-2.1c0.4,0.1,0.8,0.1,1.2,0.1c0.1,0,0.2,0,0.3,0v4.6c0,0.3,0.2,0.6,0.5,0.6c0.1,0,0.1,0,0.2,0
				c0.2,0,0.5-0.1,0.6-0.4c1.3-2.3,3.4-6.2,3.6-6.6c0.1-0.1,0.2-0.4,0.2-0.5c0-0.3-0.3-0.7-0.7-0.7c-0.3,0-0.6,0-0.9-0.1
				c-0.1,0-0.2-0.1-0.3-0.1c-0.2-0.1-0.6,0-0.8,0.2c-0.1,0.1-0.1,0.1-0.2,0.2c-0.5,0.5-0.8,0.9-1.3,1.1c-0.4,0.1-0.8,0.2-1.2,0.2
				c-0.5,0-1-0.1-1.4-0.3c0,0,0,0-0.1,0c-0.1-0.1-0.3-0.1-0.4-0.2c0,0,0,0,0,0c-0.3-0.2-0.6-0.1-0.8,0.1c-0.4,0.3-0.8,0.5-1.3,0.7
				c-0.3,0.1-0.6,0.1-1,0.1c-0.9,0-1.8-0.3-2.5-0.9c0,0,0,0,0,0c-0.2-0.1-0.3-0.3-0.4-0.5l0,0c-0.1-0.2-0.4-0.5-1-0.4
				c-0.1,0-0.2,0-0.3,0c-0.7,0-1.3-0.3-1.8-0.9c-0.2-0.3-0.5-0.4-0.8-0.4c-2-0.1-3.6-1.7-3.6-3.7c0-1.4,0.8-2.7,1.9-3.2
				c0.3-0.1,0.4-0.4,0.4-0.5c0.1-0.2,0-0.5-0.1-0.7c-0.4-0.7-0.6-1.3-0.6-2c0-1.9,1.4-3.5,3.3-3.7c0.2,0,0.4-0.1,0.5-0.3
				c0.7-0.9,1.8-1.3,2.9-1.2c0.4,0.1,0.8-0.1,1.1-0.5c1.2-1.7,3.3-2.4,5.1-1.8c0.6,0.2,1.2,0.5,1.6,1c0.3,0.3,0.8,0.4,1.3,0
				c1.2-1.1,2.9-1.4,4.4-0.9c0.7,0.2,1.3,0.6,1.8,1.1c0,0,0,0,0,0c0.2,0.2,0.5,0.4,1,0.3c0.6-0.2,1.3-0.1,2,0.1
				c1.9,0.6,2.9,2.6,2.3,4.5c-0.1,0.3-0.3,0.6-0.4,0.9c-0.3,0.4-0.2,0.8,0.1,1.1c0,0,0,0,0,0C669.1,282.6,669.6,284.5,669,286.2
				L669,286.2z M651.2,295.1c0.3-0.1,0.6-0.2,0.9-0.4c-0.1,0.5-0.2,1.1-0.3,1.7c-0.1-0.2-0.2-0.5-0.3-0.7
				C651.3,295.5,651.2,295.3,651.2,295.1L651.2,295.1z M656.2,294.8c0.8-0.3,1.3-0.8,1.8-1.3c0,0,0.2,0,0.2,0
				c-0.5,0.8-1.2,2.2-2,3.6V294.8z M656.2,294.8"/>
			<path fill="#CB226B" d="M663.3,281.7c-0.5-0.1-1.1-0.1-1.6,0.1c-0.3-2-1.9-3.6-3.9-4c-2.5-0.5-5,1.1-5.6,3.5
				c-0.1,0.4,0.1,0.7,0.5,0.8c0.4,0.1,0.7-0.1,0.8-0.5c0.5-1.8,2.3-2.9,4.1-2.6c1.7,0.3,3,1.9,2.9,3.6c0,0.2,0.1,0.5,0.3,0.6
				c0.2,0.1,0.5,0.1,0.7,0c0.5-0.3,1.1-0.4,1.6-0.3c1.2,0.2,2.1,1.4,1.8,2.7c-0.1,0.3-0.1,0.5-0.3,0.8c-0.2,0.3-0.1,0.7,0.2,0.9
				c0.1,0.1,0.2,0.1,0.3,0.1c0.2,0,0.4-0.1,0.6-0.3c0.2-0.4,0.4-0.8,0.5-1.2c0.2-1,0-1.9-0.6-2.7
				C665.1,282.4,664.3,281.9,663.3,281.7L663.3,281.7z M663.3,281.7"/>
			<path fill="#CB226B" d="M652,284.9c-1-0.9-2.2-1.3-3.5-1.3c-1.3,0.1-2.5,0.6-3.4,1.6c-0.8,0.9-1.3,2-1.3,3.2
				c0,0.4,0.3,0.7,0.7,0.7h0c0.4,0,0.7-0.3,0.7-0.7c0-0.9,0.3-1.7,0.9-2.4c0.6-0.7,1.5-1.1,2.5-1.1c0.9,0,1.9,0.3,2.6,0.9
				c0.3,0.3,0.6,0.6,0.8,1c0.2,0.3,0.6,0.5,0.9,0.3c0.3-0.2,0.5-0.6,0.3-0.9C652.8,285.8,652.5,285.3,652,284.9L652,284.9z
				 M652,284.9"/>
		</g>
		<g>
			<path fill="#CB226B" d="M475.7,281.9h-6.6c-0.3,0-0.6,0.3-0.6,0.6c0,0.3,0.3,0.6,0.6,0.6h0.9c-0.3,7.8-6.8,14.1-14.7,14.1
				s-14.4-6.3-14.7-14.1h25.1c0.3,0,0.6-0.3,0.6-0.6c0-0.3-0.3-0.6-0.6-0.6H435c-0.3,0-0.6,0.3-0.6,0.6c0,5.6,2.2,10.9,6.1,14.8
				c4,4,9.2,6.1,14.8,6.1c5.6,0,10.9-2.2,14.8-6.1c4-4,6.1-9.2,6.1-14.8C476.4,282.2,476.1,281.9,475.7,281.9L475.7,281.9z
				 M455.4,302.2c-10.7,0-19.4-8.5-19.7-19.1h3.7c0.3,8.5,7.4,15.4,16,15.4s15.7-6.8,16-15.4h3.7
				C474.8,293.7,466.1,302.2,455.4,302.2L455.4,302.2z M455.4,302.2"/>
			<path fill="#CB226B" d="M445.1,288.7v1.6c0,0.4,0.3,0.7,0.7,0.7c0.4,0,0.7-0.3,0.7-0.7v-1.6c0-0.4-0.3-0.7-0.7-0.7
				C445.4,288,445.1,288.3,445.1,288.7L445.1,288.7z M445.1,288.7"/>
			<path fill="#CB226B" d="M450.3,292.2v1.4c0,0.4,0.3,0.7,0.7,0.7c0.4,0,0.7-0.3,0.7-0.7v-1.4c0-0.4-0.3-0.7-0.7-0.7
				C450.6,291.5,450.3,291.8,450.3,292.2L450.3,292.2z M450.3,292.2"/>
			<path fill="#CB226B" d="M448.1,284.9v1.4c0,0.4,0.3,0.7,0.7,0.7c0.4,0,0.7-0.3,0.7-0.7v-1.4c0-0.4-0.3-0.7-0.7-0.7
				C448.4,284.2,448.1,284.5,448.1,284.9L448.1,284.9z M448.1,284.9"/>
			<path fill="#CB226B" d="M453.3,287v1.6c0,0.4,0.3,0.7,0.7,0.7c0.4,0,0.7-0.3,0.7-0.7V287c0-0.4-0.3-0.7-0.7-0.7
				C453.6,286.3,453.3,286.6,453.3,287L453.3,287z M453.3,287"/>
			<path fill="#CB226B" d="M464.6,285.9v1.5c0,0.4,0.3,0.7,0.7,0.7c0.4,0,0.7-0.3,0.7-0.7v-1.5c0-0.4-0.3-0.7-0.7-0.7
				C464.9,285.3,464.6,285.6,464.6,285.9L464.6,285.9z M464.6,285.9"/>
			<path fill="#CB226B" d="M461.3,290.3v1.5c0,0.4,0.3,0.7,0.7,0.7c0.4,0,0.7-0.3,0.7-0.7v-1.5c0-0.4-0.3-0.7-0.7-0.7
				C461.6,289.6,461.3,289.9,461.3,290.3L461.3,290.3z M461.3,290.3"/>
			<path fill="#CB226B" d="M458.4,285.6v1.6c0,0.4,0.3,0.7,0.7,0.7c0.4,0,0.7-0.3,0.7-0.7v-1.6c0-0.4-0.3-0.7-0.7-0.7
				C458.7,284.9,458.4,285.2,458.4,285.6L458.4,285.6z M458.4,285.6"/>
			<path fill="#CB226B" d="M456.2,292.2v1.6c0,0.4,0.3,0.7,0.7,0.7c0.4,0,0.7-0.3,0.7-0.7v-1.6c0-0.4-0.3-0.7-0.7-0.7
				C456.5,291.5,456.2,291.8,456.2,292.2L456.2,292.2z M456.2,292.2"/>
		</g>
		<g>
			<path fill="#CB226B" d="M561.5,283.6c-0.1-0.3-0.3-0.5-0.6-0.5c-0.3,0-0.6,0.1-0.9,0.4c-0.2-2.4-0.7-4.7-1.3-6.6
				c-1-3.1-2.2-4.6-3.7-4.6c-1.4,0-2.6,1.6-3.8,4.9c-0.7,1.9-1.3,4.2-1.6,6.4c-0.3-0.3-0.6-0.5-0.9-0.5c-0.3,0-0.5,0.2-0.6,0.5
				c-1.8,5.3-2.6,9.9-2.6,13.7c0,3.1,0.6,5.7,1.8,7.8c1.5,2.6,3.4,3.5,4.4,3.9l0,3.3c0,0.4,0.3,0.7,0.7,0.7h4.7
				c0.4,0,0.7-0.3,0.7-0.6l0.1-3.3c0.9-0.3,3-1.2,4.5-3.9c1.2-2.1,1.8-4.7,1.8-7.8C564.2,293.5,563.3,288.9,561.5,283.6L561.5,283.6
				z M552.5,277.7c1.1-3.2,2.1-4,2.5-4c0.6,0,1.5,1,2.4,3.7c0.8,2.4,1.3,5.7,1.4,8.9c-0.5,1.8-0.9,4.4-1.5,8.1
				c-0.9,5.9-2.2,8.1-2.7,8.6c-0.5-0.5-1.8-2.7-2.7-8.6c-0.1-0.4-0.1-0.9-0.2-1.4c-0.4-3.1-0.8-5.2-1.2-6.8
				C550.7,285.9,551.6,280.2,552.5,277.7L552.5,277.7z M561.2,304.4c-1.7,3-4.1,3.4-4.1,3.4c-0.3,0.1-0.5,0.3-0.5,0.6l-0.1,3.1H553
				l0-3.1c0-0.3-0.2-0.6-0.5-0.6c0,0-2.4-0.5-4-3.4c-1.6-2.8-2.8-8.5,0.6-19.2c0.2,0.4,0.4,1.1,0.6,2.2c0.4,1.7,0.7,3.8,1,5.8
				c0.1,0.5,0.1,0.9,0.2,1.4c0.7,4.5,2.1,9.8,4,9.8c1.9,0,3.3-5.3,4-9.8c0.3-2.1,0.7-4.6,1.1-6.6c0.3-1.5,0.6-2.4,0.8-2.9
				C564,295.9,562.8,301.5,561.2,304.4L561.2,304.4z M561.2,304.4"/>
			<path fill="#CB226B" d="M553.2,282.3c0.4,0,0.7-0.3,0.7-0.7v-0.3c0-0.4-0.3-0.7-0.7-0.7c-0.4,0-0.7,0.3-0.7,0.7v0.3
				C552.5,282,552.8,282.3,553.2,282.3L553.2,282.3z M553.2,282.3"/>
			<path fill="#CB226B" d="M556.7,285.4V285c0-0.4-0.3-0.7-0.7-0.7c-0.4,0-0.7,0.3-0.7,0.7v0.3c0,0.4,0.3,0.7,0.7,0.7
				C556.4,286,556.7,285.7,556.7,285.4L556.7,285.4z M556.7,285.4"/>
			<path fill="#CB226B" d="M557,281.7c0.4,0,0.7-0.3,0.7-0.7v-0.3c0-0.4-0.3-0.7-0.7-0.7c-0.4,0-0.7,0.3-0.7,0.7v0.3
				C556.3,281.4,556.6,281.7,557,281.7L557,281.7z M557,281.7"/>
			<path fill="#CB226B" d="M556.5,289.6c-0.4,0-0.7,0.3-0.7,0.7v0.3c0,0.4,0.3,0.7,0.7,0.7c0.4,0,0.7-0.3,0.7-0.7v-0.3
				C557.2,289.9,556.9,289.6,556.5,289.6L556.5,289.6z M556.5,289.6"/>
			<path fill="#CB226B" d="M554,298.2v0.3c0,0.4,0.3,0.7,0.7,0.7c0.4,0,0.7-0.3,0.7-0.7v-0.3c0-0.4-0.3-0.7-0.7-0.7
				C554.3,297.5,554,297.8,554,298.2L554,298.2z M554,298.2"/>
			<path fill="#CB226B" d="M553.3,293.2v0.3c0,0.4,0.3,0.7,0.7,0.7c0.4,0,0.7-0.3,0.7-0.7v-0.3c0-0.4-0.3-0.7-0.7-0.7
				C553.6,292.6,553.3,292.9,553.3,293.2L553.3,293.2z M553.3,293.2"/>
			<path fill="#CB226B" d="M555.5,277.8c0.4,0,0.7-0.3,0.7-0.7v-0.3c0-0.4-0.3-0.7-0.7-0.7c-0.4,0-0.7,0.3-0.7,0.7v0.3
				C554.8,277.5,555.1,277.8,555.5,277.8L555.5,277.8z M555.5,277.8"/>
			<path fill="#CB226B" d="M553.2,288.7c0.4,0,0.7-0.3,0.7-0.7v-0.3c0-0.4-0.3-0.7-0.7-0.7c-0.4,0-0.7,0.3-0.7,0.7v0.3
				C552.5,288.4,552.8,288.7,553.2,288.7L553.2,288.7z M553.2,288.7"/>
		</g>
		<g>
			<path fill="#CB226B" d="M149.3,76h-0.5c-0.4,0-0.7,0.3-0.7,0.7c0,0.4,0.3,0.7,0.7,0.7h0.5c0.4,0,0.7-0.3,0.7-0.7
				C149.9,76.3,149.6,76,149.3,76L149.3,76z M149.3,76"/>
			<path fill="#CB226B" d="M151.7,71.6c-0.3-0.3-0.7-0.3-0.9,0c-0.3,0.3-0.3,0.7,0,0.9l0.4,0.4c0.1,0.1,0.3,0.2,0.5,0.2
				c0.2,0,0.3-0.1,0.5-0.2c0.3-0.3,0.3-0.7,0-0.9L151.7,71.6z M151.7,71.6"/>
			<path fill="#CB226B" d="M165.6,76h-0.5c-0.4,0-0.7,0.3-0.7,0.7c0,0.4,0.3,0.7,0.7,0.7h0.5c0.4,0,0.7-0.3,0.7-0.7
				C166.3,76.3,166,76,165.6,76L165.6,76z M165.6,76"/>
			<path fill="#CB226B" d="M157.2,69c-0.4,0-0.6,0.3-0.6,0.7v0.5c0,0.4,0.2,0.7,0.6,0.7c0.4,0,0.6-0.3,0.6-0.7v-0.5
				C157.8,69.3,157.5,69,157.2,69L157.2,69z M157.2,69"/>
			<path fill="#CB226B" d="M162.7,71.6l-0.4,0.4c-0.3,0.3-0.3,0.7,0,0.9c0.1,0.1,0.3,0.2,0.5,0.2c0.2,0,0.3-0.1,0.5-0.2l0.4-0.4
				c0.3-0.3,0.3-0.7,0-0.9C163.4,71.3,162.9,71.3,162.7,71.6L162.7,71.6z M162.7,71.6"/>
			<path fill="#CB226B" d="M168.1,63.8c-1.5-1.3-3.2-2.3-4.9-3v-6.5c3.2,0,5.9-1.5,7.9-4.1c1.5-2,2-4,2-4.1c0.1-0.2,0-0.4-0.1-0.6
				c-0.1-0.2-0.3-0.3-0.5-0.3h-30.5c-0.2,0-0.4,0.1-0.5,0.3c-0.1,0.2-0.2,0.4-0.1,0.6c0,0.1,0.6,2.1,2,4.1c2,2.7,4.7,4.1,7.9,4.1
				v6.5c-1.8,0.7-3.5,1.7-4.9,3c-3.3,2.8-5,6.6-5,10.7v4.9c0,0.4,0.3,0.7,0.7,0.7h30.5c0.4,0,0.7-0.3,0.7-0.7v-4.9
				C173.1,70.4,171.3,66.6,168.1,63.8L168.1,63.8z M144.4,49.4c-0.8-1.1-1.3-2.1-1.6-2.8h28.6c-0.3,0.7-0.8,1.8-1.6,2.8
				c-1.8,2.4-4.1,3.6-6.9,3.6h-2v0c-0.4,0-0.6,0.3-0.6,0.7c0,0.4,0.3,0.6,0.6,0.7v0h0.7v6c-1.4-0.4-2.9-0.7-4.4-0.7H157
				c-1.5,0-3,0.2-4.4,0.7v-6l6.1,0c0.4,0,0.7-0.3,0.7-0.7c0-0.4-0.3-0.7-0.7-0.7h-7.3C148.5,53,146.2,51.8,144.4,49.4L144.4,49.4z
				 M155.2,78.7C155.2,78.7,155.2,78.7,155.2,78.7c0-0.7,0.3-1.4,0.9-1.7l0.4,0.9c0.1,0.3,0.4,0.4,0.6,0.4c0.1,0,0.2,0,0.3,0
				c0.3-0.1,0.5-0.5,0.4-0.9l-0.3-0.8c1.1,0.1,1.9,1,1.9,2c0,0,0,0,0,0.1H155.2z M160.6,78.6c0-1.9-1.5-3.4-3.4-3.4
				c-0.1,0-0.3,0-0.4,0l-1.9-4.6c-0.1-0.3-0.5-0.5-0.9-0.4c-0.3,0.1-0.5,0.5-0.4,0.9l1.8,4.5c-1,0.6-1.7,1.7-1.7,2.9v0
				c0,0-7.8,0-7.8,0c0-6.2,4.9-11.2,11-11.2h0.2c6.1,0,11,5,11,11.2C168.3,78.7,160.6,78.7,160.6,78.6L160.6,78.6z M171.8,78.7h-2.2
				c0,0,0,0,0,0c0-3.3-1.3-6.4-3.6-8.8c-2.3-2.4-5.4-3.7-8.7-3.7h-0.2c-3.3,0-6.4,1.3-8.7,3.7c-2.3,2.4-3.6,5.5-3.6,8.8c0,0,0,0,0,0
				h-2.2v-4.3c0-7.9,7.6-13.4,14.4-13.4h0.4c6.8,0,14.4,5.5,14.4,13.4V78.7z M171.8,78.7"/>
		</g>
		<g>
			<path fill="#CB226B" d="M41.5,76.9l-1.7,1.7c-0.1,0.1-0.1,0.4,0,0.5c0.1,0.1,0.2,0.1,0.3,0.1c0.1,0,0.2,0,0.3-0.1l1.7-1.7
				c0.1-0.1,0.1-0.4,0-0.5C41.9,76.8,41.7,76.8,41.5,76.9z"/>
			<path fill="#CB226B" d="M48,71c-0.1-0.1-0.4-0.1-0.5,0l-5.2,5.2c-0.1,0.1-0.1,0.4,0,0.5c0.1,0.1,0.2,0.1,0.3,0.1
				c0.1,0,0.2,0,0.3-0.1l5.2-5.2C48.1,71.4,48.1,71.1,48,71z"/>
			<path fill="#CB226B" d="M64.2,64.6c3.3,0,6.6-1.5,9.3-4.1c0.7-0.7,1.3-1.5,1.9-2.3c0,0,0,0,0,0c1.3-1.9,2-4,2.2-6
				c0,0,0-0.1,0-0.1c0-0.5,0-1,0-1.5c0,0,0-0.1,0-0.1c-0.1-2-0.9-3.9-2.3-5.3l0,0l0,0l0,0c-1.5-1.5-3.6-2.3-6-2.3
				c-3.3,0-6.6,1.5-9.3,4.1c-2.3,2.3-3.7,5.1-4.1,8c-0.4,2.9,0.4,5.5,2.3,7.3l0,0l0,0C59.5,63.6,61.7,64.6,64.2,64.6z M68.2,43.7
				l0.4,0.4L65,47.5l-2-2C64.6,44.5,66.4,43.8,68.2,43.7z M74.4,45.5l-1.7,1.7L69.6,44l0.4-0.4C71.7,43.8,73.2,44.4,74.4,45.5z
				 M76.8,50.4l-0.4,0.4l-3.1-3.1L75,46C76,47.2,76.6,48.8,76.8,50.4z M74.9,57.4l-2-2l3.5-3.5l0.4,0.4C76.6,54,76,55.8,74.9,57.4z
				 M65.2,63.8l-0.4-0.4l3.5-3.5l2,2C68.8,63,67,63.6,65.2,63.8z M58.9,62l1.7-1.7l3.1,3.1l-0.4,0.4C61.7,63.7,60.1,63.1,58.9,62z
				 M64.3,62.9l-3.1-3.1l3.5-3.5l3.1,3.1L64.3,62.9z M65.2,55.7l3.5-3.5l3.1,3.1l-3.5,3.5L65.2,55.7z M69.2,51.7l3.5-3.5l3.1,3.1
				l-3.5,3.5L69.2,51.7z M69.1,44.6l3.1,3.1l-3.5,3.5l-3.1-3.1L69.1,44.6z M68.2,51.7l-3.5,3.5l-3.1-3.1l3.5-3.5L68.2,51.7z
				 M64.2,55.7l-3.5,3.5l-3.1-3.1l3.5-3.5L64.2,55.7z M60.1,59.8l-1.7,1.7c-1.1-1.2-1.7-2.7-1.8-4.4l0.4-0.4L60.1,59.8z M72.9,59.9
				c-0.6,0.6-1.2,1.1-1.9,1.6l-2.1-2.1l3.5-3.5l2.1,2.1C74,58.7,73.5,59.3,72.9,59.9z M60.5,47.5c0.6-0.6,1.2-1.1,1.9-1.6l2.1,2.1
				L61,51.6l-2.1-2.1C59.3,48.8,59.9,48.1,60.5,47.5z M58.5,50l2,2L57,55.6l-0.4-0.4c0-0.1,0-0.1,0-0.2C56.8,53.3,57.5,51.6,58.5,50
				z"/>
			<path fill="#CB226B" d="M75.5,68.9C75.5,68.9,75.5,68.9,75.5,68.9c-1.3-0.9-2.9-1.5-4.6-1.5c-1.8,0-3.4,0.6-4.7,1.5
				c0,0-0.1,0-0.1,0.1c-1.9,1.4-3.1,3.7-3.1,6.3c0,4.3,3.5,7.9,7.9,7.9s7.9-3.5,7.9-7.9C78.8,72.7,77.5,70.3,75.5,68.9z M74.9,69.4
				v5.2c0,2.2-1.8,4-4,4s-4-1.8-4-4v-5c1.2-0.8,2.6-1.3,4.1-1.3C72.4,68.2,73.8,68.6,74.9,69.4z M71,82.5c-3.9,0-7.2-3.2-7.2-7.2
				c0-2.1,0.9-3.9,2.3-5.2v4.4c0,2.6,2.1,4.8,4.8,4.8c2.6,0,4.8-2.1,4.8-4.8v-4.6c1.5,1.3,2.5,3.2,2.5,5.4
				C78.1,79.3,74.9,82.5,71,82.5z"/>
			<path fill="#CB226B" d="M69.5,77.6c0,0,0.1,0,0.2,0c0.1,0,0.3-0.1,0.3-0.2c0.1-0.2,0-0.4-0.2-0.5c-0.4-0.2-0.8-0.5-1-0.9
				c-0.1-0.2-0.3-0.2-0.5-0.1c-0.2,0.1-0.2,0.3-0.1,0.5C68.5,76.9,68.9,77.3,69.5,77.6z"/>
			<path fill="#CB226B" d="M70.9,77.9c1.8,0,3.3-1.5,3.3-3.3V71c0-0.2-0.2-0.4-0.4-0.4c-0.2,0-0.4,0.2-0.4,0.4v3.6
				c0,1.4-1.2,2.6-2.6,2.6c-0.2,0-0.4,0.2-0.4,0.4S70.7,77.9,70.9,77.9z"/>
			<path fill="#CB226B" d="M65.9,65.8C66,65.8,66,65.8,65.9,65.8c3-0.6,6-2.1,8.3-4.5c5.3-5.3,6.2-13,2-17.2
				c-1.7-1.7-4.1-2.6-6.7-2.6c-3.7,0-7.5,1.7-10.4,4.7c-2.4,2.4-3.9,5.4-4.5,8.2c0,0,0,0.1-0.1,0.1l-4.3,13c-0.1,0-0.1,0-0.2,0.1
				l-2.7,1.7c0,0,0,0,0,0c0,0,0,0-0.1,0c0,0,0,0,0,0l0,0L36.7,80c-0.1,0.1-0.1,0.2-0.1,0.3s0,0.2,0.1,0.3l3.2,3.2
				c0.1,0.1,0.2,0.1,0.3,0.1c0.1,0,0.2,0,0.3-0.1L51.1,73l0,0c0,0,0,0,0,0c0,0,0,0,0-0.1c0,0,0,0,0,0l1.7-2.7c0-0.1,0-0.1,0.1-0.2
				L65.9,65.8z M51,68l3.5-10.7c0,0.8,0.2,1.6,0.4,2.3l-2.6,8.1c0,0.1,0,0.3,0.1,0.4c0.1,0.1,0.2,0.1,0.3,0.1c0,0,0.1,0,0.1,0
				l8.1-2.6c0.7,0.2,1.5,0.4,2.3,0.4l-10.7,3.5L51,68z M55.8,61.6c0.1,0.2,0.2,0.4,0.4,0.6c0,0,0.1,0.1,0.1,0.1c0,0,0.1,0.1,0.1,0.1
				c0.1,0.1,0.1,0.2,0.2,0.2c0,0,0,0,0.1,0.1c0.1,0.1,0.1,0.1,0.2,0.2c0,0,0,0.1,0.1,0.1c0.1,0.1,0.2,0.2,0.2,0.3
				c0.1,0.1,0.2,0.2,0.3,0.3c0,0,0,0,0,0c0.1,0.1,0.2,0.2,0.3,0.2c0,0,0,0,0,0c0.6,0.5,1.3,0.9,2,1.3l-6.5,2.1l2.1-6.5
				C55.4,61,55.6,61.3,55.8,61.6C55.8,61.6,55.8,61.6,55.8,61.6z M59.6,46.7c2.8-2.8,6.4-4.4,9.9-4.4c2.5,0,4.6,0.8,6.2,2.4
				c1.9,1.9,2.7,4.6,2.3,7.6c-0.4,3.1-1.9,6.1-4.4,8.5c-2.8,2.8-6.4,4.4-9.9,4.4c-1,0-2-0.1-2.9-0.4c0,0,0,0,0,0
				c-0.6-0.2-1.2-0.5-1.8-0.8c0,0,0,0,0,0c-0.1-0.1-0.2-0.1-0.3-0.2c-0.1,0-0.1-0.1-0.2-0.1c0,0-0.1-0.1-0.1-0.1
				c-0.1-0.1-0.2-0.1-0.2-0.2c0,0-0.1,0-0.1-0.1c-0.1-0.1-0.2-0.1-0.3-0.2c0,0,0,0-0.1,0c-0.1-0.1-0.2-0.2-0.3-0.3
				c-0.1-0.1-0.1-0.1-0.2-0.2c0,0,0,0,0,0c0,0-0.1-0.1-0.1-0.1c0,0,0,0,0,0c0-0.1-0.1-0.1-0.1-0.2c0,0,0,0,0,0
				c0-0.1-0.1-0.1-0.1-0.2c0,0,0,0,0,0c0-0.1-0.1-0.1-0.1-0.2c0,0,0,0,0,0c0-0.1-0.1-0.1-0.1-0.2c0,0,0,0,0,0c0-0.1-0.1-0.1-0.1-0.2
				c0,0,0,0,0,0c0-0.1-0.1-0.1-0.1-0.2c0,0,0,0,0,0c0-0.1-0.1-0.1-0.1-0.2c0,0,0,0,0,0c0-0.1-0.1-0.1-0.1-0.2c0,0,0,0,0,0
				c0-0.1-0.1-0.1-0.1-0.2c0,0,0,0,0,0c0-0.1-0.1-0.1-0.1-0.2c0,0,0,0,0,0c0-0.1-0.1-0.1-0.1-0.2c0,0,0,0,0,0c0-0.1,0-0.1-0.1-0.2
				c0,0,0,0,0,0c0-0.1,0-0.1-0.1-0.2c0,0,0,0,0,0C54.4,55.6,55.8,50.5,59.6,46.7z M50.3,68.3l1.8,1.8l-1.3,2l-2.5-2.5L50.3,68.3z
				 M40.2,82.9l-2.7-2.7l10.2-10.2l2.7,2.7L40.2,82.9z"/>
		</g>
		<path fill="#CB226B" d="M263.8,82.5h-14.4c-0.2,0-0.4-0.1-0.5-0.3l-0.8-1.4c-0.1-0.1-0.1-0.2-0.1-0.3v0v0c0,0,0,0,0,0v0
			c0,0,0,0,0,0V48.1c0-0.5,0.4-0.9,0.7-1.3l-0.4-0.4c-0.1-0.1-0.2-0.2-0.2-0.4v-1c0-0.3,0.2-0.5,0.5-0.5h3.6l4.3-1.7
			c0.3-0.1,0.6,0,0.7,0.3c0.1,0.3,0,0.6-0.3,0.7l-1.7,0.7h9.2c0.3,0,0.5,0.2,0.5,0.5v1c0,0.1-0.1,0.3-0.2,0.4l-0.4,0.4
			c0.3,0.3,0.7,0.8,0.7,1.3v32.5c0,0,0,0,0,0v0c0,0,0,0,0,0c0,0,0,0,0,0v0c0,0.1,0,0.2-0.1,0.3l-0.8,1.4
			C264.2,82.4,264,82.5,263.8,82.5z M249.7,81.4h13.8l0.2-0.3h-14.1L249.7,81.4z M249.1,80.1H264v-32c0-0.1-0.3-0.4-0.6-0.7h-13.7
			c-0.3,0.3-0.6,0.6-0.6,0.7V80.1z M249.8,46.3h13.6l0.5-0.5v-0.2h-11.5c0,0,0,0,0,0h-3.1v0.2L249.8,46.3z M252.3,75.6
			c-0.1,0-0.2,0-0.2-0.1c-0.3-0.1-0.4-0.4-0.3-0.7l3.6-11.2h-2.7c-0.2,0-0.3-0.1-0.4-0.2c-0.1-0.1-0.1-0.3-0.1-0.5l2.9-10.1
			c0.1-0.2,0.3-0.4,0.5-0.4h4.8c0.2,0,0.3,0.1,0.5,0.2c0.1,0.1,0.1,0.3,0.1,0.5l-2.5,6.3h3.1c0.2,0,0.4,0.1,0.5,0.3
			c0.1,0.2,0.1,0.4,0,0.6l-9.3,14.9C252.7,75.5,252.5,75.6,252.3,75.6z M253.4,62.6h2.7c0.2,0,0.3,0.1,0.4,0.2
			c0.1,0.1,0.1,0.3,0.1,0.5l-2.5,7.7l6.5-10.4h-2.9c-0.2,0-0.3-0.1-0.5-0.2c-0.1-0.1-0.1-0.3-0.1-0.5l2.5-6.3H256L253.4,62.6z"/>
		<path fill="#CB226B" d="M536,85.9c-0.7,0-1.3-0.2-1.8-0.7l0,0l-0.8-0.7c-1-1-1.1-2.6-0.1-3.7l8.9-9.9c0,0,0,0,0,0
			c0.5-0.5,1.1-0.8,1.8-0.8c0.3,0,0.6,0,0.8,0.1l2.2-2.4c-2.6-3-4.1-6.7-4.2-10.7c-0.2-4.6,1.5-8.9,4.6-12.2
			c3.1-3.3,7.3-5.2,11.9-5.4c4.6-0.2,8.9,1.5,12.2,4.6c6.9,6.4,7.2,17.2,0.8,24.1v0c-6,6.4-15.9,7.2-22.8,1.9l-2.2,2.4
			c0.3,0.9,0.2,1.9-0.5,2.7l-8.9,9.9c0,0,0,0,0,0C537.5,85.5,536.8,85.8,536,85.9C536.1,85.9,536.1,85.9,536,85.9z M535.1,84.2
			c0.3,0.2,0.6,0.4,1,0.4c0.4,0,0.7-0.2,0.9-0.4l8.9-9.9c0,0,0,0,0,0c0.3-0.4,0.4-0.9,0.3-1.3c0,0-0.1,0-0.1-0.1l-1.6-1.5
			c0,0,0-0.1-0.1-0.1c-0.1,0-0.2,0-0.4,0c-0.4,0-0.7,0.2-0.9,0.4l-8.9,9.9c0,0,0,0,0,0c-0.5,0.5-0.5,1.4,0.1,1.9L535.1,84.2z
			 M559.9,40.7c-0.2,0-0.4,0-0.5,0c-4.2,0.1-8.1,1.9-11,5c-2.9,3.1-4.4,7.1-4.2,11.3c0.1,4.2,1.9,8.1,5,11
			c6.4,5.9,16.4,5.6,22.3-0.7c5.9-6.4,5.6-16.4-0.7-22.3C567.8,42.2,563.9,40.7,559.9,40.7z M546,70.8l0.6,0.6l1.9-2l-0.6-0.6
			L546,70.8z M559.9,70.5c-3.4,0-6.9-1.2-9.6-3.8c-2.7-2.6-4.3-6-4.4-9.8c-0.1-3.7,1.2-7.3,3.8-10c2.6-2.7,6-4.3,9.8-4.4
			c3.7-0.1,7.3,1.2,10,3.8c2.7,2.6,4.3,6,4.4,9.8c0.1,3.7-1.2,7.3-3.8,10v0C567.4,69,563.7,70.5,559.9,70.5z M559.9,43.8
			c-0.1,0-0.3,0-0.4,0c-3.4,0.1-6.5,1.5-8.9,4c-2.3,2.5-3.5,5.7-3.4,9.1c0.1,3.4,1.5,6.5,4,8.9c5.1,4.8,13.2,4.5,18-0.6l0,0
			c2.3-2.5,3.5-5.7,3.4-9.1c-0.1-3.4-1.5-6.5-4-8.9C566.2,45,563.2,43.8,559.9,43.8z M562.8,64.7c-1.2,0-2.3-0.5-3.1-1.3
			c-1.1,0.7-2.4,1-3.7,1c-3.9,0-7.1-3.2-7.1-7.1c0-3.7,2.8-6.8,6.5-7.1c1-1.9,2.9-3.1,5.1-3.1c2,0,3.8,1,4.9,2.7
			c3,0.3,5.3,2.9,5.3,5.9c0,2.4-1.4,4.6-3.6,5.5C566.6,63.2,564.9,64.7,562.8,64.7z M559.8,61.9c0,0,0.1,0,0.1,0
			c0.2,0,0.3,0.1,0.4,0.3c0.6,0.8,1.5,1.3,2.5,1.3c1.6,0,2.9-1.2,3-2.7c0-0.2,0.2-0.5,0.4-0.5c1.9-0.7,3.2-2.4,3.2-4.4
			c0-2.5-2-4.6-4.5-4.7c-0.2,0-0.4-0.1-0.5-0.3c-0.8-1.5-2.3-2.4-3.9-2.4c-1.8,0-3.4,1-4.1,2.7c-0.1,0.2-0.3,0.4-0.6,0.4
			c-3.2,0.1-5.7,2.7-5.7,5.8c0,3.2,2.6,5.9,5.9,5.9c1.2,0,2.4-0.4,3.4-1.1C559.5,61.9,559.7,61.9,559.8,61.9z M558.2,59.1
			c-2.1,0-3.8-1.7-3.8-3.8c0-2.1,1.7-3.8,3.8-3.8c2.1,0,3.8,1.7,3.8,3.8C562,57.4,560.3,59.1,558.2,59.1z M558.2,52.8
			c-1.4,0-2.5,1.1-2.5,2.5c0,1.4,1.1,2.5,2.5,2.5c1.4,0,2.5-1.1,2.5-2.5C560.7,53.9,559.6,52.8,558.2,52.8z M557.1,55.6
			c-0.1,0-0.2,0-0.3-0.1c-0.3-0.1-0.5-0.5-0.3-0.8c0.4-0.9,1.2-1.2,1.3-1.3c0.3-0.1,0.7,0,0.8,0.3c0.1,0.3,0,0.7-0.3,0.8
			c0,0-0.4,0.2-0.6,0.6C557.6,55.5,557.3,55.6,557.1,55.6z"/>
		<path fill="#CB226B" d="M165.1,163.9h-15.9c-1.2,0-2.2-1-2.2-2.2v-36.1c0-1.1,0.8-2,1.8-2.2l4.5-2.6c0-0.1-0.1-0.2-0.1-0.3v-5.1
			c0-0.4,0.3-0.7,0.7-0.7h6.7c0.4,0,0.7,0.3,0.7,0.7v5.1c0,0.1,0,0.2,0,0.3l4.3,2.6c1,0.2,1.8,1.1,1.8,2.2v36.1
			C167.4,162.9,166.4,163.9,165.1,163.9z M148.3,154.8v6.9c0,0.5,0.4,0.9,0.9,0.9h15.9c0.5,0,0.9-0.4,0.9-0.9v-6.9H148.3z
			 M148.3,153.5H166v-1.7h-17.7V153.5L148.3,153.5z M148.3,150.4H166v-1.7h-17.7V150.4L148.3,150.4z M148.3,147.4H166v-1.7h-17.7
			V147.4L148.3,147.4z M148.3,144.3H166v-1.7h-17.7V144.3L148.3,144.3z M148.3,141.3H166v-1.7h-17.7V141.3L148.3,141.3z
			 M148.3,138.2H166v-1.7h-17.7V138.2L148.3,138.2z M148.3,135.2H166v-9.5h-17.7V135.2L148.3,135.2z M149.7,124.4h15l-5.3-3.2h-4.2
			L149.7,124.4z M159.6,119.8h0.4v-3.7h-5.4v3.7H159.6z"/>
		<path fill="#CB226B" d="M252.5,313.1C252.5,313.1,252.5,313.1,252.5,313.1c-0.2,0-2-0.4-3.8-1.4c-1.8-1-2.9-2.2-2.9-2.3
			c-0.1-0.1-0.2-0.3-0.1-0.5l0.6-1.6c0,0,0,0,0,0c-1-0.9-2.4-2.6-3.9-5.7c-1.3-2.9-1.9-5.4-1.6-7.6v0c0-0.1,0-0.3,0.1-0.5
			c0-0.3,0.1-0.7,0.1-0.9c0-0.2,0.1-0.4,0.1-0.7c0.3-2,0.9-5.6,4.1-9.4c2.6-3.2,4.2-4.1,5.7-4.8c0.8-0.4,1.5-0.8,2.4-1.6
			c2-2,2.3-3.1,2.3-3.2c0-0.2,0.1-0.3,0.2-0.4c0.1-0.1,0.3-0.1,0.4-0.1c0.4,0.1,2.1,0.6,2.5,1.6c0.2,0.5,0.1,0.9,0.1,1.2
			c0,0.1,0,0.2,0,0.2c0,0,0,0,0,0c0.1,0,0.2,0,0.3,0c0.4,0,1.2,0,1.6,1.2c0.3,0.8,0.1,1.5-0.1,2c1,0.1,3.1,0.4,5,1.1
			c1.3,0.5,2.4,1.2,3.2,1.7c0.4,0.3,0.7,0.5,0.9,0.7c0,0,0.1,0,0.1,0.1c0.3-0.4,0.6-0.6,0.8-0.8c0.3-0.2,0.4-0.3,0.5-0.6
			c0.6-1.1,2.2-1.1,2.5-1c0.2,0,0.3,0.1,0.4,0.3c0.1,0.3,0,0.5-0.1,0.8c-0.2,0.5-0.7,1.6-0.5,3.1c0.1,1.4,0.8,2.8,1.3,4
			c0.3,0.8,0.7,1.6,0.8,2.2c0.5,2.1,1.6,6.4-0.2,11c-0.9,2.2-2.2,4.3-3.7,6c0,0-0.1,0.1-0.1,0.1c-0.4,0.4-0.8,0.8-1.2,1.2
			c-2.8,2.6-6.1,3.8-9.8,3.5c-2.1-0.1-4.3-0.5-6.4-1.1c-0.1,0-0.1,0-0.2-0.1l-1.2,2C252.9,313,252.7,313.1,252.5,313.1z M246.8,309
			c0.4,0.4,1.2,1.2,2.4,1.8c1.2,0.7,2.4,1,3,1.2l0.8-1.4c-0.7-0.2-1.6-0.5-2.3-0.7c-1.8-0.7-3.4-1.7-3.4-1.7c0,0-0.1,0-0.1-0.1
			c0,0-0.1,0-0.1-0.1L246.8,309z M254.1,307.4c-0.4,0.3-0.6,0.8-0.6,1.2c0,0.5,0.3,1.1,1,1.3c2,0.5,4.1,0.9,6.2,1c0.6,0,1.2,0,1.8,0
			c0.2-0.3,0.9-1.6,1.3-3.3c-0.2-0.2-1-1.1-1.4-2c-0.4-0.9-0.6-1.3-0.6-1.4c-0.1-0.3,0-0.6,0.3-0.7c0.3-0.1,0.6,0,0.7,0.3
			c0,0,0.2,0.4,0.6,1.3c0.2,0.4,0.4,0.8,0.7,1.1c0.3-2.1,0.3-2.8,0.3-2.8c0-0.3,0.1-0.5,0.4-0.6c0.3,0,0.6,0.2,0.6,0.4
			c0,0.1,0.1,0.9-0.3,3.6c-0.3,1.7-0.8,3-1.2,3.8c2.8-0.6,5.2-2.1,7-4.1c0-0.4,0.1-1.7-0.6-3.3c-0.8-2.1-1.3-3.1-1.3-3.1
			c-0.1-0.3,0-0.6,0.3-0.7c0.3-0.1,0.6,0,0.7,0.3c0,0,0.4,1,1.3,3.1c0.4,0.9,0.5,1.8,0.6,2.4c1.1-1.5,2-3.1,2.6-4.7
			c0.3-0.8,0.5-1.7,0.7-2.5c-0.3-0.3-0.9-1.2-1.4-2.8c-0.5-1.9-0.8-3-0.8-3c-0.1-0.3,0.1-0.6,0.3-0.6c0.3-0.1,0.6,0.1,0.6,0.3
			c0,0,0.3,1.1,0.8,3c0.2,0.6,0.4,1.1,0.5,1.5c0.2-2.7-0.4-5-0.7-6.3c-0.1-0.6-0.4-1.3-0.8-2c-0.6-1.3-1.2-2.8-1.4-4.4
			c-0.2-1.5,0.2-2.6,0.4-3.3c-0.3,0.1-0.6,0.2-0.8,0.4c-0.3,0.5-0.5,0.7-0.8,1c-0.3,0.2-0.6,0.5-1.1,1.1c-0.4,0.6-0.3,1,0,1.8
			c0.2,0.5,0.5,1.1,0.4,1.8c-0.2,1.2-1,1.2-1.5,1.3c-0.2,0-0.4,0-0.5,0.1c0.1,0.2,0.3,0.5,0.5,0.7c0.5,0.7,1.3,1.6,1.5,2.8
			c0.1,0.7,0.1,1.1-0.2,1.5c-0.3,0.4-0.7,0.4-1,0.5c-0.4,0-0.4,0.1-0.4,0.2c-0.2,0.7-0.1,1.3,0,2.1c0.1,0.3,0.1,0.7,0.2,1.2
			c0.1,0.7-0.1,1.3-0.5,1.8c-0.6,0.7-1.7,1-3.5,0.9c-1.4,0-2.6,0.3-3.3,0.6c-0.3,0.1-0.5,0.3-0.7,0.7c-1.4,2.9-3.3,5-5.6,5.9
			C255.1,307.1,254.6,307.3,254.1,307.4z M249.6,308.1c0.5,0.2,1,0.5,1.6,0.7c0.4,0.1,0.9,0.3,1.4,0.5c-0.1-0.2-0.1-0.4-0.1-0.7
			c0-0.3,0-0.6,0.1-0.9C251.5,307.9,250.5,308.1,249.6,308.1z M244.3,302.7c1.7,3.1,3.3,4.2,3.6,4.4c0.6,0,3.4-0.1,5.8-0.7
			c0.1-0.1,0.3-0.2,0.4-0.2c0.7-0.3,1.4-0.6,2-0.9c2.1-1.3,3.1-3,3.8-4.2c0.1-0.2,0.2-0.4,0.3-0.5c0,0,0.1-0.1,0.1-0.1
			c0.4-0.9,0.8-1.8,1.1-2.8c1.2-3.9,0.5-5.3,0.2-6l0-0.1c-0.1-0.2-0.3-0.5-0.5-0.8c-0.6-0.8-1.5-2-1.5-3.1c0-1.1,0.9-1.5,1.7-1.9
			c0.6-0.3,1.2-0.6,1.5-1c0.7-1-0.5-2.6-1.2-3.3c-0.3-0.3-0.6-0.5-0.9-0.6c-0.5-0.3-1.1-0.6-1.2-1.4c-0.1-0.5,0.1-0.9,0.3-1.3
			c0.2-0.5,0.4-0.8,0.2-1.4c-0.2-0.5-0.3-0.5-0.7-0.5c-0.2,0-0.6,0-0.9-0.2c-0.6-0.4-0.5-0.9-0.5-1.2c0-0.2,0-0.4-0.1-0.7
			c-0.1-0.3-0.7-0.6-1.3-0.8c-0.3,0.6-0.9,1.7-2.4,3.3c-0.9,0.9-1.8,1.4-2.6,1.8c-1.3,0.7-2.8,1.5-5.3,4.5c-2.9,3.6-3.5,6.9-3.8,8.9
			c0,0.3-0.1,0.5-0.1,0.7c0,0.2-0.1,0.5-0.1,0.8c0,0.2,0,0.4-0.1,0.5c-0.2,1.7,0.1,3.6,1,5.8c-0.1-2.1,0.1-5,1.3-8.1
			c2.1-5.8,8.6-10.9,8.9-11.1c0.2-0.2,0.6-0.1,0.7,0.1c0.2,0.2,0.1,0.6-0.1,0.7c-0.1,0-5.7,4.6-8.1,9.7c0.9-0.1,2.5-0.2,3.5-0.9
			c0.4-0.3,0.8-0.6,1.2-0.8c0.8-0.6,1.4-1,2.2-1.3c0.3-0.1,0.6,0,0.7,0.3c0.1,0.3,0,0.6-0.3,0.7c-0.6,0.3-1.1,0.6-1.7,1l0.8,0.3
			c0.3,0.1,0.4,0.4,0.3,0.7c-0.1,0.3-0.4,0.4-0.7,0.3l-1.4-0.6c-0.1,0.1-0.3,0.2-0.5,0.3c-1.4,0.9-3.9,1.1-4.5,1.1
			c-0.6,1.7-0.9,3.3-1.1,4.7c0.8-0.9,2.1-2,3.2-1.8c0.8,0.1,1.6,0.5,2.3,0.9c0.8,0.4,1.5,0.8,2.2,0.8c0.3,0,0.5,0.2,0.5,0.5
			c0,0.3-0.2,0.5-0.5,0.5c-1,0-1.9-0.5-2.8-0.9c-0.2-0.1-0.5-0.3-0.7-0.4c0,0.6,0.1,1.4,0.4,2.1c0.4,1,1.5,2.3,1.5,2.3
			c0.2,0.2,0.2,0.5-0.1,0.7c-0.2,0.2-0.5,0.2-0.7-0.1c0-0.1-1.2-1.4-1.7-2.7c-0.4-1-0.4-2.3-0.4-2.8c-0.1,0-0.1,0-0.2,0
			c-1-0.1-2.6,1.7-3.2,2.5c0,0,0,0,0,0.1C243.9,301,244.2,302.6,244.3,302.7z M260.3,279.4c0,0.2,0.2,0.3,0.6,0.6
			c0.3,0.2,0.7,0.4,1.1,0.8c1.3,1.2,2.4,3.1,1.4,4.6c-0.5,0.7-1.2,1-1.9,1.4c-0.8,0.4-1.1,0.6-1.1,1c0,0.7,0.7,1.7,1.3,2.4
			c0.3,0.4,0.5,0.7,0.7,1l0,0.1c0.4,0.8,1.2,2.4-0.1,6.8c-0.1,0.4-0.3,0.8-0.4,1.2c0.8-0.3,2-0.5,3.3-0.5c1.4,0,2.3-0.2,2.7-0.6
			c0.1-0.1,0.3-0.4,0.2-1c0-0.4-0.1-0.8-0.1-1.1c-0.1-0.8-0.2-1.6,0-2.5c0.2-0.8,0.9-0.9,1.3-1c0.1,0,0.3,0,0.3-0.1
			c0,0,0.1-0.2,0-0.6c-0.2-0.9-0.8-1.7-1.3-2.4c-0.5-0.6-0.8-1.1-0.8-1.6c0-0.2,0.1-0.4,0.4-0.6c0.4-0.3,0.9-0.3,1.2-0.3
			c0.4,0,0.5,0,0.5-0.4c0.1-0.4-0.1-0.8-0.3-1.2c-0.3-0.7-0.6-1.6-0.1-2.5c-0.5-0.4-2.1-1.6-3.9-2.3
			C263.4,279.8,261.1,279.5,260.3,279.4z M269.3,282.4l0.1,0.1L269.3,282.4z"/>
		<g>
			<path fill="#CB226B" d="M467.3,52.2c0.1,0,0.2,0,0.3-0.1c0.2-0.2,0.2-0.4,0-0.6c-0.5-0.5-0.7-1.1-0.7-1.8s0.3-1.3,0.7-1.8
				l3.5-3.5c0.2-0.2,0.2-0.4,0-0.6c-0.2-0.2-0.4-0.2-0.6,0l-3.5,3.5c-0.6,0.6-1,1.5-1,2.4c0,0.9,0.4,1.8,1,2.4
				C467,52.1,467.1,52.2,467.3,52.2z"/>
			<path fill="#CB226B" d="M443.8,73.1c-0.2,0.2-0.2,0.4,0,0.6c0.5,0.5,0.7,1.1,0.7,1.8s-0.3,1.3-0.7,1.8l-3.5,3.5
				c-0.2,0.2-0.2,0.4,0,0.6c0.1,0.1,0.2,0.1,0.3,0.1s0.2,0,0.3-0.1l3.5-3.5c0.6-0.6,1-1.5,1-2.4c0-0.9-0.4-1.8-1-2.4
				C444.3,72.9,444,72.9,443.8,73.1z"/>
			<path fill="#CB226B" d="M448.7,71.4c0.1,0,0.1,0,0.2,0c0.2,0,0.5,0,0.7,0c1.4,0,2.1,0.3,2.9,0.6c0.8,0.3,1.6,0.7,3.2,0.7
				c1.6,0,2.4-0.3,3.2-0.7c0.7-0.3,1.4-0.6,2.9-0.6c1.4,0,2.1,0.3,2.9,0.6c0.8,0.3,1.6,0.7,3.2,0.7c1.6,0,2.4-0.3,3.2-0.7
				c0.7-0.3,1.4-0.6,2.9-0.6c1.4,0,2.1,0.3,2.9,0.6c0.8,0.3,1.6,0.7,3.2,0.7c0.2,0,0.4-0.2,0.4-0.4c0-0.2-0.2-0.4-0.4-0.4
				c-1.4,0-2.1-0.3-2.9-0.6c-0.8-0.3-1.6-0.7-3.2-0.7c-1.6,0-2.4,0.3-3.2,0.7c-0.7,0.3-1.4,0.6-2.9,0.6c-1.4,0-2.1-0.3-2.9-0.6
				c-0.8-0.3-1.6-0.7-3.2-0.7s-2.4,0.3-3.2,0.7c-0.7,0.3-1.4,0.6-2.9,0.6c-1.4,0-2.1-0.3-2.9-0.6c-0.8-0.3-1.6-0.7-3.2-0.7h0
				l1.1-1.1c1.6,0.1,3.2,0.2,4.7,0.2c5.3,0,10.5-0.7,14.9-1.9c4.3-1.2,7.8-3,10-5c0.1-0.1,0.2-0.3,0.1-0.5c-0.1-0.2-0.2-0.3-0.4-0.3
				h-21.8l8.3-8.3c0.7,0.4,1.4,0.5,2.1,0.5c1.2,0,2.3-0.5,3.2-1.3l4.8-4.8c0.2-0.2,0.2-0.4,0-0.6l-5.7-5.7c-0.2-0.2-0.4-0.2-0.6,0
				l-4.8,4.8c-0.8,0.8-1.3,2-1.3,3.2c0,0.8,0.2,1.5,0.5,2.1l-10,10h-23.8c-0.2,0-0.3,0.1-0.4,0.3c-0.1,0.2,0,0.4,0.1,0.5
				c3.3,3.1,9.4,5.5,16.9,6.4l-2.6,2.6c0,0,0,0,0,0c-0.7-0.4-1.4-0.5-2.1-0.5c-0.5,0-1.1,0.1-1.6,0.3c-0.2-0.1-0.3-0.1-0.5-0.2
				c-0.8-0.3-1.6-0.7-3.2-0.7s-2.4,0.3-3.2,0.7c-0.7,0.3-1.4,0.6-2.9,0.6c-0.2,0-0.4,0.2-0.4,0.4s0.2,0.4,0.4,0.4
				c1.6,0,2.4-0.3,3.2-0.7c0.7-0.3,1.4-0.6,2.9-0.6c1.3,0,2,0.3,2.7,0.6c-0.2,0.1-0.4,0.3-0.6,0.5L436,76c-0.1,0-0.2,0-0.2,0
				c-0.8,0.1-1.3,0.4-1.8,0.6c-0.7,0.3-1.3,0.6-2.7,0.6c-0.2,0-0.4,0.2-0.4,0.4c0,0.2,0.2,0.4,0.4,0.4c1.6,0,2.4-0.3,3.1-0.7
				c0.2-0.1,0.4-0.2,0.6-0.2l0,0c-0.2,0.2-0.2,0.4,0,0.6l5.7,5.7c0.1,0.1,0.2,0.1,0.3,0.1c0.1,0,0.2,0,0.3-0.1l4.8-4.8
				c0.4-0.4,0.7-0.8,0.9-1.2c0.7-0.3,1.4-0.6,2.8-0.6c1.4,0,2.1,0.3,2.9,0.6c0.8,0.3,1.6,0.7,3.2,0.7c1.6,0,2.4-0.3,3.2-0.7
				c0.7-0.3,1.4-0.6,2.9-0.6c1.4,0,2.1,0.3,2.9,0.6c0.8,0.3,1.6,0.7,3.2,0.7c1.6,0,2.4-0.3,3.2-0.7c0.7-0.3,1.4-0.6,2.9-0.6
				c1.4,0,2.1,0.3,2.9,0.6c0.8,0.3,1.6,0.7,3.2,0.7c0.2,0,0.4-0.2,0.4-0.4c0-0.2-0.2-0.4-0.4-0.4c-1.4,0-2.1-0.3-2.9-0.6
				c-0.8-0.3-1.6-0.7-3.2-0.7c-1.6,0-2.4,0.3-3.2,0.7c-0.7,0.3-1.4,0.6-2.9,0.6c-1.4,0-2.1-0.3-2.9-0.6c-0.8-0.3-1.6-0.7-3.2-0.7
				s-2.4,0.3-3.2,0.7c-0.7,0.3-1.4,0.6-2.9,0.6c-1.4,0-2.1-0.3-2.9-0.6c-0.8-0.3-1.6-0.7-3.2-0.7c-1.1,0-1.9,0.2-2.5,0.4
				c0.1-0.3,0.1-0.6,0.1-0.8c0-0.8-0.2-1.5-0.5-2.1l0,0L448.7,71.4z M478.8,62.8c-4.6,3.7-13.6,6-23.4,6c-1.3,0-2.6,0-3.9-0.1
				l1.9-1.9l4-4L478.8,62.8L478.8,62.8z M466,47.2l4.4-4.4l5.1,5.1l-4.4,4.4c-0.7,0.7-1.6,1.1-2.6,1.1s-1.9-0.4-2.6-1.1
				c-0.7-0.7-1.1-1.6-1.1-2.6S465.3,47.9,466,47.2z M432,62.8h21.8l-0.8,0.8c-0.1,0-0.1-0.1-0.2-0.1h-10.5c-0.2,0-0.4,0.2-0.4,0.4
				s0.2,0.4,0.4,0.4h9.9l-3.9,3.9C441.2,67.5,435.4,65.5,432,62.8z M445.3,78.1l-4.4,4.4l-5.1-5.1l4.4-4.4c0.7-0.7,1.6-1.1,2.6-1.1
				s1.9,0.4,2.6,1.1c0.7,0.7,1.1,1.6,1.1,2.6C446.3,76.5,445.9,77.5,445.3,78.1z M446.1,72.7c-0.1-0.1-0.2-0.2-0.3-0.3
				c-0.1-0.1-0.2-0.2-0.3-0.3l19.6-19.6c0.1,0.1,0.2,0.2,0.3,0.3c0.1,0.1,0.2,0.2,0.3,0.3L446.1,72.7z"/>
			<path fill="#CB226B" d="M457.8,64.4h13.5c0.2,0,0.4-0.2,0.4-0.4s-0.2-0.4-0.4-0.4h-13.5c-0.2,0-0.4,0.2-0.4,0.4
				S457.5,64.4,457.8,64.4z"/>
			<path fill="#CB226B" d="M439.5,63.5h-3.5c-0.2,0-0.4,0.2-0.4,0.4s0.2,0.4,0.4,0.4h3.5c0.2,0,0.4-0.2,0.4-0.4
				S439.8,63.5,439.5,63.5z"/>
		</g>
		<g>
			<path fill="#CB226B" d="M581.1,115l-2-2c-1.8-1.8-4.2-2.8-6.7-2.8c-2.5,0-4.9,1-6.7,2.8l-37.3,37.3c-1.8,1.8-2.8,4.2-2.8,6.7
				c0,2.5,1,4.9,2.8,6.7l2,2c1.8,1.8,4.2,2.8,6.7,2.8c2.5,0,4.9-1,6.7-2.8l37.3-37.3c1.8-1.8,2.8-4.2,2.8-6.7
				C583.9,119.2,582.9,116.8,581.1,115z M580.4,127.6l-37.3,37.3c-0.3,0.3-0.6,0.5-0.9,0.8l-8.6-8.6c-0.2-0.2-0.5-0.2-0.7,0
				c-0.2,0.2-0.2,0.5,0,0.7l8.5,8.5c-1.3,0.7-2.7,1.1-4.2,1.1c-2.3,0-4.4-0.9-6-2.5l-2-2c-1.6-1.6-2.5-3.7-2.5-6
				c0-2.3,0.9-4.4,2.5-6l37.3-37.3c0.2-0.2,0.4-0.4,0.6-0.6l8.7,8.7c0.1,0.1,0.2,0.1,0.4,0.1c0.1,0,0.3,0,0.4-0.1
				c0.2-0.2,0.2-0.5,0-0.7l-8.6-8.6c1.3-0.8,2.9-1.3,4.5-1.3c2.3,0,4.4,0.9,6,2.5l2,2c1.6,1.6,2.5,3.7,2.5,6
				C582.9,123.9,582,126,580.4,127.6z"/>
			<path fill="#CB226B" d="M573.5,126.7c-0.5,0-0.9,0.2-1.2,0.5l-0.2,0.2l-5.3-5.3l0.2-0.2c0.7-0.7,0.7-1.8,0-2.5
				c-0.3-0.3-0.8-0.5-1.2-0.5s-0.9,0.2-1.2,0.5l-2.7,2.7c-0.7,0.7-0.7,1.8,0,2.5c0.3,0.3,0.8,0.5,1.2,0.5s0.9-0.2,1.2-0.5l0.2-0.2
				l5.3,5.3l-0.2,0.2c-0.7,0.7-0.7,1.8,0,2.5c0.3,0.3,0.8,0.5,1.2,0.5c0.5,0,0.9-0.2,1.2-0.5l2.7-2.7c0.3-0.3,0.5-0.8,0.5-1.2
				c0-0.5-0.2-0.9-0.5-1.2C574.4,126.9,573.9,126.7,573.5,126.7z M563,124.1c-0.2,0-0.4-0.1-0.5-0.2c-0.3-0.3-0.3-0.7,0-1l2.7-2.7
				c0.1-0.1,0.3-0.2,0.5-0.2c0.2,0,0.4,0.1,0.5,0.2c0.3,0.3,0.3,0.7,0,1l-0.6,0.6l0,0c0,0,0,0,0,0l-2.1,2.1
				C563.4,124,563.2,124.1,563,124.1z M565.2,123.7l0.8-0.8l5.3,5.3l-0.8,0.8L565.2,123.7z M574,128.9l-2.7,2.7
				c-0.1,0.1-0.3,0.2-0.5,0.2s-0.4-0.1-0.5-0.2c-0.3-0.3-0.3-0.7,0-1l0.6-0.6l0,0l0,0l1.5-1.5l0,0c0,0,0,0,0,0l0.6-0.6
				c0.1-0.1,0.3-0.2,0.5-0.2c0.2,0,0.4,0.1,0.5,0.2c0.1,0.1,0.2,0.3,0.2,0.5S574.1,128.8,574,128.9z"/>
			<path fill="#CB226B" d="M546.6,153.5c-0.5,0-0.9,0.2-1.2,0.5l-0.2,0.2l-5.3-5.3l0.2-0.2c0.3-0.3,0.5-0.8,0.5-1.2
				c0-0.5-0.2-0.9-0.5-1.2c-0.3-0.3-0.8-0.5-1.2-0.5c-0.5,0-0.9,0.2-1.2,0.5l-2.7,2.7c-0.3,0.3-0.5,0.8-0.5,1.2
				c0,0.5,0.2,0.9,0.5,1.2c0.3,0.3,0.8,0.5,1.2,0.5s0.9-0.2,1.2-0.5l0.2-0.2l5.3,5.3l-0.2,0.2c-0.7,0.7-0.7,1.8,0,2.5
				c0.3,0.3,0.8,0.5,1.2,0.5c0.5,0,0.9-0.2,1.2-0.5l2.7-2.7c0.7-0.7,0.7-1.8,0-2.5C547.5,153.7,547.1,153.5,546.6,153.5z M536.2,151
				c-0.2,0-0.4-0.1-0.5-0.2c-0.1-0.1-0.2-0.3-0.2-0.5c0-0.2,0.1-0.4,0.2-0.5l2.7-2.7c0.1-0.1,0.3-0.2,0.5-0.2c0.2,0,0.4,0.1,0.5,0.2
				c0.1,0.1,0.2,0.3,0.2,0.5s-0.1,0.4-0.2,0.5l-2.1,2.1l0,0l0,0l-0.6,0.6C536.5,150.9,536.3,151,536.2,151z M538.3,150.5l0.8-0.8
				l5.3,5.3l-0.8,0.8L538.3,150.5z M547.1,155.8l-2.7,2.7c-0.1,0.1-0.3,0.2-0.5,0.2c-0.2,0-0.4-0.1-0.5-0.2c-0.3-0.3-0.3-0.7,0-1
				l0.6-0.6l0,0l0,0l2.1-2.1c0.1-0.1,0.3-0.2,0.5-0.2s0.4,0.1,0.5,0.2C547.4,155.1,547.4,155.5,547.1,155.8z"/>
			<path fill="#CB226B" d="M563.1,130.9c-0.2-0.2-0.5-0.2-0.7,0c-0.2,0.2-0.2,0.5,0,0.7l6.2,6.2c0.1,0.1,0.2,0.1,0.4,0.1
				c0.1,0,0.3,0,0.4-0.1c0.2-0.2,0.2-0.5,0-0.7L563.1,130.9z"/>
			<path fill="#CB226B" d="M545.7,148.6c0.1,0.1,0.2,0.1,0.4,0.1c0.1,0,0.3,0,0.4-0.1c0.2-0.2,0.2-0.5,0-0.7l-6.2-6.2
				c-0.2-0.2-0.5-0.2-0.7,0c-0.2,0.2-0.2,0.5,0,0.7L545.7,148.6z"/>
		</g>
		<g>
			<path fill="#CB226B" d="M356,45.3c-9.6,0-17.4,7.8-17.4,17.4c0,9.6,7.8,17.4,17.4,17.4c9.6,0,17.4-7.8,17.4-17.4
				C373.4,53.1,365.6,45.3,356,45.3z M356,78.7c-8.8,0-16-7.2-16-16s7.2-16,16-16c8.8,0,16,7.2,16,16C372,71.5,364.8,78.7,356,78.7z
				"/>
			<path fill="#CB226B" d="M366.3,52.2c-2.5-2.5-6.4-4.3-10.3-4.3c-3.9,0-7.5,1.5-10.3,4.3c-2.7,2.7-4.3,6.4-4.3,10.3
				c0,3.9,1.5,7.5,4.3,10.3c2.7,2.7,6.4,4.3,10.3,4.3c3.9,0,7.5-1.5,10.3-4.3c2.7-2.7,4.3-6.4,4.3-10.3
				C370.5,60.1,370.3,56.2,366.3,52.2z M365.3,71.8c-2.5,2.5-5.8,3.9-9.3,3.9c-3.5,0-6.8-1.4-9.3-3.9c-2.5-2.5-3.9-5.8-3.9-9.3
				c0-3.5,1.4-6.8,3.9-9.3c2.5-2.5,5.8-3.9,9.3-3.9c3.5,0,7.4,1.8,9.3,3.8c2.4,2.6,3.9,5.5,3.9,9.3C369.2,66,367.8,69.3,365.3,71.8z
				"/>
			<path fill="#CB226B" d="M353.9,63.5c-0.1-0.3-0.5-0.5-0.9-0.5h-7.8c-0.3,0-0.7,0.1-0.9,0.4c-0.2,0.2-0.3,0.6-0.3,0.9
				c0.3,2.1,1.1,4,2.4,5.7c0.2,0.3,0.5,0.4,0.9,0.4c0.3,0,0.6-0.1,0.8-0.3l5.5-5.5C354,64.2,354,63.8,353.9,63.5z M347.3,68.9
				c-1-1.3-1.6-2.9-1.9-4.6h6.4L347.3,68.9z"/>
			<path fill="#CB226B" d="M345.2,62.2h7.8c0.6,0,0.8-0.4,0.9-0.5c0.1-0.1,0.2-0.6-0.3-1l-5.5-5.5c-0.2-0.2-0.5-0.3-0.8-0.3
				c-0.4,0-0.7,0.2-0.9,0.4c-1.3,1.7-2.1,3.6-2.4,5.7c0,0.3,0.1,0.6,0.3,0.9C344.5,62.1,344.8,62.2,345.2,62.2z M347.3,56.3l4.6,4.5
				h-6.4C345.7,59.2,346.3,57.7,347.3,56.3z"/>
			<path fill="#CB226B" d="M354.1,60.2c0.3,0.3,0.5,0.3,0.7,0.3c0.4,0,0.8-0.3,0.8-1v-7.8c0-0.6-0.3-1.3-1.3-1.1
				c-2.1,0.3-4,1.1-5.7,2.4c-0.3,0.2-0.4,0.5-0.4,0.8c0,0.3,0.1,0.7,0.3,0.9L354.1,60.2z M354.3,52v6.5l-4.6-4.6
				C351.1,52.9,352.7,52.3,354.3,52z"/>
			<path fill="#CB226B" d="M354.8,64.7c-0.2,0-0.4,0.1-0.7,0.3l-5.6,5.5c-0.2,0.2-0.4,0.6-0.3,0.9c0,0.3,0.2,0.6,0.4,0.8
				c1.7,1.3,3.6,2.1,5.7,2.4c0.1,0,0.2,0,0.2,0c0.2,0,0.8-0.1,1-0.8c0.1-0.5,0.1-8.2,0.1-8.2C355.7,65,355.3,64.7,354.8,64.7z
				 M354.3,73.2c-1.6-0.3-3.2-0.9-4.6-1.9l4.6-4.6V73.2z"/>
			<path fill="#CB226B" d="M366.9,63H359c-0.4,0-0.8,0.2-0.9,0.5c-0.1,0.3,0,0.7,0.3,1L364,70c0.2,0.2,0.5,0.3,0.8,0.3
				c0.4,0,0.7-0.2,0.9-0.4c1.3-1.7,2.1-3.6,2.4-5.7c0-0.3-0.1-0.7-0.3-0.9C367.5,63.1,367.2,63,366.9,63z M364.7,68.9l-4.6-4.6h6.4
				C366.4,66,365.7,67.5,364.7,68.9z"/>
			<path fill="#CB226B" d="M358.2,61.7c0.1,0.1,0.3,0.5,0.9,0.5h7.8c0.3,0,0.7-0.1,0.9-0.4c0.2-0.2,0.3-0.6,0.3-0.9
				c-0.3-2.1-1.1-4-2.4-5.7c-0.2-0.3-0.5-0.4-0.9-0.4c-0.3,0-0.6,0.1-0.8,0.3l-5.5,5.5C358,61.2,358.1,61.6,358.2,61.7z M364.7,56.3
				c1,1.3,1.6,2.9,1.9,4.5h-6.4L364.7,56.3z"/>
			<path fill="#CB226B" d="M357.2,60.6c0.2,0,0.4-0.1,0.7-0.3l5.6-5.5c0.2-0.2,0.4-0.6,0.3-0.9c0-0.3-0.2-0.6-0.4-0.8
				c-1.7-1.3-3.6-2.1-5.7-2.4c-1-0.1-1.3,0.5-1.3,1.1v7.8C356.4,60.2,356.8,60.6,357.2,60.6z M357.7,52c1.7,0.3,3.2,0.9,4.6,1.9
				l-4.6,4.6V52z"/>
			<path fill="#CB226B" d="M357.9,65c-0.3-0.3-0.5-0.3-0.7-0.3c-0.4,0-0.8,0.3-0.8,1c0,0-0.1,7.7,0.1,8.2c0.2,0.7,0.8,0.8,1,0.8
				c0.1,0,0.1,0,0.2,0c2.1-0.3,4-1.1,5.7-2.4c0.3-0.2,0.4-0.5,0.4-0.8c0-0.3-0.1-0.7-0.3-0.9L357.9,65z M357.7,73.2v-6.5l4.6,4.6
				C361,72.3,359.4,72.9,357.7,73.2z"/>
		</g>
		<path fill="#CB226B" d="M59.9,155.4H42.4c-0.1,0-0.3-0.1-0.4-0.2c-0.1-0.1-0.1-0.2-0.1-0.4l0.9-19.8c0-0.1,0-0.2,0.1-0.3l2.8-3.8
			c0.1-0.1,0.2-0.2,0.4-0.2H50c0.2-0.8,0.5-1.7,1-2.7c1.2-2.3,3.8-5,9.2-5c5.4,0,8,2.6,9.2,4.7c1.4,2.3,1.4,4.6,1.4,4.7c0,0,0,0,0,0
			v11.8h2.4c0.3,0,0.5,0.2,0.5,0.5v7.2c0,0.3-0.2,0.5-0.5,0.5h-5.6c-0.3,0-0.5-0.2-0.5-0.5v-7.2c0-0.3,0.2-0.5,0.5-0.5h2.3v-11.7
			c0-0.1-0.1-2.2-1.3-4.3c-1.6-2.8-4.5-4.2-8.4-4.2c-3.9,0-6.7,1.5-8.3,4.4c-0.4,0.8-0.7,1.5-0.9,2.2h4c0.2,0,0.3,0.1,0.4,0.2
			l2.8,3.8c0.1,0.1,0.1,0.2,0.1,0.2l2.2,19.8c0,0.1,0,0.3-0.1,0.4C60.2,155.4,60.1,155.4,59.9,155.4z M57.3,154.5h2.1l-1-8.8
			l-0.7,0.1L57.3,154.5z M42.9,154.5h13.4l0.4-8.4L43.1,149L42.9,154.5z M68.1,151.5h4.6v-6.2h-4.6V151.5z M43.7,135.3L43.2,148
			l13.6-2.9l0.5-9.7l-2.6-3.5h-3.9c-0.1,0.8-0.1,1.3-0.1,1.3c0,0.3-0.2,0.5-0.5,0.5h0c-0.3,0-0.5-0.2-0.5-0.5c0,0,0-0.5,0.1-1.3
			h-3.4L43.7,135.3z M57.9,141.4l-0.2,3.5l0.5-0.1L57.9,141.4z"/>
		<path fill="#CB226B" d="M452.1,161.7h-6.5c-1,0-1.8-0.8-2.3-2.1c-0.4-1.2-0.6-3.1-0.4-6.9c0.1-3.7,0.5-9.6,0.7-10.9
			c0.1-0.7,0.4-1.2,0.6-1.5c0.2-0.3,0.2-0.4,0.2-0.6c0-0.1-0.2-0.6-0.9-1.2c-0.4-0.3-0.6-0.8-0.6-1.3v-8.9c0-0.4,0.2-0.8,0.4-1.1
			l1.5-1.6c0.2-0.2,0.3-0.4,0.3-0.7v-0.4h-0.5c-0.3,0-0.6-0.2-0.6-0.6c0-0.3,0.2-0.6,0.6-0.6h0.5v-2.4c0-0.3,0.2-0.6,0.6-0.6h0.8
			c0.1,0,0.2,0,0.2-0.1l0,0c0-0.1,0.1-0.1,0.1-0.2v-2c0-0.6,0.5-1.1,1.2-1.1h2c0.7,0,1.2,0.5,1.2,1.1v2c0,0.1,0,0.1,0.1,0.2l0,0
			c0,0.1,0.1,0.1,0.2,0.1h0.8c0.3,0,0.6,0.2,0.6,0.6v2.4h0.4c0.3,0,0.6,0.2,0.6,0.6c0,0.3-0.2,0.6-0.6,0.6h-0.4v0.4
			c0,0.2,0.1,0.5,0.3,0.7l1.5,1.6c0.3,0.3,0.4,0.7,0.4,1.1v8.9c0,0.5-0.2,1-0.6,1.3c-0.7,0.6-0.9,1-0.9,1.2c0,0.2,0.1,0.4,0.2,0.6
			c0.2,0.3,0.5,0.7,0.6,1.5c0.2,1.3,0.6,7.2,0.7,10.9c0.1,3.8,0,5.8-0.4,6.9l0,0C453.9,161,453,161.7,452.1,161.7z M443.9,136.8v0.4
			c0,0.2,0.1,0.4,0.2,0.5c0.9,0.8,1.3,1.4,1.3,2c0,0.6-0.2,0.9-0.4,1.2c-0.2,0.3-0.3,0.5-0.4,1c-0.2,1.1-0.6,6.9-0.7,10.8
			c-0.1,3.6,0,5.5,0.4,6.5c0.3,0.8,0.8,1.4,1.2,1.4h6.5c0.5,0,0.9-0.5,1.2-1.4v0c0.4-1,0.5-2.9,0.4-6.5c-0.1-3.9-0.5-9.7-0.7-10.8
			c-0.1-0.5-0.2-0.8-0.4-1c-0.2-0.3-0.4-0.7-0.4-1.2c0-0.6,0.4-1.3,1.3-2c0.2-0.1,0.2-0.3,0.2-0.5v-0.4H443.9L443.9,136.8z
			 M443.9,135.7h9.8v-5.5h-9.8V135.7z M443.9,129h9.8v-0.9c0-0.1,0-0.2-0.1-0.3l-1.5-1.6c-0.4-0.4-0.6-0.9-0.6-1.4v-0.4h-5.4v0.4
			c0,0.5-0.2,1-0.6,1.4l-1.5,1.6c-0.1,0.1-0.1,0.2-0.1,0.3L443.9,129L443.9,129z M446.1,123.3h5.4v-1.8h-5.4V123.3z M447.7,120.4
			h2.2c0-0.1,0-0.2,0-0.3v-2c0,0,0,0-0.1,0h-2c0,0-0.1,0-0.1,0v2C447.7,120.1,447.7,120.3,447.7,120.4z"/>
		<g>
			<path fill="#CB226B" d="M372.1,297.9C372.1,297.8,372.1,297.8,372.1,297.9c-1.4-1-3.1-1.6-4.9-1.6c-1.9,0-3.6,0.6-5,1.7
				c0,0-0.1,0-0.1,0.1c-2,1.5-3.4,4-3.4,6.7c0,4.7,3.8,8.5,8.5,8.5s8.5-3.8,8.5-8.5C375.7,301.9,374.3,299.4,372.1,297.9z
				 M371.5,298.4v1.4h-0.4c-0.2,0-0.4,0.2-0.4,0.4c0,0.2,0.2,0.4,0.4,0.4h0.4v0.8h-0.4c-0.2,0-0.4,0.2-0.4,0.4
				c0,0.2,0.2,0.4,0.4,0.4h0.4v0.8h-0.4c-0.2,0-0.4,0.2-0.4,0.4c0,0.2,0.2,0.4,0.4,0.4h0.4v0.1c0,1.5-0.8,2.9-2,3.6v-0.1
				c0-0.2-0.2-0.4-0.4-0.4s-0.4,0.2-0.4,0.4v0.5c-0.3,0.1-0.5,0.2-0.8,0.2v-0.3c0-0.2-0.2-0.4-0.4-0.4s-0.4,0.2-0.4,0.4v0.4
				c-0.3,0-0.6,0-0.8-0.1v-0.6c0-0.2-0.2-0.4-0.4-0.4s-0.4,0.2-0.4,0.4v0.4c-1.6-0.7-2.7-2.2-2.7-4v-0.1h0.4c0.2,0,0.4-0.2,0.4-0.4
				c0-0.2-0.2-0.4-0.4-0.4h-0.4v-0.8h0.4c0.2,0,0.4-0.2,0.4-0.4c0-0.2-0.2-0.4-0.4-0.4h-0.4v-0.8h0.4c0.2,0,0.4-0.2,0.4-0.4
				c0-0.2-0.2-0.4-0.4-0.4h-0.4v-1.3c1.3-0.9,2.8-1.4,4.4-1.4C368.8,297.1,370.3,297.5,371.5,298.4z M367.2,312.4
				c-4.2,0-7.7-3.4-7.7-7.7c0-2.2,0.9-4.2,2.5-5.6v0.6h-0.3c-0.2,0-0.4,0.2-0.4,0.4c0,0.2,0.2,0.4,0.4,0.4h0.3v0.8h-0.3
				c-0.2,0-0.4,0.2-0.4,0.4c0,0.2,0.2,0.4,0.4,0.4h0.3v0.8h-0.3c-0.2,0-0.4,0.2-0.4,0.4c0,0.2,0.2,0.4,0.4,0.4h0.3v0.1
				c0,2.2,1.5,4.2,3.5,4.8v0.3c0,0.2,0.2,0.4,0.4,0.4c0.2,0,0.4-0.2,0.4-0.4v-0.1c0.3,0,0.5,0.1,0.8,0.1v0.4c0,0.2,0.2,0.4,0.4,0.4
				s0.4-0.2,0.4-0.4V309c0.3,0,0.6-0.1,0.8-0.2v0.1c0,0.2,0.2,0.4,0.4,0.4s0.4-0.2,0.4-0.4v-0.5c1.6-0.9,2.8-2.6,2.8-4.6v-0.1h0.4
				c0.2,0,0.4-0.2,0.4-0.4c0-0.2-0.2-0.4-0.4-0.4h-0.4v-0.8h0.4c0.2,0,0.4-0.2,0.4-0.4c0-0.2-0.2-0.4-0.4-0.4h-0.4v-0.8h0.4
				c0.2,0,0.4-0.2,0.4-0.4c0-0.2-0.2-0.4-0.4-0.4h-0.4V299c1.6,1.4,2.6,3.5,2.6,5.8C374.9,309,371.5,312.4,367.2,312.4z"/>
			<g>
				<path fill="#CB226B" d="M376.8,271.9c-2.2-2.2-5.7-2.2-7.8,0l-6.1,6.1c-0.1,0.1-5.8,6-10.5,12.7c-3.8,5.5-10.3,12.7-13.9,16.4
					c0,0,0,0,0,0c0,0,0,0,0,0c-0.7,0.7-1.2,1.3-1.7,1.7l0,0c-0.3-0.3-0.8-0.5-1.3-0.5c-0.5,0-1,0.2-1.3,0.5
					c-0.3,0.3-0.5,0.8-0.5,1.3c0,0.5,0.2,1,0.5,1.3l3.1,3.1c0.3,0.3,0.8,0.5,1.3,0.5c0.5,0,1-0.2,1.3-0.5c0.3-0.3,0.5-0.8,0.5-1.3
					c0-0.5-0.2-0.9-0.5-1.2c2.7-2.8,11.6-11,18.1-15.6c6.7-4.7,12.6-10.5,12.7-10.5l6.1-6.1C378.9,277.6,378.9,274.1,376.8,271.9z
					 M339.3,314c-0.2,0.2-0.5,0.3-0.7,0.3c-0.3,0-0.5-0.1-0.7-0.3l-3.1-3.1c-0.2-0.2-0.3-0.5-0.3-0.7c0-0.3,0.1-0.5,0.3-0.7
					c0.2-0.2,0.5-0.3,0.7-0.3c0.3,0,0.5,0.1,0.7,0.3l0.3,0.3c0,0,0,0,0,0l0,0l2.6,2.6l0.2,0.2c0.2,0.2,0.3,0.5,0.3,0.7
					C339.6,313.5,339.5,313.8,339.3,314z M376.2,279.2l-6.1,6.1c-0.1,0.1-5.9,5.8-12.6,10.4c-6.5,4.6-15.5,12.9-18.2,15.7l-2.1-2.1
					c0.4-0.4,0.9-0.9,1.4-1.4l1,1c0.1,0.1,0.2,0.1,0.3,0.1c0.1,0,0.2,0,0.3-0.1c0.2-0.2,0.2-0.4,0-0.6l-1-1
					c3.7-3.8,9.9-10.9,13.7-16.2c4.7-6.7,10.4-12.6,10.4-12.6l6.1-6.1c1.9-1.9,4.9-1.9,6.7,0C378.1,274.3,378.1,277.3,376.2,279.2z"
					/>
				<path fill="#CB226B" d="M371.9,272.4l-11.1,11.8c-0.1,0.2-0.1,0.4,0,0.6c0.1,0.1,0.2,0.1,0.3,0.1c0.1,0,0.2,0,0.3-0.1l11.1-11.8
					c0.1-0.2,0.1-0.4,0-0.6C372.3,272.3,372.1,272.3,371.9,272.4z"/>
			</g>
		</g>
		<g>
			<path fill="#CB226B" d="M256.9,199c-4.3-1.6-9-2-13.6-1c-0.1,0-0.2,0.1-0.3,0.2c-2.2,4.1-3.2,8.7-2.8,13.3
				c0.3,4.7,2,9.3,4.9,13.1s6.7,6.7,11.2,8.4c4.3,1.6,9,2,13.6,1c0.1,0,0.1,0,0.2-0.1c0,0,0.1-0.1,0.1-0.1c2.2-4.1,3.2-8.7,2.8-13.3
				c-0.3-4.7-2-9.3-4.9-13.1C265.2,203.6,261.4,200.7,256.9,199z M272.1,220.1l-4.5,3.4c-0.4-0.5-0.5-0.9-0.6-1.3
				c-0.1-0.4-0.2-0.9-0.7-1.6c-0.5-0.7-1-0.9-1.3-1.2c-0.4-0.2-0.7-0.4-1.1-1c-0.4-0.6-0.5-0.9-0.6-1.3c-0.1-0.4-0.2-0.9-0.7-1.6
				c-0.5-0.7-1-0.9-1.3-1.2c-0.4-0.2-0.7-0.4-1.1-1c-0.4-0.6-0.5-0.9-0.6-1.3c-0.1-0.4-0.2-0.9-0.7-1.6c-0.5-0.7-1-0.9-1.3-1.2
				c-0.4-0.2-0.7-0.4-1.1-1c-0.4-0.6-0.5-0.9-0.6-1.3c-0.1-0.4-0.2-0.9-0.7-1.6s-1-1-1.3-1.2c-0.3-0.2-0.6-0.4-1-0.8l4.6-3.4
				c4.1,1.6,7.7,4.3,10.4,7.9C270.2,211.5,271.7,215.8,272.1,220.1z M261.3,228.2c-0.5-0.7-0.9-0.9-1.3-1.1c-0.4-0.2-0.7-0.4-1.1-1
				c-0.4-0.6-0.5-0.9-0.6-1.3c-0.1-0.4-0.2-0.9-0.7-1.6c-0.5-0.7-1-0.9-1.3-1.2c-0.4-0.2-0.7-0.4-1.1-1c-0.4-0.6-0.5-0.9-0.6-1.3
				c-0.1-0.4-0.2-0.9-0.7-1.6c-0.5-0.7-1-0.9-1.3-1.2c-0.4-0.2-0.7-0.4-1.1-1c-0.4-0.6-0.5-0.9-0.6-1.3c-0.1-0.4-0.2-0.9-0.7-1.6
				c-0.5-0.7-1-0.9-1.3-1.2c-0.4-0.2-0.7-0.4-1.1-1s-0.5-0.9-0.6-1.3c-0.1-0.4-0.2-0.9-0.6-1.5l5.6-4.2c0.5,0.6,0.9,0.8,1.2,1
				c0.4,0.2,0.7,0.4,1.1,1c0.4,0.6,0.5,0.9,0.6,1.3c0.1,0.4,0.2,0.9,0.7,1.6c0.5,0.7,1,0.9,1.3,1.2c0.4,0.2,0.7,0.4,1.1,1
				c0.4,0.6,0.5,0.9,0.6,1.3c0.1,0.4,0.2,0.9,0.7,1.6c0.5,0.7,1,0.9,1.3,1.2c0.4,0.2,0.7,0.4,1.1,1c0.4,0.6,0.5,0.9,0.6,1.3
				c0.1,0.4,0.2,0.9,0.7,1.6c0.5,0.7,1,0.9,1.3,1.2c0.4,0.2,0.7,0.4,1.1,1s0.5,0.9,0.6,1.3c0.1,0.4,0.2,0.9,0.7,1.6L261.3,228.2
				L261.3,228.2z M243.7,198.7c2.6-0.5,5.2-0.6,7.8-0.2l-9.1,6.8c-0.2,0.1-0.2,0.4-0.1,0.5c0.1,0.2,0.4,0.2,0.5,0.1l9.6-7.2
				c0,0,0,0,0,0c1.3,0.2,2.5,0.6,3.7,1L241,211C240.8,206.8,241.7,202.6,243.7,198.7z M241.1,211.9l4.6-3.4c0.3,0.5,0.4,0.8,0.5,1.2
				c0.1,0.4,0.2,0.9,0.7,1.6c0.5,0.7,1,0.9,1.3,1.2c0.4,0.2,0.7,0.4,1.1,1c0.4,0.6,0.5,0.9,0.6,1.3c0.1,0.4,0.2,0.9,0.7,1.6
				c0.5,0.7,1,0.9,1.3,1.2c0.4,0.2,0.7,0.4,1.1,1c0.4,0.6,0.5,0.9,0.6,1.3c0.1,0.4,0.2,0.9,0.7,1.6c0.5,0.7,1,0.9,1.3,1.2
				c0.4,0.2,0.7,0.4,1.1,1c0.4,0.6,0.5,0.9,0.6,1.3c0.1,0.4,0.2,0.9,0.7,1.6c0.5,0.7,1,1,1.3,1.2c0.4,0.2,0.7,0.4,1.1,0.9l-4.5,3.4
				c-4.1-1.6-7.7-4.3-10.4-7.9C243,220.5,241.4,216.3,241.1,211.9z M269.5,233.3c-2.6,0.5-5.1,0.6-7.7,0.2l8.7-6.5
				c0.2-0.1,0.2-0.4,0.1-0.5c-0.1-0.2-0.4-0.2-0.5-0.1l-9.3,6.9c0,0,0,0,0,0c-1.3-0.2-2.5-0.6-3.7-1l15.2-11.3
				C272.4,225.2,271.5,229.5,269.5,233.3z"/>
			<path fill="#CB226B" d="M256.8,201.1c-0.2-0.1-0.4,0-0.5,0.2c-0.1,0.2,0,0.4,0.2,0.5c3.7,1.5,7,3.9,9.4,7.2
				c1.5,1.9,2.6,4.1,3.3,6.4c0.1,0.2,0.3,0.3,0.5,0.3c0,0,0.1,0,0.1-0.1c0.1-0.1,0.2-0.3,0.1-0.4c-0.8-2.4-1.9-4.6-3.4-6.6
				C264.1,205.2,260.7,202.6,256.8,201.1z"/>
			<path fill="#CB226B" d="M270,216.7c-0.2,0-0.3,0.3-0.3,0.5c0.2,1,0.4,2,0.5,3c0,0.2,0.2,0.4,0.4,0.4c0.1,0,0.1,0,0.2-0.1
				c0.1-0.1,0.2-0.2,0.2-0.3c-0.1-1-0.2-2.1-0.5-3.1C270.4,216.8,270.2,216.6,270,216.7z"/>
			<path fill="#CB226B" d="M253.8,208.2c0.2-0.1,0.2-0.4,0.1-0.5c-0.1-0.2-0.4-0.2-0.5-0.1l-3.9,2.9c-0.2,0.1-0.2,0.4-0.1,0.5
				c0.1,0.2,0.4,0.2,0.5,0.1l1.7-1.2l2.8,3.8l-1.7,1.2c-0.2,0.1-0.2,0.4-0.1,0.5c0.1,0.2,0.4,0.2,0.5,0.1l1.7-1.2l2.8,3.8l-1.7,1.2
				c-0.2,0.1-0.2,0.4-0.1,0.5c0.1,0.2,0.4,0.2,0.5,0.1l1.7-1.2l2.8,3.8l-1.7,1.2c-0.2,0.1-0.2,0.4-0.1,0.5c0.1,0.2,0.4,0.2,0.5,0.1
				l3.9-2.9c0.2-0.1,0.2-0.4,0.1-0.5c-0.1-0.2-0.4-0.2-0.5-0.1l-1.7,1.2l-2.8-3.8l1.7-1.2c0.2-0.1,0.2-0.4,0.1-0.5
				c-0.1-0.2-0.4-0.2-0.5-0.1l-1.7,1.2l-2.8-3.8l1.7-1.2c0.2-0.1,0.2-0.4,0.1-0.5c-0.1-0.2-0.4-0.2-0.5-0.1l-1.7,1.2l-2.8-3.8
				L253.8,208.2z"/>
		</g>
	</g>
</g>
<g id="Layer_3">
</g>
</svg>
