<?xml version="1.0" encoding="utf-8"?>
<!-- Generator: Adobe Illustrator 18.1.1, SVG Export Plug-In . SVG Version: 6.00 Build 0)  -->
<svg version="1.1" xmlns="http://www.w3.org/2000/svg" xmlns:xlink="http://www.w3.org/1999/xlink" x="0px" y="0px"
	 viewBox="0 0 694 318.8" enable-background="new 0 0 694 318.8" xml:space="preserve">
<g id="Layer_1" display="none">
</g>
<g id="Layer_4" display="none">
</g>
<g id="Layer_5">
</g>
<g id="Layer_2">
</g>
<g id="Layer_6">
	<g>
		<path opacity="0.9" fill="#E62E6E" d="M667.3,318.8H26.7C12,318.8,0,306.8,0,292.1V26.7C0,12,12,0,26.7,0h640.7
			C682,0,694,12,694,26.7v265.5C694,306.8,682,318.8,667.3,318.8z"/>
		<path fill="#CB226B" d="M64.8,183.4c0-0.1,0-0.1-0.1-0.2c0,0,0,0,0,0c-0.1-0.1-0.2-0.2-0.3-0.3c0,0,0,0,0,0c0,0,0,0,0,0
			c-0.4-0.1-7.9-3-11.9-0.1c-1.6,1.2-2.4,3.1-2.4,5.7c-0.9,0.8-1.5,1.6-2,2.3c-0.8-3.4-3.5-4.4-3.6-4.4c-0.3-0.1-0.7,0.1-0.8,0.4
			c-0.1,0.3,0.1,0.7,0.4,0.8c0,0,3.9,1.4,2.7,7.3c-2.2-0.9-4.3-1.3-6.2-1.3c-6.1,0-10,4.4-10,11.6c0,9.3,9.2,18,12.6,18
			c2.2,0,3.4-0.6,4-1c0.6,0.4,1.8,1,4,1c3.4,0,12.6-8.8,12.6-18c0-7.2-3.8-11.6-10-11.6c-1.8,0-3.8,0.4-5.8,1.2
			c0.1-0.7,0.2-1.3,0.2-1.8c0.2-0.3,0.9-1.7,2.4-3.2c0.8,0.6,2.4,1.6,4.7,1.4c3.1-0.3,6.2-2.7,9.2-7.2c0,0,0,0,0,0
			c0-0.1,0.1-0.1,0.1-0.2C64.8,183.6,64.8,183.5,64.8,183.4z M62.7,205.2c0,8.9-8.8,16.8-11.4,16.8c-2.6,0-3.5-1-3.5-1
			c-0.1-0.1-0.3-0.2-0.5-0.2c0,0,0,0,0,0c-0.2,0-0.3,0.1-0.5,0.2c0,0-0.9,1-3.6,1c-2.6,0-11.4-8-11.4-16.8c0-6.5,3.3-10.4,8.7-10.4
			c1.9,0,4.1,0.5,6.4,1.5c0,0,0,0,0,0c0,0,0,0,0,0c0,0,0.1,0,0.1,0c0.1,0,0.2,0,0.2,0c2.3-1,4.5-1.5,6.4-1.5
			C59.4,194.8,62.7,198.7,62.7,205.2z M53.2,183.8c1.1-0.8,2.5-1,4-1c1.4,0,2.8,0.2,3.9,0.5c-4.4,0.8-7.6,2.5-9.8,4.2
			C51.5,185.8,52.1,184.6,53.2,183.8z M55.4,189.9c-1.8,0.2-3.1-0.6-3.8-1c2.3-2,5.9-4,11.3-4.6C60.5,187.8,57.9,189.7,55.4,189.9z"
			/>
		<path fill="#CB226B" d="M655.9,113.8c-1.1-0.3-2.8-0.6-4.6-0.9c-0.1-0.1-0.2-0.1-0.4-0.1c-6.7-1.1-16.3-2.1-17-2.2
			c-0.1,0-0.3,0-0.5,0c-0.9,0-3.7,0.3-3.7,4.5v3.1c0,4.2,2.9,4.5,3.7,4.5c0.3,0,0.5,0,0.5,0c0.3,0,1.6-0.2,3.4-0.4v5.4
			c0,1.4,1,2,1.7,2.5c0.6,0.4,0.8,0.6,0.8,0.9v8.9c0,0.4,0.3,0.8,0.8,0.8c0.4,0,0.8-0.3,0.8-0.8v-8.9c0-1.1-0.9-1.7-1.5-2.2
			c-0.7-0.5-1-0.7-1-1.2v-5.6c0.2,0,0.4,0,0.6-0.1c0.1,0,0.1,0,0.2,0c0.1,0,0.2,0,0.3-0.1c0.2,0,0.5-0.1,0.7-0.1v5.2
			c0,0.4,0.3,0.8,0.8,0.8c0.4,0,0.8-0.3,0.8-0.8v-5.2c0-0.1,0-0.1,0-0.2c0.5-0.1,1.1-0.1,1.7-0.2c-0.1,0.1-0.1,0.2-0.1,0.4v5.2
			c0,0.4,0.3,0.8,0.8,0.8c0.4,0,0.8-0.3,0.8-0.8v-5.2c0-0.2-0.1-0.4-0.2-0.5c0.6-0.1,1.2-0.2,1.8-0.2c0,0.1,0,0.1,0,0.2v6.5
			c0,0.5-0.3,0.8-1,1.2c-0.6,0.4-1.5,1-1.5,2.2v8.9c0,0.4,0.3,0.8,0.8,0.8c0.4,0,0.8-0.3,0.8-0.8v-8.9c0-0.3,0.2-0.5,0.8-0.9
			c0.7-0.5,1.7-1.1,1.7-2.5v-6.5c0-0.1,0-0.3-0.1-0.4c3-0.4,5.8-0.9,7.5-1.3c2.4-0.6,2.7-2.1,2.7-2.9
			C658.7,115.8,658.3,114.4,655.9,113.8z M655.6,118.1c-1.4,0.3-3.5,0.7-5.9,1.1c0.3-0.6,0.4-1.5,0.3-2.6c0-0.4-0.4-0.7-0.9-0.7
			c-0.4,0-0.7,0.4-0.7,0.9c0.2,1.5-0.4,2.3-0.8,2.7c-1.9,0.3-3.8,0.5-5.7,0.7c0.5-0.9,0.9-2.2,0.7-3.9c0-0.4-0.4-0.7-0.9-0.7
			c-0.4,0-0.7,0.4-0.7,0.9c0.3,2.5-0.8,3.6-1.5,4c-3.3,0.4-5.7,0.7-5.8,0.7c0,0,0,0-0.1,0c0,0-0.1,0-0.3,0c-1,0-2.2-0.5-2.2-3v-3.1
			c0-2.4,1.2-3,2.2-3c0.2,0,0.3,0,0.3,0h0c0,0,0,0,0.1,0c0,0,0.7,0.1,1.8,0.2c0,0,0,0,0,0c0.6,0.3,2,1.3,1.7,4.2
			c0,0.4,0.3,0.8,0.7,0.9c0,0,0.1,0,0.1,0c0.4,0,0.7-0.3,0.8-0.7c0.2-1.9-0.2-3.2-0.8-4.1c1.6,0.2,3.5,0.4,5.4,0.7c0,0,0,0,0,0
			c0.4,0.2,1.4,0.9,1.2,2.9c0,0.4,0.3,0.8,0.7,0.9c0,0,0.1,0,0.1,0c0.4,0,0.7-0.3,0.8-0.7c0.1-1.2-0.1-2.1-0.4-2.8
			c1.7,0.2,3.4,0.5,4.9,0.7c0.3,0.2,0.8,0.7,0.6,1.9c0,0.4,0.3,0.8,0.7,0.9c0,0,0.1,0,0.1,0c0.4,0,0.7-0.3,0.8-0.7
			c0.1-0.7,0-1.3-0.1-1.7c1.1,0.2,2,0.4,2.7,0.6c1.6,0.4,1.6,1.2,1.6,1.4C657.1,116.9,657.1,117.7,655.6,118.1z"/>
		<g>
			<g>
				<path fill="#CB226B" d="M55.7,264.1c-2.4-1.3-5.2-2-7.9-2c-6.3,0-12.1,3.5-15,9c-4.4,8.3-1.2,18.6,7,23c2.4,1.3,5.2,2,7.9,2
					c6.3,0,12.1-3.5,15-9C67.1,278.8,64,268.5,55.7,264.1z M40.3,293.1c-7.8-4.1-10.7-13.8-6.6-21.5c2.8-5.2,8.2-8.5,14.1-8.5
					c2.6,0,5.2,0.6,7.5,1.9c7.8,4.1,10.7,13.8,6.6,21.5c-2.8,5.2-8.2,8.5-14.1,8.5C45.2,295,42.6,294.4,40.3,293.1z"/>
				<path fill="#CB226B" d="M60.1,272c-0.1-0.3-0.5-0.3-0.7-0.2c-0.3,0.1-0.3,0.5-0.2,0.7c0,0.1,0.1,0.1,0.1,0.2
					c3.3,5.9,1.4,13.5-4.2,17.3c-2.9,1.9-6.3,2.6-9.7,2c-0.1,0-0.2,0-0.2,0c-0.3-0.1-0.6,0.1-0.6,0.4c-0.1,0.3,0.1,0.6,0.4,0.6
					c0.9,0.2,1.9,0.3,2.8,0.3c2.8,0,5.5-0.8,7.9-2.4C61.9,286.7,63.8,278.4,60.1,272z"/>
				<path fill="#CB226B" d="M39.5,289.3c-0.6-0.5-1.2-1-1.7-1.6c-0.4-0.4-0.7-0.9-1-1.4l-0.4,0.3l0.4-0.3c-4-6-2.4-14.2,3.6-18.2
					c1.9-1.2,4-2,6.2-2.2c0.1,0,0.1,0,0.2,0c0.3,0,0.5-0.3,0.5-0.6c0-0.3-0.3-0.5-0.6-0.5c-2.5,0.2-4.9,1-6.9,2.4
					c-6.5,4.3-8.2,13.2-3.9,19.6c0,0,0,0.1,0,0.1c0.3,0.5,0.7,1,1.1,1.5c0.6,0.7,1.3,1.3,2,1.9c0.1,0.1,0.2,0.1,0.3,0.1
					c0.2,0,0.3-0.1,0.4-0.2c0.2-0.2,0.1-0.6-0.1-0.7C39.6,289.4,39.6,289.4,39.5,289.3z"/>
				<path fill="#CB226B" d="M52.7,266.8c1.5,0.6,2.8,1.4,4,2.5c0.1,0.1,0.2,0.1,0.4,0.1c0.1,0,0.3-0.1,0.4-0.2
					c0.2-0.2,0.2-0.5,0-0.7c-1.3-1.2-2.7-2.1-4.3-2.7c-0.3-0.1-0.6,0-0.7,0.3C52.3,266.4,52.4,266.7,52.7,266.8z"/>
			</g>
			<path fill="#CB226B" d="M45.4,285.5c-0.1-0.7-0.6-1.2-1.2-1.4c0-0.1,0-0.3,0-0.4c0-0.2,0-0.4,0-0.5c0-0.2,0-0.4,0-0.6
				c0-0.4,0.1-0.8,0.2-1.1c0.1-0.3,0.2-0.7,0.3-1l0.3-0.7c0-0.1,0.1-0.1,0.1-0.2c0,0,0-0.1,0-0.1c1.1-1.8,0.7-4.1-0.9-5.4
				c-0.2-0.1-0.3-0.3-0.5-0.4c-0.7-0.4-1.4-0.6-2.2-0.6c-1.5,0-2.8,0.8-3.6,2c-1.1,1.8-0.7,4.1,0.9,5.5c0,0,0,0,0,0l0,0
				c0,0,0.1,0.1,0.2,0.2l0.5,0.6c0.2,0.3,0.4,0.6,0.6,0.9c0.2,0.3,0.4,0.7,0.5,1c0.1,0.2,0.2,0.4,0.2,0.5c0.1,0.2,0.1,0.4,0.2,0.5
				c0,0,0,0,0,0l-0.2,0.6c-0.4,0.4-0.6,0.9-0.5,1.5c0,0,0,0,0,0c0.1,0.7,0.7,1.3,1.5,1.4c0.1,0,0.1,0,0.2,0c0.1,0,0.2,0,0.3,0
				c0.3,0,0.5-0.2,0.7-0.3c0.3,0.1,0.5,0.1,0.8,0.1c0.2,0,0.3-0.1,0.5-0.1C45.1,287,45.5,286.3,45.4,285.5z M44,286.4
				c-0.1,0-0.1,0-0.2,0.1c-0.2,0-0.3,0-0.5-0.1c-0.2-0.1-0.5-0.1-0.7,0.1c-0.1,0.1-0.2,0.2-0.4,0.2c-0.1,0-0.1,0-0.2,0
				c-0.3,0-0.5-0.3-0.6-0.5c0-0.3,0.1-0.6,0.4-0.7l0,0c0.3-0.1,0.4-0.3,0.4-0.6c-0.1-0.3-0.1-0.6-0.2-0.9c-0.1-0.2-0.1-0.4-0.2-0.6
				c-0.1-0.2-0.2-0.4-0.2-0.6c0,0,0-0.1-0.1-0.1v0c-0.2-0.4-0.3-0.7-0.5-1c-0.2-0.3-0.4-0.7-0.7-1l-0.5-0.6l-0.1-0.1
				c-0.1-0.1-0.2-0.2-0.2-0.2l-0.1-0.1c-1.2-1-1.5-2.8-0.7-4.1c0.6-0.9,1.6-1.5,2.7-1.5c0.6,0,1.2,0.2,1.7,0.5
				c0.3,0.2,0.5,0.4,0.7,0.6c0.9,1,1.1,2.5,0.3,3.7c0,0,0,0,0,0.1l0,0.1c0,0.1-0.1,0.1-0.1,0.2c0,0,0,0.1-0.1,0.1l-0.2,0.4
				c0,0,0,0,0,0.1l-0.1,0.2c-0.1,0.4-0.2,0.8-0.3,1.2c-0.1,0.4-0.2,0.8-0.2,1.3c0,0.2,0,0.4,0,0.6c0,0.2,0,0.4,0,0.6
				c0,0.3,0,0.6,0.1,0.9c0,0.3,0.3,0.5,0.5,0.5l0-0.5l0,0.5c0.3,0,0.6,0.2,0.6,0.6C44.4,286,44.2,286.3,44,286.4z"/>
			<path fill="#CB226B" d="M50.2,282.3c0.2,0.5,0.7,1,1.2,1.2c0,0,0.1,0,0.1,0.1c0.5,0.2,1.1,0.3,1.6,0.2c0.3,0.1,0.6,0.2,0.9,0.2
				c0.3,0,0.5,0,0.8-0.1c0.6-0.2,1-0.5,1.4-1c0.7-0.2,1.4-0.7,1.7-1.4c0.4-0.7,0.4-1.5,0.1-2.3c0.1-0.5,0.1-1,0-1.5
				c-0.2-0.7-0.7-1.2-1.2-1.5c-0.2-0.1-0.4-0.2-0.6-0.2c-0.2-0.2-0.4-0.3-0.6-0.4c-0.5-0.3-1.1-0.4-1.7-0.3c-0.5-0.2-1.2-0.2-1.7,0
				c-0.2,0.1-0.5,0.2-0.7,0.3c-0.9,0.1-1.7,0.6-2.1,1.4c-0.2,0.4-0.3,0.9-0.3,1.4c-0.4,0.7-0.5,1.5-0.3,2.2
				C48.9,281.4,49.5,282,50.2,282.3z M50.3,277.5c0.3-0.5,0.8-0.8,1.4-0.9c0.1,0,0.2,0,0.3-0.1c0.2-0.1,0.3-0.2,0.5-0.2
				c0.4-0.1,0.8-0.1,1.2,0.1c0.1,0.1,0.2,0.1,0.3,0c0.4-0.1,0.8,0,1.1,0.1c0.2,0.1,0.3,0.2,0.4,0.3c0.1,0.1,0.2,0.1,0.3,0.2
				c0.1,0,0.2,0.1,0.4,0.1c0.4,0.2,0.7,0.6,0.9,1c0.1,0.3,0.1,0.7,0,1c0,0.1,0,0.3,0,0.4c0.2,0.5,0.2,1,0,1.5
				c-0.2,0.5-0.7,0.8-1.2,0.9c-0.2,0-0.3,0.1-0.4,0.2c-0.2,0.4-0.5,0.6-0.9,0.7c-0.4,0.1-0.8,0.1-1.2-0.1c-0.1,0-0.1,0-0.2,0
				c0,0-0.1,0-0.1,0c-0.3,0.1-0.6,0.1-0.9,0c-0.1,0-0.2-0.1-0.3-0.1c-0.4-0.2-0.6-0.5-0.8-0.9c-0.1-0.1-0.2-0.3-0.3-0.3
				c-0.5-0.2-0.9-0.6-1-1.1c-0.2-0.5-0.1-1.1,0.3-1.5c0.1-0.1,0.1-0.3,0.1-0.4C50,278.1,50.1,277.8,50.3,277.5z"/>
		</g>
		<g>
			<path fill="#CB226B" d="M136.9,275.2l0.8,0.4v-13.2h-5.4v5.6C132.2,271.1,134,273.9,136.9,275.2z M133.3,263.5h3.2v10.3
				c-2-1.3-3.2-3.5-3.2-5.8V263.5z"/>
			<path fill="#CB226B" d="M162.1,268v-5.6h-5.4v13.2l0.8-0.4C160.3,273.9,162.1,271.1,162.1,268z M157.8,263.5h3.2v4.5
				c0,2.4-1.2,4.6-3.2,5.8V263.5z"/>
			<path fill="#CB226B" d="M129.1,268c0,4.9,3.2,9.2,7.9,10.6c1.1,3.6,3.9,6.3,7.5,7.2c-0.2,3.9-3.4,7.1-7.3,7.1h-0.6v5.9h21.1v-5.9
				h-0.5c-3.9,0-7.2-3.1-7.3-7c3.6-0.9,6.5-3.6,7.6-7.3c4.7-1.4,7.9-5.7,7.9-10.6v-8.7h-36.1V268z M137.7,297.8V294h18.9v3.7H137.7z
				 M152.9,292.9h-11.7c2.4-1.4,4.1-3.9,4.3-6.8c0.5,0.1,1.1,0.1,1.6,0.1c0.5,0,1,0,1.5-0.1C148.9,289,150.5,291.5,152.9,292.9z
				 M145.7,260.4v16.8c0,1.5-1.2,2.7-2.7,2.7c-1.5,0-2.7-1.2-2.7-2.7v-16.8H145.7z M130.2,260.4h9.1v16.8c0,2.1,1.7,3.8,3.8,3.8
				c2.1,0,3.8-1.7,3.8-3.8v-16.8h17.3v7.6c0,4.5-3,8.5-7.4,9.7l-0.3,0.1l-0.1,0.3c-1.1,4.2-4.9,7.1-9.2,7.1s-8.1-2.9-9.2-7.1
				l-0.1-0.3l-0.3-0.1c-4.3-1.2-7.4-5.2-7.4-9.7V260.4z"/>
		</g>
		<g>
			<g>
				<path fill="#CB226B" d="M346.4,219.8c-5.4,0-10.9-1.4-10.9-4l0-19.9c0-0.5,0.2-1.2,1.3-2c0.3-0.2,0.7-0.1,0.9,0.2
					c0.2,0.3,0.1,0.7-0.2,0.9c-0.5,0.3-0.7,0.7-0.7,0.9l0,19.9c0,1.1,3.7,2.7,9.6,2.7c5.9,0,9.6-1.6,9.6-2.7l0-19.9
					c0-0.3-0.4-0.7-1-1.1c-0.3-0.2-0.4-0.6-0.2-0.9c0.2-0.3,0.6-0.4,0.9-0.2c1.3,0.8,1.6,1.6,1.6,2.2l0,19.9
					C357.3,218.4,351.8,219.8,346.4,219.8z"/>
			</g>
			<g>
				<path fill="#CB226B" d="M346.4,195.8c-3.8,0-7.7-1-7.7-3l0-4.9c0-1.9,3.9-3,7.7-3c3.8,0,7.7,1,7.7,3l0,4.9
					C354.2,194.8,350.3,195.8,346.4,195.8z M346.4,186.2c-4,0-6.5,1.1-6.5,1.7l0,4.9c0,0.6,2.5,1.7,6.5,1.7c4,0,6.5-1.1,6.5-1.7
					l0-4.9C352.9,187.3,350.4,186.2,346.4,186.2z"/>
			</g>
			<g>
				<path fill="#CB226B" d="M346.4,190.5c-3.8,0-7.6-1-7.6-2.9c0-0.3,0.3-0.6,0.6-0.6c0.3,0,0.6,0.3,0.6,0.6c0,0.5,2.2,1.7,6.3,1.7
					c4.2,0,6.3-1.2,6.3-1.7c0-0.3,0.3-0.6,0.6-0.6c0.3,0,0.6,0.3,0.6,0.6C354,189.5,350.2,190.5,346.4,190.5z"/>
			</g>
			<g>
				<path fill="#CB226B" d="M346.4,199.9c-5.4,0-10.9-1.4-10.9-4c0-0.3,0.3-0.6,0.6-0.6c0.3,0,0.6,0.3,0.6,0.6
					c0,1.1,3.7,2.7,9.6,2.7c5.9,0,9.6-1.6,9.6-2.7c0-0.3,0.3-0.6,0.6-0.6c0.3,0,0.6,0.3,0.6,0.6
					C357.3,198.5,351.8,199.9,346.4,199.9z"/>
			</g>
			<g>
				<path fill="#CB226B" d="M345.7,215.8c-0.1,0-0.2,0-0.3-0.1c-0.3-0.2-0.4-0.5-0.3-0.8l3.3-6.2l-3.9,0c-0.2,0-0.4-0.1-0.5-0.3
					c-0.1-0.2-0.1-0.4-0.1-0.6l2.3-5.3c0.1-0.3,0.5-0.5,0.8-0.3c0.3,0.1,0.5,0.5,0.3,0.8l-1.9,4.5l4,0c0.2,0,0.4,0.1,0.5,0.3
					c0.1,0.2,0.1,0.4,0,0.6l-3.8,7.2C346.2,215.7,345.9,215.8,345.7,215.8z"/>
			</g>
		</g>
		<g>
			<g>
				<path fill="#CB226B" d="M353.5,119.3C353.5,119.3,353.6,119.3,353.5,119.3l1.2,0.6c0.1,0,0.2,0.1,0.3,0.1c0.2,0,0.4-0.1,0.5-0.3
					c0.1-0.3,0-0.6-0.3-0.8l-1.2-0.6c-0.1,0-0.1,0-0.2-0.1c-0.2,0-0.5,0.1-0.6,0.3C353.2,118.8,353.3,119.2,353.5,119.3z"/>
				<path fill="#CB226B" d="M356.6,121.5l-1.2-0.2c-0.3-0.1-0.6,0.2-0.7,0.5c0,0.3,0.2,0.6,0.5,0.7l1.2,0.2c0,0,0.1,0,0.1,0
					c0.3,0,0.5-0.2,0.6-0.5C357.1,121.8,356.9,121.5,356.6,121.5z"/>
				<path fill="#CB226B" d="M355.9,124.1c-0.1-0.3-0.5-0.4-0.8-0.3l-1.2,0.5c-0.3,0.1-0.4,0.5-0.3,0.8c0.1,0.2,0.3,0.4,0.5,0.4
					c0.1,0,0.1,0,0.2,0l1.2-0.5C355.9,124.8,356.1,124.4,355.9,124.1z"/>
				<path fill="#CB226B" d="M353.9,129l-0.1,1.3c0,0.3,0.2,0.6,0.5,0.6c0,0,0,0,0,0c0.3,0,0.5-0.2,0.6-0.5l0.1-1.3
					c0-0.3-0.2-0.6-0.5-0.6C354.2,128.5,354,128.7,353.9,129z"/>
				<path fill="#CB226B" d="M353.7,133.8c0.1,0.1,0.3,0.2,0.4,0.2c0.1,0,0.3,0,0.4-0.1l1-0.8c0.2-0.2,0.3-0.6,0.1-0.8
					c-0.2-0.2-0.6-0.3-0.8-0.1l-1,0.8C353.5,133.2,353.4,133.5,353.7,133.8z"/>
				<path fill="#CB226B" d="M356.9,128.3c0.1,0,0.3,0,0.4-0.1c0.2-0.2,0.3-0.6,0.1-0.8l-0.9-1.1c-0.2-0.2-0.6-0.3-0.8-0.1
					c-0.2,0.2-0.3,0.6-0.1,0.8l0.9,1.1C356.6,128.2,356.8,128.3,356.9,128.3z"/>
			</g>
			<g>
				<path fill="#CB226B" d="M364.3,121.9c-1.8-8.6-9.5-14.9-18.3-14.9c-1.3,0-2.5,0.1-3.8,0.4c-4.9,1-9.1,3.9-11.8,8
					c-2.7,4.2-3.7,9.2-2.7,14.1c1.8,8.6,9.5,14.9,18.3,14.9c1.3,0,2.5-0.1,3.8-0.4C359.9,141.9,366.4,132,364.3,121.9z M328.8,129.3
					c-0.9-4.6-0.1-9.3,2.5-13.2c2.6-3.9,6.5-6.6,11.1-7.5c1.2-0.2,2.4-0.4,3.6-0.4c8.3,0,15.5,5.9,17.2,14c2,9.5-4.2,18.8-13.6,20.7
					c-1.2,0.2-2.4,0.4-3.6,0.4C337.7,143.3,330.5,137.4,328.8,129.3z"/>
				<path fill="#CB226B" d="M337.9,113.7c3.2-2.1,6.9-2.9,10.7-2.2c0.1,0,0.2,0,0.3,0c0.3,0.1,0.6-0.1,0.7-0.5
					c0.1-0.3-0.1-0.6-0.5-0.7c-4.1-0.8-8.3,0-11.8,2.3c-6.8,4.6-8.9,13.7-4.9,20.8c0.1,0.2,0.3,0.3,0.5,0.3c0.1,0,0.2,0,0.3-0.1
					c0.3-0.2,0.4-0.5,0.2-0.8c0-0.1-0.1-0.2-0.1-0.2C329.7,126.2,331.7,117.9,337.9,113.7z"/>
				<path fill="#CB226B" d="M359,117.1C359,117.1,359,117.1,359,117.1c-0.4-0.6-0.8-1.2-1.3-1.7c-0.7-0.8-1.4-1.4-2.2-2
					c-0.3-0.2-0.6-0.1-0.8,0.1c-0.2,0.3-0.2,0.6,0.1,0.8c0.1,0,0.1,0.1,0.2,0.1c0.7,0.5,1.3,1.1,1.8,1.8c0.4,0.5,0.8,1,1.2,1.5
					c0,0,0,0,0,0.1c4.4,6.6,2.6,15.6-4,20.1c-2,1.4-4.4,2.2-6.8,2.4c-0.1,0-0.1,0-0.2,0c-0.3,0-0.6,0.3-0.5,0.6
					c0,0.3,0.3,0.5,0.6,0.5h0c2.7-0.2,5.4-1.1,7.6-2.6C361.8,134,363.8,124.3,359,117.1z"/>
				<path fill="#CB226B" d="M340.6,139.2c-1.6-0.7-3.1-1.6-4.4-2.8c-0.2-0.2-0.6-0.2-0.8,0c-0.2,0.2-0.2,0.6,0,0.8
					c1.4,1.3,3,2.3,4.8,3c0.1,0,0.1,0,0.2,0c0.2,0,0.4-0.1,0.5-0.4C341,139.7,340.9,139.3,340.6,139.2z"/>
				<path fill="#CB226B" d="M349.2,133.7c1.4-1.1,1.4-2.4,1.3-4.1c0-0.2,0-0.3,0-0.5c-0.1-1.1-0.2-2.5-0.1-4.2c0-0.7,0.1-1.4,0.1-2
					c0.1-1.2,0.2-2.3,0.1-3.4c0-2.2-1.9-3.5-5.1-3.6c-0.1,0-0.2,0-0.2,0c-1.7,0-3.6,0.4-4.9,1l-1,0.5c-2.4,1.2-5.1,4.2-5.4,6.8
					c-0.1,1.2,0.3,2.2,1.2,2.9c0.5,0.4,0.9,0.8,1.5,1.1c0.4,0.3,0.9,0.6,1.4,0.9c0.6,0.4,1.1,0.8,1.7,1.2c1.4,0.9,2.4,1.8,3.2,2.6
					c1.2,1.1,2.2,2,3.5,2c0.6,0,1.2-0.2,1.9-0.5C348.6,134.1,348.9,133.9,349.2,133.7z M343.6,131.9c-0.8-0.8-1.9-1.7-3.3-2.7
					c-0.6-0.4-1.2-0.8-1.7-1.2c-0.4-0.3-0.9-0.6-1.3-0.9c-0.5-0.3-1-0.7-1.4-1.1c-0.6-0.5-0.9-1.1-0.8-1.9c0.2-2.1,2.7-4.8,4.7-5.8
					l1-0.5c1-0.5,2.4-0.8,3.8-0.9h0c0.2,0,0.4,0,0.6,0c1,0,4.1,0.2,4.2,2.5c0.1,1,0,2.2-0.1,3.3c0,0.7-0.1,1.4-0.1,2.1
					c-0.1,1.8,0,3.2,0.1,4.3c0.2,2.3,0.3,3.2-1.5,4.1c-0.5,0.3-1,0.4-1.4,0.4C345.5,133.6,344.7,132.9,343.6,131.9z"/>
				<path fill="#CB226B" d="M346,123.9c-0.1-0.3-0.5-0.4-0.8-0.3l-3.5,1.7c-0.3,0.1-0.4,0.5-0.3,0.8c0.1,0.2,0.3,0.3,0.5,0.3
					c0.1,0,0.2,0,0.3-0.1l3.5-1.7C346,124.6,346.1,124.2,346,123.9z"/>
				<path fill="#CB226B" d="M346.1,127.2l-2.1,1c-0.3,0.1-0.4,0.5-0.3,0.8c0.1,0.2,0.3,0.3,0.5,0.3c0.1,0,0.2,0,0.3-0.1l2.1-1
					c0.3-0.1,0.4-0.5,0.3-0.8C346.7,127.2,346.4,127.1,346.1,127.2z"/>
			</g>
		</g>
		<g>
			<g>
				<path fill="#CB226B" d="M553.4,183.9l-3.9-2.9l-3.9,2.9l1.4-4.7l-3.9-2.7l4.8-0.2l1.5-4.4l1.5,4.4l4.8,0.2l-3.9,2.7L553.4,183.9
					L553.4,183.9z M545.9,177.3l2.2,1.5l-0.8,2.7l2.2-1.6l2.2,1.6l-0.8-2.7l2.2-1.5l-2.7-0.1l-0.9-2.5l-0.9,2.5L545.9,177.3
					L545.9,177.3z"/>
			</g>
			<g>
				<path fill="#CB226B" d="M545.2,186.7l-0.9,0l0-0.9l0.9,0c0.2,0,0.5,0,0.7-0.1l0.2,0.9C545.8,186.7,545.5,186.7,545.2,186.7
					L545.2,186.7z M542.5,186.7l-1.8,0l0-0.9l1.8,0L542.5,186.7L542.5,186.7z M547.9,185.8l-0.5-0.8c0.4-0.3,0.8-0.7,1-1.2l0.8,0.5
					C548.9,184.9,548.4,185.4,547.9,185.8L547.9,185.8z M549.8,182.5l-0.9-0.1c0-0.1,0-0.2,0-0.4v-1.4h0.9v1.4
					C549.8,182.2,549.8,182.4,549.8,182.5L549.8,182.5z"/>
			</g>
			<g>
				<path fill="#CB226B" d="M541,200.3l0-0.9l1.8,0l0,0.9L541,200.3L541,200.3z M539.2,200.3h-1.8v-0.9h1.8V200.3L539.2,200.3z
					 M535.7,200.3h-1.4c-0.1,0-0.3,0-0.4,0l0-0.9c0.1,0,0.2,0,0.3,0h1.4V200.3L535.7,200.3z M555.2,200.3v-0.9l1.8,0v0.9
					L555.2,200.3L555.2,200.3z M553.4,200.3h-1.8v-0.9h1.8V200.3L553.4,200.3z M549.9,200.3h-1.8v-0.9h1.8V200.3L549.9,200.3z
					 M546.3,200.3h-1.8v-0.9h1.8V200.3L546.3,200.3z M564.1,200.3h-1.8v-0.9h1.8V200.3L564.1,200.3z M560.5,200.3h-1.8v-0.9h1.8
					V200.3L560.5,200.3z M532.1,200c-0.6-0.2-1.2-0.5-1.7-0.8l0.5-0.8c0.5,0.3,1,0.5,1.5,0.7L532.1,200L532.1,200z M528.9,197.9
					c-0.4-0.5-0.8-1-1.1-1.5l0.8-0.4c0.3,0.5,0.6,0.9,0.9,1.3L528.9,197.9L528.9,197.9z M527.2,194.6c-0.1-0.5-0.2-1-0.2-1.6
					c0-0.1,0-0.2,0-0.3l0.9,0c0,0.1,0,0.2,0,0.3c0,0.5,0.1,0.9,0.1,1.4L527.2,194.6L527.2,194.6z M528.2,191.1l-0.9-0.3
					c0.2-0.6,0.5-1.2,0.8-1.7l0.8,0.5C528.6,190.1,528.4,190.6,528.2,191.1L528.2,191.1z M530,188.4l-0.6-0.7c0.5-0.4,1-0.8,1.5-1.1
					l0.4,0.8C530.8,187.7,530.4,188,530,188.4L530,188.4z M532.9,186.8l-0.2-0.9c0.5-0.1,1.1-0.2,1.6-0.2h0.2v0.9h-0.2
					C533.8,186.7,533.3,186.7,532.9,186.8L532.9,186.8z"/>
			</g>
			<g>
				<path fill="#CB226B" d="M570.8,208.6H569v-0.9h1.8V208.6L570.8,208.6z M567.3,208.6h-1.8v-0.9h1.8V208.6L567.3,208.6z
					 M563.7,208.6h-1.8v-0.9h1.8V208.6L563.7,208.6z M560.2,208.6h-1.8v-0.9h1.8V208.6L560.2,208.6z M556.6,208.6h-1.8v-0.9h1.8
					V208.6L556.6,208.6z M572.7,208.5l-0.2-0.9c0.5-0.1,1-0.4,1.4-0.7l0.6,0.7C573.9,208.1,573.3,208.3,572.7,208.5L572.7,208.5z
					 M575.7,206.1l-0.8-0.4c0.2-0.5,0.4-1,0.4-1.5l0.9,0.1C576.2,204.9,576,205.6,575.7,206.1L575.7,206.1z M575,202.7
					c-0.2-0.5-0.5-0.9-0.9-1.3l0.7-0.7c0.5,0.5,0.8,1,1.1,1.6L575,202.7L575,202.7z M572.9,200.5c-0.4-0.1-0.8-0.2-1.3-0.2h-0.3
					v-0.9h0.3c0.5,0,1.1,0.1,1.6,0.3L572.9,200.5L572.9,200.5z M569.5,200.3h-0.1v-0.9h0.1V200.3L569.5,200.3z"/>
			</g>
			<g>
				<path fill="#CB226B" d="M531.7,219.9h-12.2c-3.4,0-6.1-2.7-6.1-6.1s2.7-6.1,6.1-6.1h30.1v0.9h-30.1c-2.8,0-5.1,2.3-5.1,5.1
					c0,2.8,2.3,5.1,5.1,5.1h12.2V219.9L531.7,219.9z"/>
			</g>
			<g>
				<path fill="#CB226B" d="M550,226.6h-0.9v-3.1c0-2-1.7-3.7-3.7-3.7H537v-0.9h8.4c2.6,0,4.6,2.1,4.6,4.6V226.6L550,226.6z"/>
			</g>
			<g>
				<path fill="#CB226B" d="M544.2,233l5.3-7.9l5.3,7.9L544.2,233L544.2,233z M549.5,226.8L546,232l7.1,0L549.5,226.8L549.5,226.8z"
					/>
			</g>
			<g>
				<g>
					<path fill="#CB226B" d="M570.2,202.8H564v-6.2h6.2V202.8L570.2,202.8z M564.9,201.9h4.4v-4.4h-4.4V201.9L564.9,201.9z"/>
				</g>
			</g>
			<g>
				<g>
					<path fill="#CB226B" d="M541.1,189.2h-6.2V183h6.2V189.2L541.1,189.2z M535.8,188.3h4.4v-4.4h-4.4V188.3L535.8,188.3z"/>
				</g>
			</g>
			<g>
				<g>
					<g>
						<path fill="#CB226B" d="M555.3,211.6h-6.2v-6.2h6.2V211.6L555.3,211.6z M550,210.7h4.4v-4.4H550V210.7L550,210.7z"/>
					</g>
				</g>
				<g>
					<g>
						<g>
							<polygon fill="#CB226B" points="551.7,210.2 549.2,207.7 549.8,207 551.7,208.9 554.5,206 555.2,206.6 551.7,210.2 							
								"/>
						</g>
					</g>
				</g>
			</g>
			<g>
				<g>
					<g>
						<path fill="#CB226B" d="M537.5,222.6h-6.2v-6.2h6.2V222.6L537.5,222.6z M532.1,221.6h4.4v-4.4h-4.4V221.6L532.1,221.6z"/>
					</g>
				</g>
				<g>
					<g>
						<g>
							<polygon fill="#CB226B" points="533.8,221.2 531.3,218.7 532,218 533.8,219.8 536.7,216.9 537.4,217.6 533.8,221.2 							
								"/>
						</g>
					</g>
				</g>
			</g>
		</g>
		<g>
			<g>
				<circle fill="none" cx="165.8" cy="206.2" r="11.9"/>
				<path fill="#CB226B" d="M165.8,218.7c-6.9,0-12.5-5.6-12.5-12.5c0-6.9,5.6-12.5,12.5-12.5s12.5,5.6,12.5,12.5
					C178.4,213.1,172.7,218.7,165.8,218.7z M165.8,194.9c-6.2,0-11.3,5.1-11.3,11.3c0,6.2,5.1,11.3,11.3,11.3
					c6.2,0,11.3-5.1,11.3-11.3C177.1,200,172,194.9,165.8,194.9z"/>
			</g>
			<g>
				<circle fill="none" cx="128.5" cy="205.8" r="11.9"/>
				<path fill="#CB226B" d="M128.5,218.3c-6.9,0-12.5-5.6-12.5-12.5c0-6.9,5.6-12.5,12.5-12.5c6.9,0,12.5,5.6,12.5,12.5
					C141,212.7,135.4,218.3,128.5,218.3z M128.5,194.6c-6.2,0-11.3,5.1-11.3,11.3c0,6.2,5.1,11.3,11.3,11.3
					c6.2,0,11.3-5.1,11.3-11.3C139.8,199.6,134.7,194.6,128.5,194.6z"/>
			</g>
			<g>
				<circle fill="none" cx="166.8" cy="205.9" r="2"/>
				<path fill="#CB226B" d="M166.8,208.5c-1.4,0-2.6-1.2-2.6-2.6s1.2-2.6,2.6-2.6s2.6,1.2,2.6,2.6S168.2,208.5,166.8,208.5z
					 M166.8,204.5c-0.7,0-1.3,0.6-1.3,1.3c0,0.7,0.6,1.3,1.3,1.3c0.7,0,1.3-0.6,1.3-1.3C168.1,205.1,167.5,204.5,166.8,204.5z"/>
			</g>
			<g>
				<circle fill="none" cx="128.6" cy="205.4" r="2"/>
				<path fill="#CB226B" d="M128.6,208c-1.4,0-2.6-1.2-2.6-2.6s1.2-2.6,2.6-2.6c1.4,0,2.6,1.2,2.6,2.6S130.1,208,128.6,208z
					 M128.6,204.1c-0.7,0-1.3,0.6-1.3,1.3c0,0.7,0.6,1.3,1.3,1.3c0.7,0,1.3-0.6,1.3-1.3C130,204.7,129.4,204.1,128.6,204.1z"/>
			</g>
			
				<rect x="153" y="194.8" transform="matrix(0.3653 0.9309 -0.9309 0.3653 285.0374 -27.1744)" fill="#CB226B" width="18.8" height="1.3"/>
			<rect x="130.6" y="205" fill="#CB226B" width="15.3" height="1.3"/>
			
				<rect x="133.9" y="196.6" transform="matrix(0.5993 0.8005 -0.8005 0.5993 214.814 -34.7836)" fill="#CB226B" width="16.4" height="1.3"/>
			<rect x="136.9" y="190.1" fill="#CB226B" width="24" height="1.3"/>
			
				<rect x="153.2" y="188.8" transform="matrix(0.8088 0.5881 -0.5881 0.8088 145.444 -52.7341)" fill="#CB226B" width="1.3" height="17"/>
			
				<rect x="132.9" y="189.1" transform="matrix(0.8436 0.537 -0.537 0.8436 126.575 -40.915)" fill="#CB226B" width="1.3" height="15.4"/>
			<rect x="136.9" y="188.7" fill="#CB226B" width="1.3" height="2.5"/>
			<g>
				<path fill="#CB226B" d="M133.7,187.9c0,0.5,0.4,0.9,0.9,0.9h5.4c0.5,0,0.9-0.4,0.9-0.9l0,0c0-0.5-0.4-0.9-0.9-0.9h-5.4
					C134.1,187,133.7,187.4,133.7,187.9L133.7,187.9z"/>
				<path fill="#CB226B" d="M133.7,187.9c0,0.5,0.4,0.9,0.9,0.9h5.4c0.5,0,0.9-0.4,0.9-0.9l0,0c0-0.5-0.4-0.9-0.9-0.9h-5.4
					C134.1,187,133.7,187.4,133.7,187.9L133.7,187.9z"/>
			</g>
			<path fill="#CB226B" d="M165.9,189.3h-1.3c0-0.7-0.2-1.2-0.6-1.5c-1.2-0.9-3.9-0.1-4.9,0.2l-0.4-1.2c0.4-0.2,4.1-1.4,6,0
				C165.3,187.1,165.9,187.9,165.9,189.3z"/>
			<g>
				<path fill="#CB226B" d="M120,193.1l1,1.1c4.2-3.1,9.9-3.2,14.2-0.4l1.1-1C131.4,189.4,124.8,189.5,120,193.1z"/>
				<path fill="#CB226B" d="M120,193.1l1,1.1c4.2-3.1,9.9-3.2,14.2-0.4l1.1-1C131.4,189.4,124.8,189.5,120,193.1z"/>
			</g>
			<g>
				<path fill="#CB226B" d="M168.6,196.7l-0.2,1c3.5,1.2,5.8,4.4,5.9,8l1,0.2C175.3,201.8,172.6,198,168.6,196.7z"/>
				<path fill="#CB226B" d="M168.6,196.7l-0.2,1c3.5,1.2,5.8,4.4,5.9,8l1,0.2C175.3,201.8,172.6,198,168.6,196.7z"/>
			</g>
			<g>
				<circle fill="none" cx="147.8" cy="205.3" r="2"/>
				<path fill="#CB226B" d="M147.8,207.8c-1.4,0-2.6-1.2-2.6-2.6c0-1.4,1.2-2.6,2.6-2.6c1.4,0,2.6,1.2,2.6,2.6
					C150.4,206.7,149.3,207.8,147.8,207.8z M147.8,203.9c-0.7,0-1.3,0.6-1.3,1.3s0.6,1.3,1.3,1.3c0.7,0,1.3-0.6,1.3-1.3
					S148.6,203.9,147.8,203.9z"/>
			</g>
			
				<rect x="147.2" y="208.2" transform="matrix(0.3672 0.9302 -0.9302 0.3672 288.428 -6.3401)" fill="#CB226B" width="3.3" height="1.3"/>
			<g>
				<path fill="#CB226B" d="M147.6,211.7c0.2,0.4,0.6,0.6,1,0.4l2.8-1.2c0.4-0.2,0.6-0.6,0.4-1l0,0c-0.2-0.4-0.6-0.6-1-0.4l-2.8,1.2
					C147.6,210.8,147.4,211.3,147.6,211.7L147.6,211.7z"/>
				<path fill-rule="evenodd" clip-rule="evenodd" fill="#CB226B" d="M147.6,211.7c0.2,0.4,0.6,0.6,1,0.4l2.8-1.2
					c0.4-0.2,0.6-0.6,0.4-1l0,0c-0.2-0.4-0.6-0.6-1-0.4l-2.8,1.2C147.6,210.8,147.4,211.3,147.6,211.7L147.6,211.7z"/>
			</g>
		</g>
		<g>
			<g>
				<path fill="#CB226B" d="M631.5,65c-5.5,0-9.9-4.4-9.9-9.9c0-4.7,3.8-8.5,8.5-8.5c4.1,0,7.4,3.3,7.4,7.4c0,3.5-2.9,6.4-6.4,6.4
					c-3,0-5.5-2.5-5.5-5.5c0-2.7,2.2-4.8,4.8-4.8c2.3,0,4.2,1.9,4.2,4.2c0,0.7-0.5,1.8-1.3,2.6c-0.7,0.7-1.6,1-2.6,0.9
					c-0.4,0-0.7-0.4-0.7-0.8c0-0.4,0.4-0.7,0.8-0.7c0.5,0,1-0.1,1.4-0.5c0.6-0.6,0.8-1.3,0.8-1.5c0-1.5-1.2-2.7-2.7-2.7
					c-1.8,0-3.3,1.5-3.3,3.3c0,2.2,1.8,4,4,4c2.7,0,4.9-2.2,4.9-4.9c0-3.2-2.6-5.9-5.9-5.9c-3.9,0-7,3.2-7,7c0,4.6,3.8,8.4,8.4,8.4
					c2.6,0,7.8,0,15.5-0.1c0,0,0,0,0,0c0.4,0,0.7,0.3,0.7,0.7c0,0.4-0.3,0.7-0.7,0.8C639.3,65,634.1,65,631.5,65z"/>
			</g>
			<g>
				<path fill="#CB226B" d="M635.6,58.2c-0.2,0-0.4-0.1-0.5-0.2c-0.3-0.3-0.3-0.8,0-1.1l12.8-12.8c0,0,0,0,0,0
					c1-0.9,1.6-2.2,1.6-3.6c0-3.2-2.6-5.9-5.9-5.9c-1.7,0-3.3,0.6-4.6,1.7l-14.1,14.1c-0.3,0.3-0.8,0.3-1.1,0
					c-0.3-0.3-0.3-0.8,0-1.1L638,35.2c0,0,0,0,0,0c1.6-1.3,3.5-2.1,5.6-2.1c4.1,0,7.4,3.3,7.4,7.4c0,1.8-0.7,3.5-2.1,4.7l-12.8,12.8
					C636,58.1,635.8,58.2,635.6,58.2z"/>
			</g>
			<g>
				<path fill="#CB226B" d="M665.4,45.6h-17c-0.4,0-0.7-0.3-0.7-0.7c0-0.4,0.3-0.7,0.7-0.7h17c0.4,0,0.7,0.3,0.7,0.7
					C666.2,45.2,665.8,45.6,665.4,45.6z"/>
			</g>
			<g>
				<path fill="#CB226B" d="M647.3,64.7c-0.2,0-0.4-0.1-0.5-0.2c-0.3-0.3-0.3-0.8,0-1.1l18.8-19.2c0.3-0.3,0.8-0.3,1.1,0
					c0.3,0.3,0.3,0.8,0,1.1l-18.8,19.2C647.7,64.7,647.5,64.7,647.3,64.7z"/>
			</g>
		</g>
		<g>
			<g>
				<path fill="#CB226B" d="M644.2,217.6c-4.1,0-7.9-1.6-10.8-4.5c-2.9-2.9-4.5-6.7-4.5-10.8c0-4.1,1.6-7.9,4.5-10.8
					c2.9-2.9,6.7-4.5,10.8-4.5c4.1,0,7.9,1.6,10.8,4.5c5.9,5.9,5.9,15.6,0,21.5C652.1,216,648.3,217.6,644.2,217.6z M644.2,188.3
					c-3.8,0-7.3,1.5-10,4.1c-2.7,2.7-4.1,6.2-4.1,10c0,3.8,1.5,7.3,4.1,10c2.7,2.7,6.2,4.1,10,4.1c3.8,0,7.3-1.5,10-4.1
					c5.5-5.5,5.5-14.4,0-19.9C651.5,189.8,648,188.3,644.2,188.3z"/>
			</g>
			<g>
				<path fill="#CB226B" d="M633.8,200.8L633.8,200.8c-1.2,0-2.2-0.4-2.9-1.1c-0.6-0.6-0.9-1.3-1-2.1c0-0.1,0-0.2,0-0.3
					c0.8-2.1,2-4,3.6-5.6c1.6-1.6,3.5-2.8,5.6-3.6c0.1,0,0.2,0,0.3,0c0.9,0.1,1.6,0.5,2.1,1c2,2,1.2,6-1.7,8.9
					C638,199.7,635.8,200.8,633.8,200.8z M631,197.5c0.1,0.5,0.3,1,0.7,1.4c0.5,0.5,1.2,0.8,2.1,0.8h0c1.7,0,3.6-0.9,5.2-2.5
					c1.2-1.2,2.1-2.7,2.4-4.1c0.3-1.3,0.1-2.5-0.7-3.2c-0.4-0.4-0.8-0.6-1.4-0.7c-1.9,0.7-3.6,1.8-5.1,3.3
					C632.8,193.9,631.7,195.6,631,197.5z"/>
			</g>
			<g>
				<path fill="#CB226B" d="M635.3,209.4c-2.1,0-4-0.6-5.4-2c-0.2-0.2-0.2-0.6,0-0.8c0.2-0.2,0.6-0.2,0.8,0
					c3.2,3.2,9.8,1.8,14.6-3.1c4.8-4.8,6.2-11.4,3.1-14.6c-0.2-0.2-0.2-0.6,0-0.8c0.2-0.2,0.6-0.2,0.8,0c3.6,3.7,2.2,10.9-3.1,16.2
					C642.8,207.6,638.8,209.4,635.3,209.4z"/>
			</g>
			<g>
				<path fill="#CB226B" d="M639.9,215.9c-1.3,0-2.5-0.2-3.6-0.5c-0.3-0.1-0.5-0.4-0.4-0.7c0.1-0.3,0.4-0.5,0.7-0.4
					c4.7,1.4,10.5-0.4,14.8-4.7c4.3-4.3,6.1-10.1,4.7-14.8c-0.1-0.3,0.1-0.6,0.4-0.7c0.3-0.1,0.6,0.1,0.7,0.4
					c1.6,5.1-0.4,11.3-5,15.9C648.7,213.9,644.1,215.9,639.9,215.9z"/>
			</g>
		</g>
		<g>
			<g>
				<path fill="#CB226B" d="M459.6,219.4c-0.3,0-0.6-0.2-0.7-0.5c-0.8-2.3-3.8-3.3-4.7-3.5c-6.5,4-12.7,3.5-16.8,2.4
					c-4.5-1.2-7.3-3.5-7.5-3.5c-0.1-0.1-0.2-0.3-0.3-0.5c-1.2-9.3,5.7-25.3,6-26c0.1-0.2,0.2-0.3,0.4-0.4c0.2-0.1,5.5-1.9,7.4-1.9
					c2.1,0,2.5,0.3,3.5,1.3c0.7,0.7,2.3,3,2.1,4.5c-0.1,0.5-0.3,0.8-0.6,1c-0.1,0.1-0.3,0.2-0.5,0.3c-1.2,0.8-3.4,2.2-5.1,0.6
					c-0.8-0.8-1.8-1.3-2.7-1.2c-0.4,0-0.7,0.1-0.9,0.4c-0.7,0.7-0.5,6.3,0.2,9.1c0.3,1.5,0.6,3.4,0.7,4.8c1-0.9,2.6-2.1,4.4-2.1
					c3.5-0.1,5.2,1.5,6,2.7c4.2-4.6,9.8-2.8,9.9-2.7c0.4,0.1,0.6,0.5,0.5,0.9c-0.1,0.4-0.5,0.6-0.9,0.5c-0.2-0.1-5.4-1.7-9,3.1
					c-0.2,0.2-0.4,0.3-0.7,0.3c-0.3-0.1-0.5-0.3-0.6-0.5c0-0.1-0.9-2.9-5.1-2.8c-2.5,0.1-4.4,2.8-4.5,2.8c-0.2,0.2-0.5,0.3-0.8,0.3
					c-0.3-0.1-0.5-0.3-0.5-0.6c0,0-0.4-3.8-0.9-6.2c-0.4-1.9-1.2-8.9,0.2-10.4c0.5-0.5,1.1-0.8,1.9-0.8c1.2,0,2.6,0.6,3.7,1.6
					c0.8,0.8,2,0.1,3.3-0.8c0.2-0.1,0.3-0.2,0.5-0.3c0.1-0.5-0.9-2.5-1.7-3.3c-0.8-0.8-0.9-0.9-2.4-0.9c-1.3,0-5,1.2-6.7,1.8
					c-0.9,2.2-6.7,16.3-5.8,24.7c0.8,0.5,3.3,2.2,6.8,3.1c5.6,1.5,10.9,0.7,15.9-2.4c0.2-0.1,0.3-0.1,0.5-0.1c0.2,0,4.7,1,6,4.5
					c0.1,0.4-0.1,0.8-0.4,0.9C459.8,219.4,459.7,219.4,459.6,219.4z"/>
			</g>
		</g>
		<g>
			<g>
				<path fill="#CB226B" d="M247.4,147.2c-3,0-5.1-0.4-6.4-1.3c-0.4-0.3-0.8-0.5-1.2-0.8c-1.2-0.8-2.3-1.6-3.3-1.6
					c-0.3,0-0.6,0.1-0.8,0.2c-0.5,0.2-0.9,0.4-1.4,0.7c-1.8,0.9-4,2-7.2,1.9c-0.4,0-0.8,0-1.2,0c-3.8-0.1-8.1-0.2-9.3-3.3
					c-1.2-3.3-0.4-16.9-0.1-19.6c0.3-2.6,0.6-5.8,3-5.8c0.2,0,0.4,0,0.6,0.1c1.1,0.2,1.7,1.4,2.3,2.4c0.8,1.4,1.4,2.3,2.4,2.2
					c2.9-0.3,4.9-1,5.9-2.1c0.5-0.9,3.2-5.8,6.9-5.8c1,0,1.9,0.3,2.8,1c4.4,3.2,22.2,12.4,30.4,13.5c4.3,0.6,5.8,2.5,6.3,4.1
					c0.8,2.8-1.1,6.2-3.2,8c-2.9,2.5-9.1,4.4-18.5,5.6C252.1,147,249.5,147.2,247.4,147.2z M236.5,141.7c1.6,0,3,0.9,4.4,1.9
					c0.4,0.2,0.7,0.5,1.1,0.7c1.1,0.7,2.8,1,5.4,1c2,0,4.5-0.2,7.6-0.6c8.9-1.1,14.9-2.9,17.5-5.2c1.7-1.5,3.2-4.1,2.7-6
					c-0.5-1.8-2.8-2.5-4.7-2.7c-8.5-1.2-26.8-10.5-31.3-13.8c-0.6-0.4-1.1-0.6-1.7-0.6c-2.4,0-4.6,3.5-5.3,4.8
					c0,0.1-0.1,0.1-0.1,0.2c-1.3,1.5-3.6,2.4-7.2,2.8c-2.4,0.3-3.5-1.8-4.3-3.2c-0.3-0.5-0.8-1.4-1-1.5c-0.1,0-0.1,0-0.2,0
					c-0.7,0-1,2.9-1.1,4c-0.5,4.4-0.9,16.3,0,18.8c0.7,1.9,4.5,2,7.5,2.1c0.4,0,0.8,0,1.2,0c2.6,0.1,4.5-0.8,6.3-1.7
					c0.5-0.3,1-0.5,1.5-0.7C235.4,141.8,236,141.7,236.5,141.7z"/>
			</g>
			<g>
				<path fill="#CB226B" d="M246.4,141c-14.3,0-27.7-1.6-28.7-1.7c-0.5-0.1-0.9-0.5-0.8-1.1c0.1-0.5,0.5-0.9,1.1-0.8
					c0.4,0,41.9,4.9,57.1-2.3c0.5-0.2,1.1,0,1.3,0.5c0.2,0.5,0,1.1-0.5,1.3C269,140.1,257.4,141,246.4,141z"/>
			</g>
			<g>
				<path fill="#CB226B" d="M240,123.4c-0.4,0-0.8-0.2-0.9-0.6c-0.2-0.5,0.1-1.1,0.6-1.2c2.9-1.1,3-2.3,3-2.4
					c-0.1-0.5,0.3-1,0.9-1.1c0.5-0.1,1,0.3,1.1,0.9c0,0.3,0.2,2.7-4.2,4.4C240.2,123.3,240.1,123.4,240,123.4z"/>
			</g>
			<g>
				<path fill="#CB226B" d="M244.3,125.9c-0.4,0-0.8-0.2-0.9-0.6c-0.2-0.5,0.1-1.1,0.6-1.2c2.9-1.1,2.9-2.4,2.9-2.4c0,0,0,0,0,0
					l1.9-0.2c0,0.3,0.2,2.7-4.2,4.4C244.6,125.8,244.4,125.9,244.3,125.9z"/>
			</g>
			<g>
				<path fill="#CB226B" d="M248.7,128.1c-0.4,0-0.8-0.2-0.9-0.6c-0.2-0.5,0.1-1.1,0.6-1.2c2.9-1.1,3-2.3,3-2.4
					c-0.1-0.5,0.3-1,0.9-1.1c0.5-0.1,1,0.3,1.1,0.9c0,0.3,0.2,2.7-4.2,4.4C248.9,128.1,248.8,128.1,248.7,128.1z"/>
			</g>
			<g>
				<path fill="#CB226B" d="M253.6,130.6c-0.4,0-0.8-0.2-0.9-0.6c-0.2-0.5,0.1-1.1,0.6-1.2c2.9-1.1,2.9-2.4,2.9-2.4c0,0,0,0,0,0
					l1.9-0.2c0,0.3,0.2,2.7-4.2,4.4C253.8,130.6,253.7,130.6,253.6,130.6z"/>
			</g>
			<g>
				<path fill="#CB226B" d="M230.2,139.7c-0.5,0-0.9-0.4-1-0.9c-0.3-9.4-11.3-10.3-11.8-10.4c-0.5,0-0.9-0.5-0.9-1
					c0-0.5,0.5-0.9,1-0.9c0.1,0,13.3,1.1,13.6,12.2C231.2,139.3,230.8,139.7,230.2,139.7C230.2,139.7,230.2,139.7,230.2,139.7z"/>
			</g>
			<g>
				<path fill="#CB226B" d="M244.6,119.9c-0.3,0-0.7-0.2-0.8-0.5c-0.5-0.9-4.8-9-2.7-13c0.5-0.9,1.5-2,3.6-2.2c0.2,0,0.4,0,0.6,0
					c1.8,0,2.7,0.9,3.1,1.6c2.2,3.6-2.3,12.6-2.9,13.6C245.3,119.7,244.9,119.9,244.6,119.9C244.6,119.9,244.6,119.9,244.6,119.9z
					 M245.2,106.1c-0.1,0-0.3,0-0.4,0c-1.4,0.1-1.8,0.7-2.1,1.2c-1.1,2.1,0.5,6.6,1.8,9.4c1.6-3.5,3.1-8.2,2.1-10
					C246.5,106.5,246.1,106.1,245.2,106.1z"/>
			</g>
			<g>
				<path fill="#CB226B" d="M252.7,120.4c-3.8,0-7.9-0.9-8.1-1c-0.3-0.1-0.6-0.3-0.7-0.7c-0.1-0.3,0-0.7,0.3-0.9
					c0.3-0.2,6.3-6,10.7-6c1.4,0,3.2,0.5,4.1,3.1c0.5,1.4,0.4,2.6-0.2,3.6C257.8,119.8,255.9,120.4,252.7,120.4z M247,117.9
					c1.5,0.3,3.7,0.6,5.7,0.6c3.2,0,4.2-0.7,4.5-1.2c0.1-0.2,0.4-0.6,0-1.8c-0.4-1.2-1.1-1.8-2.3-1.8
					C252.6,113.7,249.1,116.1,247,117.9z"/>
			</g>
		</g>
		<g>
			<path fill="#CB226B" d="M658.9,267.1c0.2-0.3,0.3-0.6,0.4-0.9c0.8-2.6-0.6-5.3-3.1-6.2c-0.8-0.3-1.7-0.3-2.5-0.1
				c-0.6-0.6-1.4-1.1-2.3-1.4c-1.9-0.6-3.9-0.2-5.5,1c-0.6-0.4-1.2-0.8-1.9-1c-2.4-0.8-5,0.1-6.6,2.2c-1.4-0.2-2.9,0.4-3.8,1.5
				c-2.4,0.4-4.2,2.5-4.2,5c0,0.8,0.2,1.6,0.6,2.3c-1.3,0.9-2.2,2.4-2.2,4.2c0,1.3,0.5,2.6,1.4,3.5c0.9,0.9,2.1,1.5,3.3,1.5
				c0.7,0.8,1.7,1.3,2.8,1.3c0.1,0,0.2,0,0.3,0c0.1,0.2,0.3,0.3,0.4,0.4c2.2,4.6,2.6,12.6,2.6,18.5c0,0.6,0.5,1.1,1.1,1.1h6.2
				c0.6,0,1.1-0.5,1.1-1.1c0-8.7,4-15.7,6.1-18.7c0.7,0.3,1.4,0.5,2.1,0.5c2.8,0,5-2.3,5-5c0-0.6-0.1-1.2-0.3-1.7
				c0.1-0.3,0.3-0.6,0.4-0.9C661,270.9,660.4,268.6,658.9,267.1L658.9,267.1z M659,272.6c-0.1,0.3-0.2,0.5-0.3,0.8
				c-0.2,0.4-0.2,0.7-0.1,0.9c0.2,0.4,0.3,0.9,0.3,1.4c0,2-1.7,3.7-3.7,3.7c-0.6,0-1.2-0.2-1.9-0.6c-0.3-0.2-1-0.8-1.2-1
				c-0.2-0.3-0.7-0.3-0.9,0c-0.3,0.2-0.3,0.7,0,0.9c0.2,0.2,0.6,0.5,0.9,0.8c-1.1,1.6-2.5,3.9-3.7,6.9c-1.7,4.1-2.6,8.2-2.6,12.3
				H640c0-5.3-0.4-12.3-2.1-17.1c0.5,0.2,1,0.2,1.6,0.2c0.1,0,0.2,0,0.4,0c0.1,0.3,0.2,0.5,0.4,0.8c0.4,0.9,0.8,1.9,1,2.7
				c0.1,0.3,0.3,0.5,0.7,0.5c0,0,0,0,0,0c0.5,0,0.6-0.5,0.7-0.7c0-0.1,0.1-0.3,0.1-0.4c0.1-0.4,0.2-0.9,0.3-1.4
				c0.1-0.4,0.3-1.3,0.4-2.1c0.4,0.1,0.8,0.1,1.2,0.1c0.1,0,0.2,0,0.3,0v4.6c0,0.3,0.2,0.6,0.5,0.6c0.1,0,0.1,0,0.2,0
				c0.2,0,0.5-0.1,0.6-0.4c1.3-2.3,3.4-6.2,3.6-6.6c0.1-0.1,0.2-0.4,0.2-0.5c0-0.3-0.3-0.7-0.7-0.7c-0.3,0-0.6,0-0.9-0.1
				c-0.1,0-0.2-0.1-0.3-0.1c-0.2-0.1-0.6,0-0.8,0.2c-0.1,0.1-0.1,0.1-0.2,0.2c-0.5,0.5-0.8,0.9-1.3,1.1c-0.4,0.1-0.8,0.2-1.2,0.2
				c-0.5,0-1-0.1-1.4-0.3c0,0,0,0-0.1,0c-0.1-0.1-0.3-0.1-0.4-0.2c0,0,0,0,0,0c-0.3-0.2-0.6-0.1-0.8,0.1c-0.4,0.3-0.8,0.5-1.3,0.7
				c-0.3,0.1-0.6,0.1-1,0.1c-0.9,0-1.8-0.3-2.5-0.9c0,0,0,0,0,0c-0.2-0.1-0.3-0.3-0.4-0.5l0,0c-0.1-0.2-0.4-0.5-1-0.4
				c-0.1,0-0.2,0-0.3,0c-0.7,0-1.3-0.3-1.8-0.9c-0.2-0.3-0.5-0.4-0.8-0.4c-2-0.1-3.6-1.7-3.6-3.7c0-1.4,0.8-2.7,1.9-3.2
				c0.3-0.1,0.4-0.4,0.4-0.5c0.1-0.2,0-0.5-0.1-0.7c-0.4-0.7-0.6-1.3-0.6-2c0-1.9,1.4-3.5,3.3-3.7c0.2,0,0.4-0.1,0.5-0.3
				c0.7-0.9,1.8-1.3,2.9-1.2c0.4,0.1,0.8-0.1,1.1-0.5c1.2-1.7,3.3-2.4,5.1-1.8c0.6,0.2,1.2,0.5,1.6,1c0.3,0.3,0.8,0.4,1.3,0
				c1.2-1.1,2.9-1.4,4.4-0.9c0.7,0.2,1.3,0.6,1.8,1.1c0,0,0,0,0,0c0.2,0.2,0.5,0.4,1,0.3c0.6-0.2,1.3-0.1,2,0.1
				c1.9,0.6,2.9,2.6,2.3,4.5c-0.1,0.3-0.3,0.6-0.4,0.9c-0.3,0.4-0.2,0.8,0.1,1.1c0,0,0,0,0,0C659,269,659.6,270.9,659,272.6
				L659,272.6z M641.2,281.5c0.3-0.1,0.6-0.2,0.9-0.4c-0.1,0.5-0.2,1.1-0.3,1.7c-0.1-0.2-0.2-0.5-0.3-0.7
				C641.3,281.9,641.2,281.7,641.2,281.5L641.2,281.5z M646.2,281.2c0.8-0.3,1.3-0.8,1.8-1.3c0,0,0.2,0,0.2,0
				c-0.5,0.8-1.2,2.2-2,3.6V281.2z M646.2,281.2"/>
			<path fill="#CB226B" d="M653.3,268.1c-0.5-0.1-1.1-0.1-1.6,0.1c-0.3-2-1.9-3.6-3.9-4c-2.5-0.5-5,1.1-5.6,3.5
				c-0.1,0.4,0.1,0.7,0.5,0.8c0.4,0.1,0.7-0.1,0.8-0.5c0.5-1.8,2.3-2.9,4.1-2.6c1.7,0.3,3,1.9,2.9,3.6c0,0.2,0.1,0.5,0.3,0.6
				c0.2,0.1,0.5,0.1,0.7,0c0.5-0.3,1.1-0.4,1.6-0.3c1.2,0.2,2.1,1.4,1.8,2.7c-0.1,0.3-0.1,0.5-0.3,0.8c-0.2,0.3-0.1,0.7,0.2,0.9
				c0.1,0.1,0.2,0.1,0.3,0.1c0.2,0,0.4-0.1,0.6-0.3c0.2-0.4,0.4-0.8,0.5-1.2c0.2-1,0-1.9-0.6-2.7
				C655.1,268.8,654.3,268.3,653.3,268.1L653.3,268.1z M653.3,268.1"/>
			<path fill="#CB226B" d="M642,271.3c-1-0.9-2.2-1.3-3.5-1.3c-1.3,0.1-2.5,0.6-3.4,1.6c-0.8,0.9-1.3,2-1.3,3.2
				c0,0.4,0.3,0.7,0.7,0.7h0c0.4,0,0.7-0.3,0.7-0.7c0-0.9,0.3-1.7,0.9-2.4c0.6-0.7,1.5-1.1,2.5-1.1c0.9,0,1.9,0.3,2.6,0.9
				c0.3,0.3,0.6,0.6,0.8,1c0.2,0.3,0.6,0.5,0.9,0.3c0.3-0.2,0.5-0.6,0.3-0.9C642.8,272.2,642.5,271.7,642,271.3L642,271.3z
				 M642,271.3"/>
		</g>
		<g>
			<path fill="#CB226B" d="M465.7,268.3h-6.6c-0.3,0-0.6,0.3-0.6,0.6c0,0.3,0.3,0.6,0.6,0.6h0.9c-0.3,7.8-6.8,14.1-14.7,14.1
				s-14.4-6.3-14.7-14.1h25.1c0.3,0,0.6-0.3,0.6-0.6c0-0.3-0.3-0.6-0.6-0.6H425c-0.3,0-0.6,0.3-0.6,0.6c0,5.6,2.2,10.9,6.1,14.8
				c4,4,9.2,6.1,14.8,6.1c5.6,0,10.9-2.2,14.8-6.1c4-4,6.1-9.2,6.1-14.8C466.4,268.5,466.1,268.3,465.7,268.3L465.7,268.3z
				 M445.4,288.6c-10.7,0-19.4-8.5-19.7-19.1h3.7c0.3,8.5,7.4,15.4,16,15.4s15.7-6.8,16-15.4h3.7
				C464.8,280.1,456.1,288.6,445.4,288.6L445.4,288.6z M445.4,288.6"/>
			<path fill="#CB226B" d="M435.1,275.1v1.6c0,0.4,0.3,0.7,0.7,0.7c0.4,0,0.7-0.3,0.7-0.7v-1.6c0-0.4-0.3-0.7-0.7-0.7
				C435.4,274.4,435.1,274.7,435.1,275.1L435.1,275.1z M435.1,275.1"/>
			<path fill="#CB226B" d="M440.3,278.6v1.4c0,0.4,0.3,0.7,0.7,0.7c0.4,0,0.7-0.3,0.7-0.7v-1.4c0-0.4-0.3-0.7-0.7-0.7
				C440.6,277.9,440.3,278.2,440.3,278.6L440.3,278.6z M440.3,278.6"/>
			<path fill="#CB226B" d="M438.1,271.3v1.4c0,0.4,0.3,0.7,0.7,0.7c0.4,0,0.7-0.3,0.7-0.7v-1.4c0-0.4-0.3-0.7-0.7-0.7
				C438.4,270.6,438.1,270.9,438.1,271.3L438.1,271.3z M438.1,271.3"/>
			<path fill="#CB226B" d="M443.3,273.4v1.6c0,0.4,0.3,0.7,0.7,0.7c0.4,0,0.7-0.3,0.7-0.7v-1.6c0-0.4-0.3-0.7-0.7-0.7
				C443.6,272.7,443.3,273,443.3,273.4L443.3,273.4z M443.3,273.4"/>
			<path fill="#CB226B" d="M454.6,272.3v1.5c0,0.4,0.3,0.7,0.7,0.7c0.4,0,0.7-0.3,0.7-0.7v-1.5c0-0.4-0.3-0.7-0.7-0.7
				C454.9,271.6,454.6,271.9,454.6,272.3L454.6,272.3z M454.6,272.3"/>
			<path fill="#CB226B" d="M451.3,276.7v1.5c0,0.4,0.3,0.7,0.7,0.7c0.4,0,0.7-0.3,0.7-0.7v-1.5c0-0.4-0.3-0.7-0.7-0.7
				C451.6,276,451.3,276.3,451.3,276.7L451.3,276.7z M451.3,276.7"/>
			<path fill="#CB226B" d="M448.4,272v1.6c0,0.4,0.3,0.7,0.7,0.7c0.4,0,0.7-0.3,0.7-0.7V272c0-0.4-0.3-0.7-0.7-0.7
				C448.7,271.3,448.4,271.6,448.4,272L448.4,272z M448.4,272"/>
			<path fill="#CB226B" d="M446.2,278.6v1.6c0,0.4,0.3,0.7,0.7,0.7c0.4,0,0.7-0.3,0.7-0.7v-1.6c0-0.4-0.3-0.7-0.7-0.7
				C446.5,277.9,446.2,278.2,446.2,278.6L446.2,278.6z M446.2,278.6"/>
		</g>
		<g>
			<path fill="#CB226B" d="M551.5,270c-0.1-0.3-0.3-0.5-0.6-0.5c-0.3,0-0.6,0.1-0.9,0.4c-0.2-2.4-0.7-4.7-1.3-6.6
				c-1-3.1-2.2-4.6-3.7-4.6c-1.4,0-2.6,1.6-3.8,4.9c-0.7,1.9-1.3,4.2-1.6,6.4c-0.3-0.3-0.6-0.5-0.9-0.5c-0.3,0-0.5,0.2-0.6,0.5
				c-1.8,5.3-2.6,9.9-2.6,13.7c0,3.1,0.6,5.7,1.8,7.8c1.5,2.6,3.4,3.5,4.4,3.9l0,3.3c0,0.4,0.3,0.7,0.7,0.7h4.7
				c0.4,0,0.7-0.3,0.7-0.6l0.1-3.3c0.9-0.3,3-1.2,4.5-3.9c1.2-2.1,1.8-4.7,1.8-7.8C554.2,279.9,553.3,275.3,551.5,270L551.5,270z
				 M542.5,264.1c1.1-3.2,2.1-4,2.5-4c0.6,0,1.5,1,2.4,3.7c0.8,2.4,1.3,5.7,1.4,8.9c-0.5,1.8-0.9,4.4-1.5,8.1
				c-0.9,5.9-2.2,8.1-2.7,8.6c-0.5-0.5-1.8-2.7-2.7-8.6c-0.1-0.4-0.1-0.9-0.2-1.4c-0.4-3.1-0.8-5.2-1.2-6.8
				C540.7,272.3,541.6,266.6,542.5,264.1L542.5,264.1z M551.2,290.8c-1.7,3-4.1,3.4-4.1,3.4c-0.3,0.1-0.5,0.3-0.5,0.6l-0.1,3.1H543
				l0-3.1c0-0.3-0.2-0.6-0.5-0.6c0,0-2.4-0.5-4-3.4c-1.6-2.8-2.8-8.5,0.6-19.2c0.2,0.4,0.4,1.1,0.6,2.2c0.4,1.7,0.7,3.8,1,5.8
				c0.1,0.5,0.1,0.9,0.2,1.4c0.7,4.5,2.1,9.8,4,9.8c1.9,0,3.3-5.3,4-9.8c0.3-2.1,0.7-4.6,1.1-6.6c0.3-1.5,0.6-2.4,0.8-2.9
				C554,282.3,552.8,287.9,551.2,290.8L551.2,290.8z M551.2,290.8"/>
			<path fill="#CB226B" d="M543.2,268.7c0.4,0,0.7-0.3,0.7-0.7v-0.3c0-0.4-0.3-0.7-0.7-0.7c-0.4,0-0.7,0.3-0.7,0.7v0.3
				C542.5,268.4,542.8,268.7,543.2,268.7L543.2,268.7z M543.2,268.7"/>
			<path fill="#CB226B" d="M546.7,271.8v-0.3c0-0.4-0.3-0.7-0.7-0.7c-0.4,0-0.7,0.3-0.7,0.7v0.3c0,0.4,0.3,0.7,0.7,0.7
				C546.4,272.4,546.7,272.1,546.7,271.8L546.7,271.8z M546.7,271.8"/>
			<path fill="#CB226B" d="M547,268c0.4,0,0.7-0.3,0.7-0.7V267c0-0.4-0.3-0.7-0.7-0.7c-0.4,0-0.7,0.3-0.7,0.7v0.3
				C546.3,267.7,546.6,268,547,268L547,268z M547,268"/>
			<path fill="#CB226B" d="M546.5,276c-0.4,0-0.7,0.3-0.7,0.7v0.3c0,0.4,0.3,0.7,0.7,0.7c0.4,0,0.7-0.3,0.7-0.7v-0.3
				C547.1,276.3,546.8,276,546.5,276L546.5,276z M546.5,276"/>
			<path fill="#CB226B" d="M544,284.6v0.3c0,0.4,0.3,0.7,0.7,0.7c0.4,0,0.7-0.3,0.7-0.7v-0.3c0-0.4-0.3-0.7-0.7-0.7
				C544.3,283.9,544,284.2,544,284.6L544,284.6z M544,284.6"/>
			<path fill="#CB226B" d="M543.2,279.6v0.3c0,0.4,0.3,0.7,0.7,0.7c0.4,0,0.7-0.3,0.7-0.7v-0.3c0-0.4-0.3-0.7-0.7-0.7
				C543.5,279,543.2,279.3,543.2,279.6L543.2,279.6z M543.2,279.6"/>
			<path fill="#CB226B" d="M545.5,264.2c0.4,0,0.7-0.3,0.7-0.7v-0.3c0-0.4-0.3-0.7-0.7-0.7c-0.4,0-0.7,0.3-0.7,0.7v0.3
				C544.8,263.9,545.1,264.2,545.5,264.2L545.5,264.2z M545.5,264.2"/>
			<path fill="#CB226B" d="M543.2,275c0.4,0,0.7-0.3,0.7-0.7V274c0-0.4-0.3-0.7-0.7-0.7c-0.4,0-0.7,0.3-0.7,0.7v0.3
				C542.5,274.7,542.8,275,543.2,275L543.2,275z M543.2,275"/>
		</g>
		<g>
			<path fill="#CB226B" d="M139.2,62.4h-0.5c-0.4,0-0.7,0.3-0.7,0.7c0,0.4,0.3,0.7,0.7,0.7h0.5c0.4,0,0.7-0.3,0.7-0.7
				C139.9,62.7,139.6,62.4,139.2,62.4L139.2,62.4z M139.2,62.4"/>
			<path fill="#CB226B" d="M141.7,58c-0.3-0.3-0.7-0.3-0.9,0c-0.3,0.3-0.3,0.7,0,0.9l0.4,0.4c0.1,0.1,0.3,0.2,0.5,0.2
				c0.2,0,0.3-0.1,0.5-0.2c0.3-0.3,0.3-0.7,0-0.9L141.7,58z M141.7,58"/>
			<path fill="#CB226B" d="M155.6,62.4h-0.5c-0.4,0-0.7,0.3-0.7,0.7c0,0.4,0.3,0.7,0.7,0.7h0.5c0.4,0,0.7-0.3,0.7-0.7
				C156.3,62.7,156,62.4,155.6,62.4L155.6,62.4z M155.6,62.4"/>
			<path fill="#CB226B" d="M147.2,55.4c-0.4,0-0.6,0.3-0.6,0.7v0.5c0,0.4,0.2,0.7,0.6,0.7c0.4,0,0.6-0.3,0.6-0.7V56
				C147.8,55.7,147.5,55.4,147.2,55.4L147.2,55.4z M147.2,55.4"/>
			<path fill="#CB226B" d="M152.7,58l-0.4,0.4c-0.3,0.3-0.3,0.7,0,0.9c0.1,0.1,0.3,0.2,0.5,0.2c0.2,0,0.3-0.1,0.5-0.2l0.4-0.4
				c0.3-0.3,0.3-0.7,0-0.9C153.4,57.7,152.9,57.7,152.7,58L152.7,58z M152.7,58"/>
			<path fill="#CB226B" d="M158,50.2c-1.5-1.3-3.2-2.3-4.9-3v-6.5c3.2,0,5.9-1.5,7.9-4.1c1.5-2,2-4,2-4.1c0.1-0.2,0-0.4-0.1-0.6
				c-0.1-0.2-0.3-0.3-0.5-0.3h-30.5c-0.2,0-0.4,0.1-0.5,0.3c-0.1,0.2-0.2,0.4-0.1,0.6c0,0.1,0.6,2.1,2,4.1c2,2.7,4.7,4.1,7.9,4.1
				v6.5c-1.8,0.7-3.5,1.7-4.9,3c-3.3,2.8-5,6.6-5,10.7v4.9c0,0.4,0.3,0.7,0.7,0.7h30.5c0.4,0,0.7-0.3,0.7-0.7v-4.9
				C163.1,56.8,161.3,53,158,50.2L158,50.2z M134.4,35.8c-0.8-1.1-1.3-2.1-1.6-2.8h28.6c-0.3,0.7-0.8,1.8-1.6,2.8
				c-1.8,2.4-4.1,3.6-6.9,3.6h-2v0c-0.4,0-0.6,0.3-0.6,0.7c0,0.4,0.3,0.6,0.6,0.7v0h0.7v6c-1.4-0.4-2.9-0.7-4.4-0.7H147
				c-1.5,0-3,0.2-4.4,0.7v-6l6.1,0c0.4,0,0.7-0.3,0.7-0.7c0-0.4-0.3-0.7-0.7-0.7h-7.3C138.5,39.4,136.2,38.2,134.4,35.8L134.4,35.8z
				 M145.2,65.1C145.2,65.1,145.2,65.1,145.2,65.1c0-0.7,0.3-1.4,0.9-1.7l0.4,0.9c0.1,0.3,0.4,0.4,0.6,0.4c0.1,0,0.2,0,0.3,0
				c0.3-0.1,0.5-0.5,0.4-0.9l-0.3-0.8c1.1,0.1,1.9,1,1.9,2c0,0,0,0,0,0.1H145.2z M150.6,65c0-1.9-1.5-3.4-3.4-3.4
				c-0.1,0-0.3,0-0.4,0l-1.9-4.6c-0.1-0.3-0.5-0.5-0.9-0.4c-0.3,0.1-0.5,0.5-0.4,0.9l1.8,4.5c-1,0.6-1.7,1.7-1.7,2.9v0
				c0,0-7.8,0-7.8,0c0-6.2,4.9-11.2,11-11.2h0.2c6.1,0,11,5,11,11.2C158.2,65.1,150.6,65.1,150.6,65L150.6,65z M161.8,65.1h-2.2
				c0,0,0,0,0,0c0-3.3-1.3-6.4-3.6-8.8c-2.3-2.4-5.4-3.7-8.7-3.7h-0.2c-3.3,0-6.4,1.3-8.7,3.7c-2.3,2.4-3.6,5.5-3.6,8.8c0,0,0,0,0,0
				h-2.2v-4.3c0-7.9,7.6-13.4,14.4-13.4h0.4c6.8,0,14.4,5.5,14.4,13.4V65.1z M161.8,65.1"/>
		</g>
		<g>
			<path fill="#CB226B" d="M31.5,63.3L29.8,65c-0.1,0.1-0.1,0.4,0,0.5c0.1,0.1,0.2,0.1,0.3,0.1s0.2,0,0.3-0.1l1.7-1.7
				c0.1-0.1,0.1-0.4,0-0.5C31.9,63.2,31.6,63.2,31.5,63.3z"/>
			<path fill="#CB226B" d="M37.9,57.4c-0.1-0.1-0.4-0.1-0.5,0l-5.2,5.2c-0.1,0.1-0.1,0.4,0,0.5c0.1,0.1,0.2,0.1,0.3,0.1
				c0.1,0,0.2,0,0.3-0.1l5.2-5.2C38.1,57.8,38.1,57.5,37.9,57.4z"/>
			<path fill="#CB226B" d="M54.2,51c3.3,0,6.6-1.5,9.3-4.1c0.7-0.7,1.3-1.5,1.9-2.3c0,0,0,0,0,0c1.3-1.9,2-4,2.2-6c0,0,0-0.1,0-0.1
				c0-0.5,0-1,0-1.5c0,0,0-0.1,0-0.1c-0.1-2-0.9-3.9-2.3-5.3l0,0l0,0l0,0c-1.5-1.5-3.6-2.3-6-2.3c-3.3,0-6.6,1.5-9.3,4.1
				c-2.3,2.3-3.7,5.1-4.1,8c-0.4,2.9,0.4,5.5,2.3,7.3l0,0l0,0C49.5,50,51.7,51,54.2,51z M58.2,30.1l0.4,0.4L55,33.9l-2-2
				C54.6,30.9,56.4,30.2,58.2,30.1z M64.4,31.9l-1.7,1.7l-3.1-3.1L60,30C61.7,30.2,63.2,30.8,64.4,31.9z M66.8,36.8l-0.4,0.4
				l-3.1-3.1l1.7-1.7C66,33.6,66.6,35.1,66.8,36.8z M64.9,43.8l-2-2l3.5-3.5l0.4,0.4C66.6,40.4,65.9,42.2,64.9,43.8z M55.2,50.2
				l-0.4-0.4l3.5-3.5l2,2C58.7,49.4,57,50,55.2,50.2z M48.9,48.4l1.7-1.7l3.1,3.1l-0.4,0.4C51.6,50.1,50.1,49.5,48.9,48.4z
				 M54.3,49.3l-3.1-3.1l3.5-3.5l3.1,3.1L54.3,49.3z M55.2,42.1l3.5-3.5l3.1,3.1l-3.5,3.5L55.2,42.1z M59.2,38.1l3.5-3.5l3.1,3.1
				l-3.5,3.5L59.2,38.1z M59.1,31l3.1,3.1l-3.5,3.5l-3.1-3.1L59.1,31z M58.2,38.1l-3.5,3.5l-3.1-3.1L55,35L58.2,38.1z M54.2,42.1
				l-3.5,3.5l-3.1-3.1L51,39L54.2,42.1z M50.1,46.2l-1.7,1.7c-1.1-1.2-1.7-2.7-1.8-4.4L47,43L50.1,46.2z M62.9,46.3
				c-0.6,0.6-1.2,1.1-1.9,1.6l-2.1-2.1l3.5-3.5l2.1,2.1C64,45.1,63.5,45.7,62.9,46.3z M50.5,33.9c0.6-0.6,1.2-1.1,1.9-1.6l2.1,2.1
				L51,38l-2.1-2.1C49.3,35.1,49.9,34.5,50.5,33.9z M48.5,36.4l2,2L47,42l-0.4-0.4c0-0.1,0-0.1,0-0.2C46.8,39.7,47.5,38,48.5,36.4z"
				/>
			<path fill="#CB226B" d="M65.5,55.3C65.5,55.3,65.5,55.3,65.5,55.3c-1.3-0.9-2.9-1.5-4.6-1.5c-1.8,0-3.4,0.6-4.7,1.5
				c0,0-0.1,0-0.1,0.1c-1.9,1.4-3.1,3.7-3.1,6.3c0,4.3,3.5,7.9,7.9,7.9s7.9-3.5,7.9-7.9C68.8,59.1,67.5,56.7,65.5,55.3z M64.9,55.8
				v5.2c0,2.2-1.8,4-4,4s-4-1.8-4-4v-5c1.2-0.8,2.6-1.3,4.1-1.3C62.4,54.6,63.8,55,64.9,55.8z M60.9,68.9c-3.9,0-7.2-3.2-7.2-7.2
				c0-2.1,0.9-3.9,2.3-5.2v4.4c0,2.6,2.1,4.8,4.8,4.8s4.8-2.1,4.8-4.8v-4.6c1.5,1.3,2.5,3.2,2.5,5.4C68.1,65.7,64.9,68.9,60.9,68.9z
				"/>
			<path fill="#CB226B" d="M59.5,64c0,0,0.1,0,0.2,0c0.1,0,0.3-0.1,0.3-0.2c0.1-0.2,0-0.4-0.2-0.5c-0.4-0.2-0.8-0.5-1-0.9
				c-0.1-0.2-0.3-0.2-0.5-0.1c-0.2,0.1-0.2,0.3-0.1,0.5C58.5,63.3,58.9,63.7,59.5,64z"/>
			<path fill="#CB226B" d="M60.9,64.3c1.8,0,3.3-1.5,3.3-3.3v-3.6c0-0.2-0.2-0.4-0.4-0.4c-0.2,0-0.4,0.2-0.4,0.4V61
				c0,1.4-1.2,2.6-2.6,2.6c-0.2,0-0.4,0.2-0.4,0.4C60.5,64.1,60.7,64.3,60.9,64.3z"/>
			<path fill="#CB226B" d="M55.9,52.2C55.9,52.2,56,52.2,55.9,52.2c3-0.6,6-2.1,8.3-4.5c5.3-5.3,6.2-13,2-17.2
				c-1.7-1.7-4.1-2.6-6.7-2.6c-3.7,0-7.5,1.7-10.4,4.7c-2.4,2.4-3.9,5.4-4.5,8.2c0,0,0,0.1-0.1,0.1l-4.3,13c-0.1,0-0.1,0-0.2,0.1
				l-2.7,1.7c0,0,0,0,0,0c0,0,0,0-0.1,0c0,0,0,0,0,0l0,0L26.7,66.4c-0.1,0.1-0.1,0.2-0.1,0.3s0,0.2,0.1,0.3l3.2,3.2
				c0.1,0.1,0.2,0.1,0.3,0.1s0.2,0,0.3-0.1l10.7-10.7l0,0c0,0,0,0,0,0c0,0,0,0,0-0.1c0,0,0,0,0,0l1.7-2.7c0-0.1,0-0.1,0.1-0.2
				L55.9,52.2z M41,54.4l3.5-10.7c0,0.8,0.2,1.6,0.4,2.3l-2.6,8.1c0,0.1,0,0.3,0.1,0.4c0.1,0.1,0.2,0.1,0.3,0.1c0,0,0.1,0,0.1,0
				l8.1-2.6c0.7,0.2,1.5,0.4,2.3,0.4l-10.7,3.5L41,54.4z M45.8,48c0.1,0.2,0.2,0.4,0.4,0.6c0,0,0.1,0.1,0.1,0.1c0,0,0.1,0.1,0.1,0.1
				c0.1,0.1,0.1,0.2,0.2,0.2c0,0,0,0,0.1,0.1c0.1,0.1,0.1,0.1,0.2,0.2c0,0,0,0.1,0.1,0.1c0.1,0.1,0.2,0.2,0.2,0.3
				c0.1,0.1,0.2,0.2,0.3,0.3c0,0,0,0,0,0c0.1,0.1,0.2,0.2,0.3,0.2c0,0,0,0,0,0c0.6,0.5,1.3,0.9,2,1.3l-6.5,2.1l2.1-6.5
				C45.4,47.4,45.6,47.7,45.8,48C45.7,48,45.8,48,45.8,48z M49.6,33.1c2.8-2.8,6.4-4.4,9.9-4.4c2.5,0,4.6,0.8,6.2,2.4
				c1.9,1.9,2.7,4.6,2.3,7.6c-0.4,3.1-1.9,6.1-4.4,8.5c-2.8,2.8-6.4,4.4-9.9,4.4c-1,0-2-0.1-2.9-0.4c0,0,0,0,0,0
				c-0.6-0.2-1.2-0.5-1.8-0.8c0,0,0,0,0,0c-0.1-0.1-0.2-0.1-0.3-0.2c-0.1,0-0.1-0.1-0.2-0.1c0,0-0.1-0.1-0.1-0.1
				c-0.1-0.1-0.2-0.1-0.2-0.2c0,0-0.1,0-0.1-0.1c-0.1-0.1-0.2-0.1-0.3-0.2c0,0,0,0-0.1,0c-0.1-0.1-0.2-0.2-0.3-0.3
				c-0.1-0.1-0.1-0.1-0.2-0.2c0,0,0,0,0,0c0,0-0.1-0.1-0.1-0.1c0,0,0,0,0,0c0-0.1-0.1-0.1-0.1-0.2c0,0,0,0,0,0
				c0-0.1-0.1-0.1-0.1-0.2c0,0,0,0,0,0c0-0.1-0.1-0.1-0.1-0.2c0,0,0,0,0,0c0-0.1-0.1-0.1-0.1-0.2c0,0,0,0,0,0c0-0.1-0.1-0.1-0.1-0.2
				c0,0,0,0,0,0c0-0.1-0.1-0.1-0.1-0.2c0,0,0,0,0,0c0-0.1-0.1-0.1-0.1-0.2c0,0,0,0,0,0c0-0.1-0.1-0.1-0.1-0.2c0,0,0,0,0,0
				c0-0.1-0.1-0.1-0.1-0.2c0,0,0,0,0,0c0-0.1-0.1-0.1-0.1-0.2c0,0,0,0,0,0c0-0.1-0.1-0.1-0.1-0.2c0,0,0,0,0,0c0-0.1,0-0.1-0.1-0.2
				c0,0,0,0,0,0c0-0.1,0-0.1-0.1-0.2c0,0,0,0,0,0C44.4,42,45.8,36.9,49.6,33.1z M40.3,54.7l1.8,1.8l-1.3,2L38.3,56L40.3,54.7z
				 M30.2,69.3l-2.7-2.7l10.2-10.2l2.7,2.7L30.2,69.3z"/>
		</g>
		<path fill="#CB226B" d="M253.8,68.9h-14.4c-0.2,0-0.4-0.1-0.5-0.3l-0.8-1.4c-0.1-0.1-0.1-0.2-0.1-0.3v0v0c0,0,0,0,0,0v0
			c0,0,0,0,0,0V34.5c0-0.5,0.4-0.9,0.7-1.3l-0.4-0.4c-0.1-0.1-0.2-0.2-0.2-0.4v-1c0-0.3,0.2-0.5,0.5-0.5h3.6l4.3-1.7
			c0.3-0.1,0.6,0,0.7,0.3c0.1,0.3,0,0.6-0.3,0.7l-1.7,0.7h9.2c0.3,0,0.5,0.2,0.5,0.5v1c0,0.1-0.1,0.3-0.2,0.4l-0.4,0.4
			c0.3,0.3,0.7,0.8,0.7,1.3V67c0,0,0,0,0,0v0c0,0,0,0,0,0c0,0,0,0,0,0v0c0,0.1,0,0.2-0.1,0.3l-0.8,1.4
			C254.2,68.8,254,68.9,253.8,68.9z M239.7,67.8h13.8l0.2-0.3h-14.1L239.7,67.8z M239.1,66.5H254v-32c0-0.1-0.3-0.4-0.6-0.7h-13.7
			c-0.3,0.3-0.6,0.6-0.6,0.7V66.5z M239.7,32.7h13.6l0.5-0.5V32h-11.5c0,0,0,0,0,0h-3.1v0.2L239.7,32.7z M242.3,62
			c-0.1,0-0.2,0-0.2-0.1c-0.3-0.1-0.4-0.4-0.3-0.7l3.6-11.2h-2.7c-0.2,0-0.3-0.1-0.4-0.2c-0.1-0.1-0.1-0.3-0.1-0.5l2.9-10.1
			c0.1-0.2,0.3-0.4,0.5-0.4h4.8c0.2,0,0.3,0.1,0.5,0.2c0.1,0.1,0.1,0.3,0.1,0.5l-2.5,6.3h3.1c0.2,0,0.4,0.1,0.5,0.3
			c0.1,0.2,0.1,0.4,0,0.6l-9.3,14.9C242.7,61.9,242.5,62,242.3,62z M243.4,49h2.7c0.2,0,0.3,0.1,0.4,0.2s0.1,0.3,0.1,0.5l-2.5,7.7
			l6.5-10.4h-2.9c-0.2,0-0.3-0.1-0.5-0.2c-0.1-0.1-0.1-0.3-0.1-0.5l2.5-6.3H246L243.4,49z"/>
		<path fill="#CB226B" d="M526,72.3c-0.7,0-1.3-0.2-1.8-0.7l0,0l-0.8-0.7c-1-1-1.1-2.6-0.1-3.7l8.9-9.9c0,0,0,0,0,0
			c0.5-0.5,1.1-0.8,1.8-0.8c0.3,0,0.6,0,0.8,0.1l2.2-2.4c-2.6-3-4.1-6.7-4.2-10.7c-0.2-4.6,1.5-8.9,4.6-12.2
			c3.1-3.3,7.3-5.2,11.9-5.4c4.6-0.2,8.9,1.5,12.2,4.6c6.9,6.4,7.2,17.2,0.8,24.1v0c-6,6.4-15.9,7.2-22.8,1.9l-2.2,2.4
			c0.3,0.9,0.2,1.9-0.5,2.7l-8.9,9.9c0,0,0,0,0,0C527.5,71.9,526.8,72.2,526,72.3C526.1,72.3,526,72.3,526,72.3z M525.1,70.6
			c0.3,0.2,0.6,0.4,1,0.4c0.4,0,0.7-0.2,0.9-0.4l8.9-9.9c0,0,0,0,0,0c0.3-0.4,0.4-0.9,0.3-1.3c0,0-0.1,0-0.1-0.1l-1.6-1.5
			c0,0,0-0.1-0.1-0.1c-0.1,0-0.2,0-0.4,0c-0.4,0-0.7,0.2-0.9,0.4l-8.9,9.9c0,0,0,0,0,0c-0.5,0.5-0.5,1.4,0.1,1.9L525.1,70.6z
			 M549.9,27.1c-0.2,0-0.4,0-0.5,0c-4.2,0.1-8.1,1.9-11,5c-2.9,3.1-4.4,7.1-4.2,11.3c0.1,4.2,1.9,8.1,5,11
			c6.4,5.9,16.4,5.6,22.3-0.7c5.9-6.4,5.6-16.4-0.7-22.3C557.7,28.6,553.9,27.1,549.9,27.1z M536,57.2l0.6,0.6l1.9-2l-0.6-0.6
			L536,57.2z M549.9,56.9c-3.4,0-6.9-1.2-9.6-3.8c-2.7-2.6-4.3-6-4.4-9.8c-0.1-3.7,1.2-7.3,3.8-10s6-4.3,9.8-4.4
			c3.7-0.1,7.3,1.2,10,3.8c2.7,2.6,4.3,6,4.4,9.8c0.1,3.7-1.2,7.3-3.8,10v0C557.4,55.4,553.6,56.9,549.9,56.9z M549.9,30.2
			c-0.1,0-0.3,0-0.4,0c-3.4,0.1-6.5,1.5-8.9,4c-2.3,2.5-3.5,5.7-3.4,9.1s1.5,6.5,4,8.9c5.1,4.8,13.2,4.5,18-0.6l0,0
			c2.3-2.5,3.5-5.7,3.4-9.1c-0.1-3.4-1.5-6.5-4-8.9C556.2,31.4,553.2,30.2,549.9,30.2z M552.8,51.1c-1.2,0-2.3-0.5-3.1-1.3
			c-1.1,0.7-2.4,1-3.7,1c-3.9,0-7.1-3.2-7.1-7.1c0-3.7,2.8-6.8,6.5-7.1c1-1.9,2.9-3.1,5.1-3.1c2,0,3.8,1,4.9,2.7
			c3,0.3,5.3,2.9,5.3,5.9c0,2.4-1.4,4.6-3.6,5.5C556.6,49.6,554.9,51.1,552.8,51.1z M549.8,48.3c0,0,0.1,0,0.1,0
			c0.2,0,0.3,0.1,0.4,0.3c0.6,0.8,1.5,1.3,2.5,1.3c1.6,0,2.9-1.2,3-2.7c0-0.2,0.2-0.5,0.4-0.5c1.9-0.7,3.2-2.4,3.2-4.4
			c0-2.5-2-4.6-4.5-4.7c-0.2,0-0.4-0.1-0.5-0.3c-0.8-1.5-2.3-2.4-3.9-2.4c-1.8,0-3.4,1-4.1,2.7c-0.1,0.2-0.3,0.4-0.6,0.4
			c-3.2,0.1-5.7,2.7-5.7,5.8c0,3.2,2.6,5.9,5.9,5.9c1.2,0,2.4-0.4,3.4-1.1C549.5,48.3,549.7,48.3,549.8,48.3z M548.2,45.5
			c-2.1,0-3.8-1.7-3.8-3.8c0-2.1,1.7-3.8,3.8-3.8c2.1,0,3.8,1.7,3.8,3.8S550.3,45.5,548.2,45.5z M548.2,39.2c-1.4,0-2.5,1.1-2.5,2.5
			c0,1.4,1.1,2.5,2.5,2.5c1.4,0,2.5-1.1,2.5-2.5C550.7,40.3,549.6,39.2,548.2,39.2z M547.1,42c-0.1,0-0.2,0-0.3-0.1
			c-0.3-0.1-0.5-0.5-0.3-0.8c0.4-0.9,1.2-1.2,1.3-1.3c0.3-0.1,0.7,0,0.8,0.3c0.1,0.3,0,0.7-0.3,0.8c0,0-0.4,0.2-0.6,0.6
			C547.6,41.9,547.3,42,547.1,42z"/>
		<path fill="#CB226B" d="M155.1,150.3h-15.9c-1.2,0-2.2-1-2.2-2.2v-36.1c0-1.1,0.8-2,1.8-2.2l4.5-2.6c0-0.1-0.1-0.2-0.1-0.3v-5.1
			c0-0.4,0.3-0.7,0.7-0.7h6.7c0.4,0,0.7,0.3,0.7,0.7v5.1c0,0.1,0,0.2,0,0.3l4.3,2.6c1,0.2,1.8,1.1,1.8,2.2v36.1
			C157.4,149.3,156.3,150.3,155.1,150.3z M138.3,141.2v6.9c0,0.5,0.4,0.9,0.9,0.9h15.9c0.5,0,0.9-0.4,0.9-0.9v-6.9H138.3z
			 M138.3,139.9H156v-1.7h-17.7V139.9L138.3,139.9z M138.3,136.8H156v-1.7h-17.7V136.8L138.3,136.8z M138.3,133.8H156v-1.7h-17.7
			V133.8L138.3,133.8z M138.3,130.7H156V129h-17.7V130.7L138.3,130.7z M138.3,127.7H156V126h-17.7V127.7L138.3,127.7z M138.3,124.6
			H156v-1.7h-17.7V124.6L138.3,124.6z M138.3,121.6H156v-9.5h-17.7V121.6L138.3,121.6z M139.7,110.7h15l-5.3-3.2h-4.2L139.7,110.7z
			 M149.6,106.2h0.4v-3.7h-5.4v3.7H149.6z"/>
		<path fill="#CB226B" d="M242.5,299.5C242.5,299.5,242.4,299.5,242.5,299.5c-0.2,0-2-0.4-3.8-1.4c-1.8-1-2.9-2.2-2.9-2.3
			c-0.1-0.1-0.2-0.3-0.1-0.5l0.6-1.6c0,0,0,0,0,0c-1-0.9-2.4-2.6-3.9-5.7c-1.3-2.9-1.9-5.4-1.6-7.6v0c0-0.1,0-0.3,0.1-0.5
			c0-0.3,0.1-0.7,0.1-0.9c0-0.2,0.1-0.4,0.1-0.7c0.3-2,0.9-5.6,4.1-9.4c2.6-3.2,4.2-4.1,5.7-4.8c0.8-0.4,1.5-0.8,2.4-1.6
			c2-2,2.3-3.1,2.3-3.2c0-0.2,0.1-0.3,0.2-0.4c0.1-0.1,0.3-0.1,0.4-0.1c0.4,0.1,2.1,0.6,2.5,1.6c0.2,0.5,0.1,0.9,0.1,1.2
			c0,0.1,0,0.2,0,0.2c0,0,0,0,0,0c0.1,0,0.2,0,0.3,0c0.4,0,1.2,0,1.6,1.2c0.3,0.8,0.1,1.5-0.1,2c1,0.1,3.1,0.4,5,1.1
			c1.3,0.5,2.4,1.2,3.2,1.7c0.4,0.3,0.7,0.5,0.9,0.7c0,0,0.1,0,0.1,0.1c0.3-0.4,0.6-0.6,0.8-0.8c0.3-0.2,0.4-0.3,0.5-0.6
			c0.6-1.1,2.2-1.1,2.5-1c0.2,0,0.3,0.1,0.4,0.3c0.1,0.3,0,0.5-0.1,0.8c-0.2,0.5-0.7,1.6-0.5,3.1c0.1,1.4,0.8,2.8,1.3,4
			c0.3,0.8,0.7,1.6,0.8,2.2c0.5,2.1,1.6,6.4-0.2,11c-0.9,2.2-2.2,4.3-3.7,6c0,0-0.1,0.1-0.1,0.1c-0.4,0.4-0.8,0.8-1.2,1.2
			c-2.8,2.6-6.1,3.8-9.8,3.5c-2.1-0.1-4.3-0.5-6.4-1.1c-0.1,0-0.1,0-0.2-0.1l-1.2,2C242.9,299.4,242.7,299.5,242.5,299.5z
			 M236.8,295.4c0.4,0.4,1.2,1.2,2.4,1.8c1.2,0.7,2.4,1,3,1.2l0.8-1.4c-0.7-0.2-1.6-0.5-2.3-0.7c-1.8-0.7-3.4-1.7-3.4-1.7
			c0,0-0.1,0-0.1-0.1c0,0-0.1,0-0.1-0.1L236.8,295.4z M244.1,293.8c-0.4,0.3-0.6,0.8-0.6,1.2c0,0.5,0.3,1.1,1,1.3
			c2,0.5,4.1,0.9,6.2,1c0.6,0,1.2,0,1.8,0c0.2-0.3,0.9-1.6,1.3-3.3c-0.2-0.2-1-1.1-1.4-2c-0.4-0.9-0.6-1.3-0.6-1.4
			c-0.1-0.3,0-0.6,0.3-0.7c0.3-0.1,0.6,0,0.7,0.3c0,0,0.2,0.4,0.6,1.3c0.2,0.4,0.4,0.8,0.7,1.1c0.3-2.1,0.3-2.8,0.3-2.8
			c0-0.3,0.1-0.5,0.4-0.6c0.3,0,0.6,0.2,0.6,0.4c0,0.1,0.1,0.9-0.3,3.6c-0.3,1.7-0.8,3-1.2,3.8c2.8-0.6,5.2-2.1,7-4.1
			c0-0.4,0.1-1.7-0.6-3.3c-0.8-2.1-1.3-3.1-1.3-3.1c-0.1-0.3,0-0.6,0.3-0.7c0.3-0.1,0.6,0,0.7,0.3c0,0,0.4,1,1.3,3.1
			c0.4,0.9,0.5,1.8,0.6,2.4c1.1-1.5,2-3.1,2.6-4.7c0.3-0.8,0.5-1.7,0.7-2.5c-0.3-0.3-0.9-1.2-1.4-2.8c-0.5-1.9-0.8-3-0.8-3
			c-0.1-0.3,0.1-0.6,0.3-0.6c0.3-0.1,0.6,0.1,0.6,0.3c0,0,0.3,1.1,0.8,3c0.2,0.6,0.4,1.1,0.5,1.5c0.2-2.7-0.4-5-0.7-6.3
			c-0.1-0.6-0.4-1.3-0.8-2c-0.6-1.3-1.2-2.8-1.4-4.4c-0.2-1.5,0.2-2.6,0.4-3.3c-0.3,0.1-0.6,0.2-0.8,0.4c-0.3,0.5-0.5,0.7-0.8,1
			c-0.3,0.2-0.6,0.5-1.1,1.1c-0.4,0.6-0.3,1,0,1.8c0.2,0.5,0.5,1.1,0.4,1.8c-0.2,1.2-1,1.2-1.5,1.3c-0.2,0-0.4,0-0.5,0.1
			c0.1,0.2,0.3,0.5,0.5,0.7c0.5,0.7,1.3,1.6,1.5,2.8c0.1,0.7,0.1,1.1-0.2,1.5c-0.3,0.4-0.7,0.4-1,0.5c-0.4,0-0.4,0.1-0.4,0.2
			c-0.2,0.7-0.1,1.3,0,2.1c0.1,0.3,0.1,0.7,0.2,1.2c0.1,0.7-0.1,1.3-0.5,1.8c-0.6,0.7-1.7,1-3.5,0.9c-1.4,0-2.6,0.3-3.3,0.6
			c-0.3,0.1-0.5,0.3-0.7,0.7c-1.4,2.9-3.3,5-5.6,5.9C245.1,293.5,244.6,293.7,244.1,293.8z M239.6,294.5c0.5,0.2,1,0.5,1.6,0.7
			c0.4,0.1,0.9,0.3,1.4,0.5c-0.1-0.2-0.1-0.4-0.1-0.7c0-0.3,0-0.6,0.1-0.9C241.5,294.3,240.5,294.5,239.6,294.5z M234.3,289.1
			c1.7,3.1,3.3,4.2,3.6,4.4c0.6,0,3.4-0.1,5.8-0.7c0.1-0.1,0.3-0.2,0.4-0.2c0.7-0.3,1.4-0.6,2-0.9c2.1-1.3,3.1-3,3.8-4.2
			c0.1-0.2,0.2-0.4,0.3-0.5c0,0,0.1-0.1,0.1-0.1c0.4-0.9,0.8-1.8,1.1-2.8c1.2-3.9,0.5-5.3,0.2-6l0-0.1c-0.1-0.2-0.3-0.5-0.5-0.8
			c-0.6-0.8-1.5-2-1.5-3.1c0-1.1,0.9-1.5,1.7-1.9c0.6-0.3,1.2-0.6,1.5-1c0.7-1-0.5-2.6-1.2-3.3c-0.3-0.3-0.6-0.5-0.9-0.6
			c-0.5-0.3-1.1-0.6-1.2-1.4c-0.1-0.5,0.1-0.9,0.3-1.3c0.2-0.5,0.4-0.8,0.2-1.4c-0.2-0.5-0.3-0.5-0.7-0.5c-0.2,0-0.6,0-0.9-0.2
			c-0.6-0.4-0.5-0.9-0.5-1.2c0-0.2,0-0.4-0.1-0.7c-0.1-0.3-0.7-0.6-1.3-0.8c-0.3,0.6-0.9,1.7-2.4,3.3c-0.9,0.9-1.8,1.4-2.6,1.8
			c-1.3,0.7-2.8,1.5-5.3,4.5c-2.9,3.6-3.5,6.9-3.8,8.9c0,0.3-0.1,0.5-0.1,0.7c0,0.2-0.1,0.5-0.1,0.8c0,0.2,0,0.4-0.1,0.5
			c-0.2,1.7,0.1,3.6,1,5.8c-0.1-2.1,0.1-5,1.3-8.1c2.1-5.8,8.6-10.9,8.9-11.1c0.2-0.2,0.6-0.1,0.7,0.1c0.2,0.2,0.1,0.6-0.1,0.7
			c-0.1,0-5.7,4.6-8.1,9.7c0.9-0.1,2.5-0.2,3.5-0.9c0.4-0.3,0.8-0.6,1.2-0.8c0.8-0.6,1.4-1,2.2-1.3c0.3-0.1,0.6,0,0.7,0.3
			c0.1,0.3,0,0.6-0.3,0.7c-0.6,0.3-1.1,0.6-1.7,1l0.8,0.3c0.3,0.1,0.4,0.4,0.3,0.7c-0.1,0.3-0.4,0.4-0.7,0.3l-1.4-0.6
			c-0.1,0.1-0.3,0.2-0.5,0.3c-1.4,0.9-3.9,1.1-4.5,1.1c-0.6,1.7-0.9,3.3-1.1,4.7c0.8-0.9,2.1-2,3.2-1.8c0.8,0.1,1.6,0.5,2.3,0.9
			c0.8,0.4,1.5,0.8,2.2,0.8c0.3,0,0.5,0.2,0.5,0.5s-0.2,0.5-0.5,0.5c-1,0-1.9-0.5-2.8-0.9c-0.2-0.1-0.5-0.3-0.7-0.4
			c0,0.6,0.1,1.4,0.4,2.1c0.4,1,1.5,2.3,1.5,2.3c0.2,0.2,0.2,0.5-0.1,0.7c-0.2,0.2-0.5,0.2-0.7-0.1c0-0.1-1.2-1.4-1.7-2.7
			c-0.4-1-0.4-2.3-0.4-2.8c-0.1,0-0.1,0-0.2,0c-1-0.1-2.6,1.7-3.2,2.5c0,0,0,0,0,0.1C233.9,287.4,234.2,289,234.3,289.1z
			 M250.3,265.8c0,0.2,0.2,0.3,0.6,0.6c0.3,0.2,0.7,0.4,1.1,0.8c1.3,1.2,2.4,3.1,1.4,4.6c-0.5,0.7-1.2,1-1.9,1.4
			c-0.8,0.4-1.1,0.6-1.1,1c0,0.7,0.7,1.7,1.3,2.4c0.3,0.4,0.5,0.7,0.7,1l0,0.1c0.4,0.8,1.2,2.4-0.1,6.8c-0.1,0.4-0.3,0.8-0.4,1.2
			c0.8-0.3,2-0.5,3.3-0.5c1.4,0,2.3-0.2,2.7-0.6c0.1-0.1,0.3-0.4,0.2-1c0-0.4-0.1-0.8-0.1-1.1c-0.1-0.8-0.2-1.6,0-2.5
			c0.2-0.8,0.9-0.9,1.3-1c0.1,0,0.3,0,0.3-0.1c0,0,0.1-0.2,0-0.6c-0.2-0.9-0.8-1.7-1.3-2.4c-0.5-0.6-0.8-1.1-0.8-1.6
			c0-0.2,0.1-0.4,0.4-0.6c0.4-0.3,0.9-0.3,1.2-0.3c0.4,0,0.5,0,0.5-0.4c0.1-0.4-0.1-0.8-0.3-1.2c-0.3-0.7-0.6-1.6-0.1-2.5
			c-0.5-0.4-2.1-1.6-3.9-2.3C253.4,266.2,251.1,265.9,250.3,265.8z M259.3,268.8l0.1,0.1L259.3,268.8z"/>
		<g>
			<path fill="#CB226B" d="M457.2,38.6c0.1,0,0.2,0,0.3-0.1c0.2-0.2,0.2-0.4,0-0.6c-0.5-0.5-0.7-1.1-0.7-1.8s0.3-1.3,0.7-1.8
				l3.5-3.5c0.2-0.2,0.2-0.4,0-0.6c-0.2-0.2-0.4-0.2-0.6,0l-3.5,3.5c-0.6,0.6-1,1.5-1,2.4s0.4,1.8,1,2.4
				C457,38.5,457.1,38.6,457.2,38.6z"/>
			<path fill="#CB226B" d="M433.8,59.5c-0.2,0.2-0.2,0.4,0,0.6c0.5,0.5,0.7,1.1,0.7,1.8s-0.3,1.3-0.7,1.8l-3.5,3.5
				c-0.2,0.2-0.2,0.4,0,0.6c0.1,0.1,0.2,0.1,0.3,0.1s0.2,0,0.3-0.1l3.5-3.5c0.6-0.6,1-1.5,1-2.4c0-0.9-0.4-1.8-1-2.4
				C434.2,59.3,434,59.3,433.8,59.5z"/>
			<path fill="#CB226B" d="M438.7,57.8c0.1,0,0.1,0,0.2,0c0.2,0,0.5,0,0.7,0c1.4,0,2.1,0.3,2.9,0.6c0.8,0.3,1.6,0.7,3.2,0.7
				c1.6,0,2.4-0.3,3.2-0.7c0.7-0.3,1.4-0.6,2.9-0.6c1.4,0,2.1,0.3,2.9,0.6c0.8,0.3,1.6,0.7,3.2,0.7c1.6,0,2.4-0.3,3.2-0.7
				c0.7-0.3,1.4-0.6,2.9-0.6c1.4,0,2.1,0.3,2.9,0.6c0.8,0.3,1.6,0.7,3.2,0.7c0.2,0,0.4-0.2,0.4-0.4c0-0.2-0.2-0.4-0.4-0.4
				c-1.4,0-2.1-0.3-2.9-0.6c-0.8-0.3-1.6-0.7-3.2-0.7c-1.6,0-2.4,0.3-3.2,0.7c-0.7,0.3-1.4,0.6-2.9,0.6c-1.4,0-2.1-0.3-2.9-0.6
				c-0.8-0.3-1.6-0.7-3.2-0.7s-2.4,0.3-3.2,0.7c-0.7,0.3-1.4,0.6-2.9,0.6c-1.4,0-2.1-0.3-2.9-0.6c-0.8-0.3-1.6-0.7-3.2-0.7h0
				l1.1-1.1c1.6,0.1,3.2,0.2,4.7,0.2c5.3,0,10.5-0.7,14.9-1.9c4.3-1.2,7.8-3,10-5c0.1-0.1,0.2-0.3,0.1-0.5c-0.1-0.2-0.2-0.3-0.4-0.3
				h-21.8l8.3-8.3c0.7,0.4,1.4,0.5,2.1,0.5c1.2,0,2.3-0.5,3.2-1.3l4.8-4.8c0.2-0.2,0.2-0.4,0-0.6l-5.7-5.7c-0.2-0.2-0.4-0.2-0.6,0
				l-4.8,4.8c-0.8,0.8-1.3,2-1.3,3.2c0,0.8,0.2,1.5,0.5,2.1l-10,10h-23.8c-0.2,0-0.3,0.1-0.4,0.3c-0.1,0.2,0,0.4,0.1,0.5
				c3.3,3.1,9.4,5.5,16.9,6.4l-2.6,2.6c0,0,0,0,0,0c-0.7-0.4-1.4-0.5-2.1-0.5c-0.5,0-1.1,0.1-1.6,0.3c-0.2-0.1-0.3-0.1-0.5-0.2
				c-0.8-0.3-1.6-0.7-3.2-0.7s-2.4,0.3-3.2,0.7c-0.7,0.3-1.4,0.6-2.9,0.6c-0.2,0-0.4,0.2-0.4,0.4c0,0.2,0.2,0.4,0.4,0.4
				c1.6,0,2.4-0.3,3.2-0.7c0.7-0.3,1.4-0.6,2.9-0.6c1.3,0,2,0.3,2.7,0.6c-0.2,0.1-0.4,0.3-0.6,0.5l-3.6,3.6c-0.1,0-0.2,0-0.2,0
				c-0.8,0.1-1.3,0.4-1.8,0.6c-0.7,0.3-1.3,0.6-2.7,0.6c-0.2,0-0.4,0.2-0.4,0.4c0,0.2,0.2,0.4,0.4,0.4c1.6,0,2.4-0.3,3.1-0.7
				c0.2-0.1,0.4-0.2,0.6-0.2l0,0c-0.2,0.2-0.2,0.4,0,0.6l5.7,5.7c0.1,0.1,0.2,0.1,0.3,0.1c0.1,0,0.2,0,0.3-0.1l4.8-4.8
				c0.4-0.4,0.7-0.8,0.9-1.2c0.7-0.3,1.4-0.6,2.8-0.6c1.4,0,2.1,0.3,2.9,0.6c0.8,0.3,1.6,0.7,3.2,0.7c1.6,0,2.4-0.3,3.2-0.7
				c0.7-0.3,1.4-0.6,2.9-0.6c1.4,0,2.1,0.3,2.9,0.6c0.8,0.3,1.6,0.7,3.2,0.7c1.6,0,2.4-0.3,3.2-0.7c0.7-0.3,1.4-0.6,2.9-0.6
				c1.4,0,2.1,0.3,2.9,0.6c0.8,0.3,1.6,0.7,3.2,0.7c0.2,0,0.4-0.2,0.4-0.4c0-0.2-0.2-0.4-0.4-0.4c-1.4,0-2.1-0.3-2.9-0.6
				c-0.8-0.3-1.6-0.7-3.2-0.7c-1.6,0-2.4,0.3-3.2,0.7c-0.7,0.3-1.4,0.6-2.9,0.6c-1.4,0-2.1-0.3-2.9-0.6c-0.8-0.3-1.6-0.7-3.2-0.7
				s-2.4,0.3-3.2,0.7c-0.7,0.3-1.4,0.6-2.9,0.6c-1.4,0-2.1-0.3-2.9-0.6c-0.8-0.3-1.6-0.7-3.2-0.7c-1.1,0-1.9,0.2-2.5,0.4
				c0.1-0.3,0.1-0.6,0.1-0.8c0-0.8-0.2-1.5-0.5-2.1l0,0L438.7,57.8z M468.8,49.2c-4.6,3.7-13.6,6-23.4,6c-1.3,0-2.6,0-3.9-0.1
				l1.9-1.9l4-4L468.8,49.2L468.8,49.2z M456,33.6l4.4-4.4l5.1,5.1l-4.4,4.4c-0.7,0.7-1.6,1.1-2.6,1.1s-1.9-0.4-2.6-1.1
				c-0.7-0.7-1.1-1.6-1.1-2.6S455.3,34.3,456,33.6z M422,49.2h21.8l-0.8,0.8c-0.1,0-0.1-0.1-0.2-0.1h-10.5c-0.2,0-0.4,0.2-0.4,0.4
				c0,0.2,0.2,0.4,0.4,0.4h9.9l-3.9,3.9C431.2,53.9,425.4,51.9,422,49.2z M435.3,64.5l-4.4,4.4l-5.1-5.1l4.4-4.4
				c0.7-0.7,1.6-1.1,2.6-1.1s1.9,0.4,2.6,1.1s1.1,1.6,1.1,2.6C436.3,62.9,435.9,63.8,435.3,64.5z M436.1,59.1
				c-0.1-0.1-0.2-0.2-0.3-0.3c-0.1-0.1-0.2-0.2-0.3-0.3L455.1,39c0.1,0.1,0.2,0.2,0.3,0.3c0.1,0.1,0.2,0.2,0.3,0.3L436.1,59.1z"/>
			<path fill="#CB226B" d="M447.8,50.8h13.5c0.2,0,0.4-0.2,0.4-0.4c0-0.2-0.2-0.4-0.4-0.4h-13.5c-0.2,0-0.4,0.2-0.4,0.4
				C447.3,50.6,447.5,50.8,447.8,50.8z"/>
			<path fill="#CB226B" d="M429.5,49.9h-3.5c-0.2,0-0.4,0.2-0.4,0.4c0,0.2,0.2,0.4,0.4,0.4h3.5c0.2,0,0.4-0.2,0.4-0.4
				C430,50.1,429.8,49.9,429.5,49.9z"/>
		</g>
		<g>
			<path fill="#CB226B" d="M571.1,101.4l-2-2c-1.8-1.8-4.2-2.8-6.7-2.8c-2.5,0-4.9,1-6.7,2.8l-37.3,37.3c-1.8,1.8-2.8,4.2-2.8,6.7
				c0,2.5,1,4.9,2.8,6.7l2,2c1.8,1.8,4.2,2.8,6.7,2.8c2.5,0,4.9-1,6.7-2.8l37.3-37.3c1.8-1.8,2.8-4.2,2.8-6.7
				C573.9,105.5,572.9,103.2,571.1,101.4z M570.4,114l-37.3,37.3c-0.3,0.3-0.6,0.5-0.9,0.8l-8.6-8.6c-0.2-0.2-0.5-0.2-0.7,0
				c-0.2,0.2-0.2,0.5,0,0.7l8.5,8.5c-1.3,0.7-2.7,1.1-4.2,1.1c-2.3,0-4.4-0.9-6-2.5l-2-2c-1.6-1.6-2.5-3.7-2.5-6
				c0-2.3,0.9-4.4,2.5-6l37.3-37.3c0.2-0.2,0.4-0.4,0.6-0.6l8.7,8.7c0.1,0.1,0.2,0.1,0.4,0.1c0.1,0,0.3,0,0.4-0.1
				c0.2-0.2,0.2-0.5,0-0.7L558,99c1.3-0.8,2.9-1.3,4.5-1.3c2.3,0,4.4,0.9,6,2.5l2,2c1.6,1.6,2.5,3.7,2.5,6
				C572.9,110.3,572,112.4,570.4,114z"/>
			<path fill="#CB226B" d="M563.4,113.1c-0.5,0-0.9,0.2-1.2,0.5l-0.2,0.2l-5.3-5.3l0.2-0.2c0.7-0.7,0.7-1.8,0-2.5
				c-0.3-0.3-0.8-0.5-1.2-0.5c-0.5,0-0.9,0.2-1.2,0.5l-2.7,2.7c-0.7,0.7-0.7,1.8,0,2.5c0.3,0.3,0.8,0.5,1.2,0.5
				c0.5,0,0.9-0.2,1.2-0.5l0.2-0.2l5.3,5.3l-0.2,0.2c-0.7,0.7-0.7,1.8,0,2.5c0.3,0.3,0.8,0.5,1.2,0.5c0.5,0,0.9-0.2,1.2-0.5l2.7-2.7
				c0.3-0.3,0.5-0.8,0.5-1.2s-0.2-0.9-0.5-1.2C564.3,113.3,563.9,113.1,563.4,113.1z M553,110.5c-0.2,0-0.4-0.1-0.5-0.2
				c-0.3-0.3-0.3-0.7,0-1l2.7-2.7c0.1-0.1,0.3-0.2,0.5-0.2c0.2,0,0.4,0.1,0.5,0.2c0.3,0.3,0.3,0.7,0,1l-0.6,0.6l0,0c0,0,0,0,0,0
				l-2.1,2.1C553.4,110.4,553.2,110.5,553,110.5z M555.2,110l0.8-0.8l5.3,5.3l-0.8,0.8L555.2,110z M564,115.3l-2.7,2.7
				c-0.1,0.1-0.3,0.2-0.5,0.2s-0.4-0.1-0.5-0.2c-0.3-0.3-0.3-0.7,0-1l0.6-0.6l0,0l0,0l1.5-1.5l0,0c0,0,0,0,0,0l0.6-0.6
				c0.1-0.1,0.3-0.2,0.5-0.2c0.2,0,0.4,0.1,0.5,0.2c0.1,0.1,0.2,0.3,0.2,0.5S564.1,115.2,564,115.3z"/>
			<path fill="#CB226B" d="M536.6,139.9c-0.5,0-0.9,0.2-1.2,0.5l-0.2,0.2l-5.3-5.3l0.2-0.2c0.3-0.3,0.5-0.8,0.5-1.2
				c0-0.5-0.2-0.9-0.5-1.2c-0.3-0.3-0.8-0.5-1.2-0.5c-0.5,0-0.9,0.2-1.2,0.5l-2.7,2.7c-0.3,0.3-0.5,0.8-0.5,1.2
				c0,0.5,0.2,0.9,0.5,1.2c0.3,0.3,0.8,0.5,1.2,0.5s0.9-0.2,1.2-0.5l0.2-0.2l5.3,5.3l-0.2,0.2c-0.7,0.7-0.7,1.8,0,2.5
				c0.3,0.3,0.8,0.5,1.2,0.5c0.5,0,0.9-0.2,1.2-0.5l2.7-2.7c0.7-0.7,0.7-1.8,0-2.5C537.5,140.1,537,139.9,536.6,139.9z M526.1,137.4
				c-0.2,0-0.4-0.1-0.5-0.2c-0.1-0.1-0.2-0.3-0.2-0.5c0-0.2,0.1-0.4,0.2-0.5l2.7-2.7c0.1-0.1,0.3-0.2,0.5-0.2c0.2,0,0.4,0.1,0.5,0.2
				c0.1,0.1,0.2,0.3,0.2,0.5s-0.1,0.4-0.2,0.5l-2.1,2.1l0,0l0,0l-0.6,0.6C526.5,137.3,526.3,137.4,526.1,137.4z M528.3,136.9
				l0.8-0.8l5.3,5.3l-0.8,0.8L528.3,136.9z M537.1,142.2l-2.7,2.7c-0.1,0.1-0.3,0.2-0.5,0.2c-0.2,0-0.4-0.1-0.5-0.2
				c-0.3-0.3-0.3-0.7,0-1l0.6-0.6l0,0l0,0l2.1-2.1c0.1-0.1,0.3-0.2,0.5-0.2s0.4,0.1,0.5,0.2C537.4,141.4,537.4,141.9,537.1,142.2z"
				/>
			<path fill="#CB226B" d="M553,117.3c-0.2-0.2-0.5-0.2-0.7,0c-0.2,0.2-0.2,0.5,0,0.7l6.2,6.2c0.1,0.1,0.2,0.1,0.4,0.1
				c0.1,0,0.3,0,0.4-0.1c0.2-0.2,0.2-0.5,0-0.7L553,117.3z"/>
			<path fill="#CB226B" d="M535.7,135c0.1,0.1,0.2,0.1,0.4,0.1c0.1,0,0.3,0,0.4-0.1c0.2-0.2,0.2-0.5,0-0.7l-6.2-6.2
				c-0.2-0.2-0.5-0.2-0.7,0c-0.2,0.2-0.2,0.5,0,0.7L535.7,135z"/>
		</g>
		<g>
			<path fill="#CB226B" d="M346,31.6c-9.6,0-17.4,7.8-17.4,17.4c0,9.6,7.8,17.4,17.4,17.4c9.6,0,17.4-7.8,17.4-17.4
				C363.4,39.5,355.6,31.6,346,31.6z M346,65.1c-8.8,0-16-7.2-16-16s7.2-16,16-16c8.8,0,16,7.2,16,16C362,57.9,354.8,65.1,346,65.1z
				"/>
			<path fill="#CB226B" d="M356.3,38.6c-2.5-2.5-6.4-4.3-10.3-4.3c-3.9,0-7.5,1.5-10.3,4.3c-2.7,2.7-4.3,6.4-4.3,10.3
				c0,3.9,1.5,7.5,4.3,10.3c2.7,2.7,6.4,4.3,10.3,4.3c3.9,0,7.5-1.5,10.3-4.3c2.7-2.7,4.3-6.4,4.3-10.3
				C360.5,46.5,360.3,42.6,356.3,38.6z M355.3,58.2c-2.5,2.5-5.8,3.9-9.3,3.9c-3.5,0-6.8-1.4-9.3-3.9c-2.5-2.5-3.9-5.8-3.9-9.3
				c0-3.5,1.4-6.8,3.9-9.3c2.5-2.5,5.8-3.9,9.3-3.9c3.5,0,7.4,1.8,9.3,3.8c2.4,2.6,3.9,5.5,3.9,9.3
				C359.2,52.4,357.8,55.7,355.3,58.2z"/>
			<path fill="#CB226B" d="M343.9,49.9c-0.1-0.3-0.5-0.5-0.9-0.5h-7.8c-0.3,0-0.7,0.1-0.9,0.4c-0.2,0.2-0.3,0.6-0.3,0.9
				c0.3,2.1,1.1,4,2.4,5.7c0.2,0.3,0.5,0.4,0.9,0.4c0.3,0,0.6-0.1,0.8-0.3l5.5-5.5C343.9,50.6,344,50.2,343.9,49.9z M337.3,55.3
				c-1-1.3-1.6-2.9-1.9-4.6h6.4L337.3,55.3z"/>
			<path fill="#CB226B" d="M335.2,48.6h7.8c0.6,0,0.8-0.4,0.9-0.5c0.1-0.1,0.2-0.6-0.3-1l-5.5-5.5c-0.2-0.2-0.5-0.3-0.8-0.3
				c-0.4,0-0.7,0.2-0.9,0.4c-1.3,1.7-2.1,3.6-2.4,5.7c0,0.3,0.1,0.6,0.3,0.9C334.5,48.5,334.8,48.6,335.2,48.6z M337.3,42.7l4.6,4.5
				h-6.4C335.7,45.6,336.3,44.1,337.3,42.7z"/>
			<path fill="#CB226B" d="M344.1,46.6c0.3,0.3,0.5,0.3,0.7,0.3c0.4,0,0.8-0.3,0.8-1v-7.8c0-0.6-0.3-1.3-1.3-1.1
				c-2.1,0.3-4,1.1-5.7,2.4c-0.3,0.2-0.4,0.5-0.4,0.8c0,0.3,0.1,0.7,0.3,0.9L344.1,46.6z M344.3,38.4v6.5l-4.6-4.6
				C341.1,39.3,342.7,38.7,344.3,38.4z"/>
			<path fill="#CB226B" d="M344.8,51.1c-0.2,0-0.4,0.1-0.7,0.3l-5.6,5.5c-0.2,0.2-0.4,0.6-0.3,0.9c0,0.3,0.2,0.6,0.4,0.8
				c1.7,1.3,3.6,2.1,5.7,2.4c0.1,0,0.2,0,0.2,0c0.2,0,0.8-0.1,1-0.8c0.1-0.5,0.1-8.2,0.1-8.2C345.7,51.4,345.3,51.1,344.8,51.1z
				 M344.3,59.6c-1.6-0.3-3.2-0.9-4.6-1.9l4.6-4.6V59.6z"/>
			<path fill="#CB226B" d="M356.9,49.4H349c-0.4,0-0.8,0.2-0.9,0.5c-0.1,0.3,0,0.7,0.3,1l5.5,5.5c0.2,0.2,0.5,0.3,0.8,0.3
				c0.4,0,0.7-0.2,0.9-0.4c1.3-1.7,2.1-3.6,2.4-5.7c0-0.3-0.1-0.7-0.3-0.9C357.5,49.5,357.2,49.4,356.9,49.4z M354.7,55.3l-4.6-4.6
				h6.4C356.4,52.4,355.7,53.9,354.7,55.3z"/>
			<path fill="#CB226B" d="M348.1,48.1c0.1,0.1,0.3,0.5,0.9,0.5h7.8c0.3,0,0.7-0.1,0.9-0.4c0.2-0.2,0.3-0.6,0.3-0.9
				c-0.3-2.1-1.1-4-2.4-5.7c-0.2-0.3-0.5-0.4-0.9-0.4c-0.3,0-0.6,0.1-0.8,0.3l-5.5,5.5C348,47.6,348.1,48,348.1,48.1z M354.7,42.7
				c1,1.3,1.6,2.9,1.9,4.5h-6.4L354.7,42.7z"/>
			<path fill="#CB226B" d="M347.2,47c0.2,0,0.4-0.1,0.7-0.3l5.6-5.5c0.2-0.2,0.4-0.6,0.3-0.9c0-0.3-0.2-0.6-0.4-0.8
				c-1.7-1.3-3.6-2.1-5.7-2.4c-1-0.1-1.3,0.5-1.3,1.1V46C346.4,46.6,346.8,47,347.2,47z M347.7,38.4c1.7,0.3,3.2,0.9,4.6,1.9
				l-4.6,4.6V38.4z"/>
			<path fill="#CB226B" d="M347.9,51.4c-0.3-0.3-0.5-0.3-0.7-0.3c-0.4,0-0.8,0.3-0.8,1c0,0-0.1,7.7,0.1,8.2c0.2,0.7,0.8,0.8,1,0.8
				c0.1,0,0.1,0,0.2,0c2.1-0.3,4-1.1,5.7-2.4c0.3-0.2,0.4-0.5,0.4-0.8c0-0.3-0.1-0.7-0.3-0.9L347.9,51.4z M347.7,59.6v-6.5l4.6,4.6
				C351,58.7,349.4,59.3,347.7,59.6z"/>
		</g>
		<path fill="#CB226B" d="M49.9,141.8H32.4c-0.1,0-0.3-0.1-0.4-0.2c-0.1-0.1-0.1-0.2-0.1-0.4l0.9-19.8c0-0.1,0-0.2,0.1-0.3l2.8-3.8
			c0.1-0.1,0.2-0.2,0.4-0.2h3.8c0.2-0.8,0.5-1.7,1-2.7c1.2-2.3,3.8-5,9.2-5c5.4,0,8,2.6,9.2,4.7c1.4,2.3,1.4,4.6,1.4,4.7
			c0,0,0,0,0,0v11.8h2.4c0.3,0,0.5,0.2,0.5,0.5v7.2c0,0.3-0.2,0.5-0.5,0.5h-5.6c-0.3,0-0.5-0.2-0.5-0.5v-7.2c0-0.3,0.2-0.5,0.5-0.5
			h2.3V119c0-0.1-0.1-2.2-1.3-4.3c-1.6-2.8-4.5-4.2-8.4-4.2c-3.9,0-6.7,1.5-8.3,4.4c-0.4,0.8-0.7,1.5-0.9,2.2h4
			c0.2,0,0.3,0.1,0.4,0.2l2.8,3.8c0.1,0.1,0.1,0.2,0.1,0.2l2.2,19.8c0,0.1,0,0.3-0.1,0.4C50.2,141.8,50,141.8,49.9,141.8z
			 M47.3,140.9h2.1l-1-8.8l-0.7,0.1L47.3,140.9z M32.9,140.9h13.4l0.4-8.4l-13.6,2.9L32.9,140.9z M58,137.9h4.6v-6.2H58V137.9z
			 M33.7,121.7l-0.6,12.7l13.6-2.9l0.5-9.7l-2.6-3.5h-3.9c-0.1,0.8-0.1,1.3-0.1,1.3c0,0.3-0.2,0.5-0.5,0.5h0c-0.3,0-0.5-0.2-0.5-0.5
			c0,0,0-0.5,0.1-1.3h-3.4L33.7,121.7z M47.9,127.8l-0.2,3.5l0.5-0.1L47.9,127.8z"/>
		<path fill="#CB226B" d="M442.1,148.1h-6.5c-1,0-1.8-0.8-2.3-2.1c-0.4-1.2-0.6-3.1-0.4-6.9c0.1-3.7,0.5-9.6,0.7-10.9
			c0.1-0.7,0.4-1.2,0.6-1.5c0.2-0.3,0.2-0.4,0.2-0.6c0-0.1-0.2-0.6-0.9-1.2c-0.4-0.3-0.6-0.8-0.6-1.3v-8.9c0-0.4,0.2-0.8,0.4-1.1
			l1.5-1.6c0.2-0.2,0.3-0.4,0.3-0.7v-0.4h-0.5c-0.3,0-0.6-0.2-0.6-0.6c0-0.3,0.2-0.6,0.6-0.6h0.5v-2.4c0-0.3,0.2-0.6,0.6-0.6h0.8
			c0.1,0,0.2,0,0.2-0.1l0,0c0-0.1,0.1-0.1,0.1-0.2v-2c0-0.6,0.5-1.1,1.2-1.1h2c0.7,0,1.2,0.5,1.2,1.1v2c0,0.1,0,0.1,0.1,0.2l0,0
			c0,0.1,0.1,0.1,0.2,0.1h0.8c0.3,0,0.6,0.2,0.6,0.6v2.4h0.4c0.3,0,0.6,0.2,0.6,0.6c0,0.3-0.2,0.6-0.6,0.6h-0.4v0.4
			c0,0.2,0.1,0.5,0.3,0.7l1.5,1.6c0.3,0.3,0.4,0.7,0.4,1.1v8.9c0,0.5-0.2,1-0.6,1.3c-0.7,0.6-0.9,1-0.9,1.2c0,0.2,0.1,0.4,0.2,0.6
			c0.2,0.3,0.5,0.7,0.6,1.5c0.2,1.3,0.6,7.2,0.7,10.9c0.1,3.8,0,5.8-0.4,6.9l0,0C443.9,147.4,443,148.1,442.1,148.1z M433.9,123.2
			v0.4c0,0.2,0.1,0.4,0.2,0.5c0.9,0.8,1.3,1.4,1.3,2c0,0.6-0.2,0.9-0.4,1.2c-0.2,0.3-0.3,0.5-0.4,1c-0.2,1.1-0.6,6.9-0.7,10.8
			c-0.1,3.6,0,5.5,0.4,6.5c0.3,0.8,0.8,1.4,1.2,1.4h6.5c0.5,0,0.9-0.5,1.2-1.4v0c0.4-1,0.5-2.9,0.4-6.5c-0.1-3.9-0.5-9.7-0.7-10.8
			c-0.1-0.5-0.2-0.8-0.4-1c-0.2-0.3-0.4-0.7-0.4-1.2c0-0.6,0.4-1.3,1.3-2c0.2-0.1,0.2-0.3,0.2-0.5v-0.4L433.9,123.2L433.9,123.2z
			 M433.9,122h9.8v-5.5h-9.8V122z M433.9,115.4h9.8v-0.9c0-0.1,0-0.2-0.1-0.3l-1.5-1.6c-0.4-0.4-0.6-0.9-0.6-1.4v-0.4h-5.4v0.4
			c0,0.5-0.2,1-0.6,1.4l-1.5,1.6c-0.1,0.1-0.1,0.2-0.1,0.3L433.9,115.4L433.9,115.4z M436.1,109.7h5.4v-1.8h-5.4V109.7z
			 M437.7,106.7h2.2c0-0.1,0-0.2,0-0.3v-2c0,0,0,0-0.1,0h-2c0,0-0.1,0-0.1,0v2C437.7,106.5,437.7,106.6,437.7,106.7z"/>
		<g>
			<path fill="#CB226B" d="M362.1,284.2C362.1,284.2,362.1,284.2,362.1,284.2c-1.4-1-3.1-1.6-4.9-1.6c-1.9,0-3.6,0.6-5,1.7
				c0,0-0.1,0-0.1,0.1c-2,1.5-3.4,4-3.4,6.7c0,4.7,3.8,8.5,8.5,8.5s8.5-3.8,8.5-8.5C365.7,288.3,364.3,285.8,362.1,284.2z
				 M361.5,284.8v1.4h-0.4c-0.2,0-0.4,0.2-0.4,0.4s0.2,0.4,0.4,0.4h0.4v0.8h-0.4c-0.2,0-0.4,0.2-0.4,0.4s0.2,0.4,0.4,0.4h0.4v0.8
				h-0.4c-0.2,0-0.4,0.2-0.4,0.4s0.2,0.4,0.4,0.4h0.4v0.1c0,1.5-0.8,2.9-2,3.6v-0.1c0-0.2-0.2-0.4-0.4-0.4s-0.4,0.2-0.4,0.4v0.5
				c-0.3,0.1-0.5,0.2-0.8,0.2v-0.3c0-0.2-0.2-0.4-0.4-0.4s-0.4,0.2-0.4,0.4v0.4c-0.3,0-0.6,0-0.8-0.1v-0.6c0-0.2-0.2-0.4-0.4-0.4
				s-0.4,0.2-0.4,0.4v0.4c-1.6-0.7-2.7-2.2-2.7-4v-0.1h0.4c0.2,0,0.4-0.2,0.4-0.4s-0.2-0.4-0.4-0.4h-0.4v-0.8h0.4
				c0.2,0,0.4-0.2,0.4-0.4s-0.2-0.4-0.4-0.4h-0.4v-0.8h0.4c0.2,0,0.4-0.2,0.4-0.4s-0.2-0.4-0.4-0.4h-0.4v-1.3
				c1.3-0.9,2.8-1.4,4.4-1.4C358.8,283.5,360.3,283.9,361.5,284.8z M357.2,298.8c-4.2,0-7.7-3.4-7.7-7.7c0-2.2,0.9-4.2,2.5-5.6v0.6
				h-0.3c-0.2,0-0.4,0.2-0.4,0.4s0.2,0.4,0.4,0.4h0.3v0.8h-0.3c-0.2,0-0.4,0.2-0.4,0.4s0.2,0.4,0.4,0.4h0.3v0.8h-0.3
				c-0.2,0-0.4,0.2-0.4,0.4s0.2,0.4,0.4,0.4h0.3v0.1c0,2.2,1.5,4.2,3.5,4.8v0.3c0,0.2,0.2,0.4,0.4,0.4c0.2,0,0.4-0.2,0.4-0.4v-0.1
				c0.3,0,0.5,0.1,0.8,0.1v0.4c0,0.2,0.2,0.4,0.4,0.4s0.4-0.2,0.4-0.4v-0.4c0.3,0,0.6-0.1,0.8-0.2v0.1c0,0.2,0.2,0.4,0.4,0.4
				s0.4-0.2,0.4-0.4v-0.5c1.6-0.9,2.8-2.6,2.8-4.6v-0.1h0.4c0.2,0,0.4-0.2,0.4-0.4s-0.2-0.4-0.4-0.4h-0.4v-0.8h0.4
				c0.2,0,0.4-0.2,0.4-0.4s-0.2-0.4-0.4-0.4h-0.4v-0.8h0.4c0.2,0,0.4-0.2,0.4-0.4s-0.2-0.4-0.4-0.4h-0.4v-0.8
				c1.6,1.4,2.6,3.5,2.6,5.8C364.9,295.4,361.5,298.8,357.2,298.8z"/>
			<g>
				<path fill="#CB226B" d="M366.8,258.3c-2.2-2.2-5.7-2.2-7.8,0l-6.1,6.1c-0.1,0.1-5.8,6-10.5,12.7c-3.8,5.5-10.3,12.7-13.9,16.4
					c0,0,0,0,0,0c0,0,0,0,0,0c-0.7,0.7-1.2,1.3-1.7,1.7l0,0c-0.3-0.3-0.8-0.5-1.3-0.5c-0.5,0-1,0.2-1.3,0.5
					c-0.3,0.3-0.5,0.8-0.5,1.3c0,0.5,0.2,1,0.5,1.3l3.1,3.1c0.3,0.3,0.8,0.5,1.3,0.5c0.5,0,1-0.2,1.3-0.5c0.3-0.3,0.5-0.8,0.5-1.3
					c0-0.5-0.2-0.9-0.5-1.2c2.7-2.8,11.6-11,18.1-15.6c6.7-4.7,12.6-10.5,12.7-10.5l6.1-6.1C368.9,264,368.9,260.5,366.8,258.3z
					 M329.3,300.4c-0.2,0.2-0.5,0.3-0.7,0.3c-0.3,0-0.5-0.1-0.7-0.3l-3.1-3.1c-0.2-0.2-0.3-0.5-0.3-0.7c0-0.3,0.1-0.5,0.3-0.7
					c0.2-0.2,0.5-0.3,0.7-0.3c0.3,0,0.5,0.1,0.7,0.3l0.3,0.3c0,0,0,0,0,0l0,0l2.6,2.6l0.2,0.2c0.2,0.2,0.3,0.5,0.3,0.7
					C329.6,299.9,329.5,300.2,329.3,300.4z M366.2,265.6l-6.1,6.1c-0.1,0.1-5.9,5.8-12.6,10.4c-6.5,4.6-15.5,12.9-18.2,15.7
					l-2.1-2.1c0.4-0.4,0.9-0.9,1.4-1.4l1,1c0.1,0.1,0.2,0.1,0.3,0.1s0.2,0,0.3-0.1c0.2-0.2,0.2-0.4,0-0.6l-1-1
					c3.7-3.8,9.9-10.9,13.7-16.2c4.7-6.7,10.4-12.6,10.4-12.6l6.1-6.1c1.9-1.9,4.9-1.9,6.7,0C368.1,260.7,368.1,263.7,366.2,265.6z"
					/>
				<path fill="#CB226B" d="M361.9,258.8l-11.1,11.8c-0.1,0.2-0.1,0.4,0,0.6c0.1,0.1,0.2,0.1,0.3,0.1c0.1,0,0.2,0,0.3-0.1l11.1-11.8
					c0.1-0.2,0.1-0.4,0-0.6C362.3,258.7,362.1,258.7,361.9,258.8z"/>
			</g>
		</g>
		<g>
			<path fill="#CB226B" d="M246.9,185.4c-4.3-1.6-9-2-13.6-1c-0.1,0-0.2,0.1-0.3,0.2c-2.2,4.1-3.2,8.7-2.8,13.3
				c0.3,4.7,2,9.3,4.9,13.1s6.7,6.7,11.2,8.4c4.3,1.6,9,2,13.6,1c0.1,0,0.1,0,0.2-0.1c0,0,0.1-0.1,0.1-0.1c2.2-4.1,3.2-8.7,2.8-13.3
				c-0.3-4.7-2-9.3-4.9-13.1C255.2,190,251.3,187.1,246.9,185.4z M262.1,206.5l-4.5,3.4c-0.4-0.5-0.5-0.9-0.6-1.3
				c-0.1-0.4-0.2-0.9-0.7-1.6c-0.5-0.7-1-0.9-1.3-1.2c-0.4-0.2-0.7-0.4-1.1-1c-0.4-0.6-0.5-0.9-0.6-1.3c-0.1-0.4-0.2-0.9-0.7-1.6
				c-0.5-0.7-1-0.9-1.3-1.2c-0.4-0.2-0.7-0.4-1.1-1c-0.4-0.6-0.5-0.9-0.6-1.3c-0.1-0.4-0.2-0.9-0.7-1.6c-0.5-0.7-1-0.9-1.3-1.2
				c-0.4-0.2-0.7-0.4-1.1-1c-0.4-0.6-0.5-0.9-0.6-1.3c-0.1-0.4-0.2-0.9-0.7-1.6s-1-1-1.3-1.2c-0.3-0.2-0.6-0.4-1-0.8l4.6-3.4
				c4.1,1.6,7.7,4.3,10.4,7.9C260.2,197.9,261.7,202.2,262.1,206.5z M251.3,214.6c-0.5-0.7-0.9-0.9-1.3-1.1c-0.4-0.2-0.7-0.4-1.1-1
				c-0.4-0.6-0.5-0.9-0.6-1.3c-0.1-0.4-0.2-0.9-0.7-1.6c-0.5-0.7-1-0.9-1.3-1.2c-0.4-0.2-0.7-0.4-1.1-1c-0.4-0.6-0.5-0.9-0.6-1.3
				c-0.1-0.4-0.2-0.9-0.7-1.6c-0.5-0.7-1-0.9-1.3-1.2c-0.4-0.2-0.7-0.4-1.1-1c-0.4-0.6-0.5-0.9-0.6-1.3c-0.1-0.4-0.2-0.9-0.7-1.6
				c-0.5-0.7-1-0.9-1.3-1.2c-0.4-0.2-0.7-0.4-1.1-1s-0.5-0.9-0.6-1.3c-0.1-0.4-0.2-0.9-0.6-1.5l5.6-4.2c0.5,0.6,0.9,0.8,1.2,1
				c0.4,0.2,0.7,0.4,1.1,1c0.4,0.6,0.5,0.9,0.6,1.3c0.1,0.4,0.2,0.9,0.7,1.6c0.5,0.7,1,0.9,1.3,1.2c0.4,0.2,0.7,0.4,1.1,1
				c0.4,0.6,0.5,0.9,0.6,1.3c0.1,0.4,0.2,0.9,0.7,1.6c0.5,0.7,1,0.9,1.3,1.2c0.4,0.2,0.7,0.4,1.1,1c0.4,0.6,0.5,0.9,0.6,1.3
				c0.1,0.4,0.2,0.9,0.7,1.6c0.5,0.7,1,0.9,1.3,1.2c0.4,0.2,0.7,0.4,1.1,1s0.5,0.9,0.6,1.3c0.1,0.4,0.2,0.9,0.7,1.6L251.3,214.6
				L251.3,214.6z M233.7,185.1c2.6-0.5,5.2-0.6,7.8-0.2l-9.1,6.8c-0.2,0.1-0.2,0.4-0.1,0.5c0.1,0.2,0.4,0.2,0.5,0.1l9.6-7.2
				c0,0,0,0,0,0c1.3,0.2,2.5,0.6,3.7,1L231,197.4C230.8,193.2,231.6,189,233.7,185.1z M231,198.3l4.6-3.4c0.3,0.5,0.4,0.8,0.5,1.2
				c0.1,0.4,0.2,0.9,0.7,1.6c0.5,0.7,1,0.9,1.3,1.2c0.4,0.2,0.7,0.4,1.1,1c0.4,0.6,0.5,0.9,0.6,1.3c0.1,0.4,0.2,0.9,0.7,1.6
				c0.5,0.7,1,0.9,1.3,1.2c0.4,0.2,0.7,0.4,1.1,1c0.4,0.6,0.5,0.9,0.6,1.3c0.1,0.4,0.2,0.9,0.7,1.6c0.5,0.7,1,0.9,1.3,1.2
				c0.4,0.2,0.7,0.4,1.1,1c0.4,0.6,0.5,0.9,0.6,1.3c0.1,0.4,0.2,0.9,0.7,1.6s1,1,1.3,1.2c0.4,0.2,0.7,0.4,1.1,0.9l-4.5,3.4
				c-4.1-1.6-7.7-4.3-10.4-7.9C233,206.9,231.4,202.7,231,198.3z M259.5,219.7c-2.6,0.5-5.1,0.6-7.7,0.2l8.7-6.5
				c0.2-0.1,0.2-0.4,0.1-0.5s-0.4-0.2-0.5-0.1l-9.3,6.9c0,0,0,0,0,0c-1.3-0.2-2.5-0.6-3.7-1l15.2-11.3
				C262.4,211.6,261.5,215.9,259.5,219.7z"/>
			<path fill="#CB226B" d="M246.8,187.5c-0.2-0.1-0.4,0-0.5,0.2c-0.1,0.2,0,0.4,0.2,0.5c3.7,1.5,7,3.9,9.4,7.2
				c1.5,1.9,2.6,4.1,3.3,6.4c0.1,0.2,0.3,0.3,0.5,0.3c0,0,0.1,0,0.1-0.1c0.1-0.1,0.2-0.3,0.1-0.4c-0.8-2.4-1.9-4.6-3.4-6.6
				C254,191.6,250.7,189,246.8,187.5z"/>
			<path fill="#CB226B" d="M260,203.1c-0.2,0-0.3,0.3-0.3,0.5c0.2,1,0.4,2,0.5,3c0,0.2,0.2,0.4,0.4,0.4c0.1,0,0.1,0,0.2-0.1
				c0.1-0.1,0.2-0.2,0.2-0.3c-0.1-1-0.2-2.1-0.5-3.1C260.4,203.2,260.2,203,260,203.1z"/>
			<path fill="#CB226B" d="M243.8,194.6c0.2-0.1,0.2-0.4,0.1-0.5c-0.1-0.2-0.4-0.2-0.5-0.1l-3.9,2.9c-0.2,0.1-0.2,0.4-0.1,0.5
				c0.1,0.2,0.4,0.2,0.5,0.1l1.7-1.2l2.8,3.8l-1.7,1.2c-0.2,0.1-0.2,0.4-0.1,0.5c0.1,0.2,0.4,0.2,0.5,0.1l1.7-1.2l2.8,3.8l-1.7,1.2
				c-0.2,0.1-0.2,0.4-0.1,0.5c0.1,0.2,0.4,0.2,0.5,0.1l1.7-1.2l2.8,3.8l-1.7,1.2c-0.2,0.1-0.2,0.4-0.1,0.5c0.1,0.2,0.4,0.2,0.5,0.1
				l3.9-2.9c0.2-0.1,0.2-0.4,0.1-0.5s-0.4-0.2-0.5-0.1l-1.7,1.2l-2.8-3.8l1.7-1.2c0.2-0.1,0.2-0.4,0.1-0.5c-0.1-0.2-0.4-0.2-0.5-0.1
				l-1.7,1.2l-2.8-3.8l1.7-1.2c0.2-0.1,0.2-0.4,0.1-0.5c-0.1-0.2-0.4-0.2-0.5-0.1l-1.7,1.2l-2.8-3.8L243.8,194.6z"/>
		</g>
	</g>
</g>
<g id="Layer_3">
</g>
</svg>
