<?xml version="1.0" encoding="utf-8"?>
<!-- Generator: Adobe Illustrator 18.1.1, SVG Export Plug-In . SVG Version: 6.00 Build 0)  -->
<svg version="1.1" id="Layer" xmlns="http://www.w3.org/2000/svg" xmlns:xlink="http://www.w3.org/1999/xlink" x="0px" y="0px"
	 viewBox="0 0 112.8 113.5" enable-background="new 0 0 112.8 113.5" xml:space="preserve">
<path fill-rule="evenodd" clip-rule="evenodd" fill="#E62E6E" d="M88.8,31.3c-2.4,1.6-5.2,2.8-8.1,3.4c-2.3-2.7-5.6-4.4-9.3-4.4
	c-7,0-12.7,6.2-12.7,13.9c0,1.1,0.1,2.2,0.3,3.2c-10.6-0.6-19.9-6.1-26.2-14.5c-1.1,2.1-1.7,4.4-1.7,7c0,4.8,2.2,9.1,5.6,11.6
	c-2.1-0.1-4-0.7-5.8-1.7v0.2c0,6.8,4.4,12.4,10.2,13.6c-1.1,0.3-2.2,0.5-3.3,0.5c-0.8,0-1.6-0.1-2.4-0.2c1.6,5.5,6.3,9.5,11.9,9.6
	c-4.3,3.8-9.8,6-15.8,6c-1,0-2.1-0.1-3-0.2c5.6,3.9,12.3,6.2,19.5,6.2c23.4,0,36.1-21.2,36.1-39.5l0-1.8c2.5-2,4.6-4.4,6.4-7.2
	c-2.3,1.1-4.8,1.9-7.3,2.2C85.8,37.3,87.8,34.5,88.8,31.3z M56.4,111.8C26,111.8,1.4,87.2,1.4,56.7C1.4,26.3,26,1.7,56.4,1.7
	c30.4,0,55.1,24.6,55.1,55.1C111.5,87.2,86.8,111.8,56.4,111.8z"/>
</svg>
